<svg width="80" height="80" viewBox="0 0 80 80" fill="none" xmlns="http://www.w3.org/2000/svg">
<path d="M61.25 80H18.75C8.41125 80 0 71.5888 0 61.25V18.75C0 8.41125 8.41125 0 18.75 0H61.25C71.5888 0 80 8.41125 80 18.75V61.25C80 71.5888 71.5888 80 61.25 80ZM18.75 6.25C11.8575 6.25 6.25 11.8575 6.25 18.75V61.25C6.25 68.1425 11.8575 73.75 18.75 73.75H61.25C68.1425 73.75 73.75 68.1425 73.75 61.25V18.75C73.75 11.8575 68.1425 6.25 61.25 6.25H18.75Z" fill="#EEA83F"/>
<path d="M60.8506 45.957C61.5479 45.1787 61.9727 44.1514 61.9727 43.0273C61.9727 40.6045 60.001 38.6328 57.5781 38.6328H49.0488C49.8936 36.0693 50.2539 32.668 50.2539 31.21V29.7461C50.2539 26.5156 47.625 23.8867 44.3945 23.8867H42.9297C42.2578 23.8867 41.6719 24.3438 41.5088 24.9961L40.7109 28.1885C39.5928 32.6592 36.043 37.5918 32.3691 38.4883C31.7256 36.8594 30.1367 35.7031 28.2812 35.7031H19.4922C18.6836 35.7031 18.0273 36.3594 18.0273 37.168V63.5352C18.0273 64.3438 18.6836 65 19.4922 65H28.2812C30.0283 65 31.54 63.9756 32.248 62.4951L37.2812 64.1729C38.9268 64.7217 40.6416 65 42.377 65H54.6484C57.0713 65 59.043 63.0283 59.043 60.6055C59.043 60.0342 58.9336 59.4873 58.7344 58.9863C60.5977 58.4775 61.9727 56.7695 61.9727 54.7461C61.9727 53.6221 61.5479 52.5947 60.8506 51.8164C61.5479 51.0381 61.9727 50.0107 61.9727 48.8867C61.9727 47.7627 61.5479 46.7354 60.8506 45.957ZM29.7461 60.6055C29.7461 61.4131 29.0889 62.0703 28.2812 62.0703H20.957V38.6328H28.2812C29.0889 38.6328 29.7461 39.29 29.7461 40.0977V60.6055ZM54.6484 47.4219H57.5781C58.3857 47.4219 59.043 48.0791 59.043 48.8867C59.043 49.6943 58.3857 50.3516 57.5781 50.3516H54.6484C53.8398 50.3516 53.1836 51.0078 53.1836 51.8164C53.1836 52.625 53.8398 53.2812 54.6484 53.2812H57.5781C58.3857 53.2812 59.043 53.9385 59.043 54.7461C59.043 55.5537 58.3857 56.2109 57.5781 56.2109H54.6484C53.8398 56.2109 53.1836 56.8672 53.1836 57.6758C53.1836 58.4844 53.8398 59.1406 54.6484 59.1406C55.4561 59.1406 56.1133 59.7979 56.1133 60.6055C56.1133 61.4131 55.4561 62.0703 54.6484 62.0703H42.377C40.957 62.0703 39.5537 61.8428 38.207 61.3936L32.6758 59.5498V41.4238C34.9736 40.9873 37.2227 39.5322 39.2529 37.1504C41.2354 34.8242 42.8428 31.7402 43.5527 28.8994L44.0732 26.8164H44.3945C46.0098 26.8164 47.3242 28.1309 47.3242 29.7461V31.21C47.3242 33.1768 46.709 36.9492 45.9219 38.6328H42.9297C42.1211 38.6328 41.4648 39.2891 41.4648 40.0977C41.4648 40.9062 42.1211 41.5625 42.9297 41.5625H57.5781C58.3857 41.5625 59.043 42.2197 59.043 43.0273C59.043 43.835 58.3857 44.4922 57.5781 44.4922H54.6484C53.8398 44.4922 53.1836 45.1484 53.1836 45.957C53.1836 46.7656 53.8398 47.4219 54.6484 47.4219Z" fill="#EEA83F" stroke="#EEA83F"/>
<path d="M25.3516 59.1406C26.1606 59.1406 26.8164 58.4848 26.8164 57.6758C26.8164 56.8668 26.1606 56.2109 25.3516 56.2109C24.5426 56.2109 23.8867 56.8668 23.8867 57.6758C23.8867 58.4848 24.5426 59.1406 25.3516 59.1406Z" fill="#EEA83F" stroke="#EEA83F"/>
<path d="M45.8594 15C45.0504 15 44.3945 15.6559 44.3945 16.4648V19.4922C44.3945 20.3012 45.0504 20.957 45.8594 20.957C46.6684 20.957 47.3242 20.3012 47.3242 19.4922V16.4648C47.3242 15.6559 46.6684 15 45.8594 15Z" fill="#EEA83F" stroke="#EEA83F"/>
<path d="M39.6445 21.4597L37.5729 19.3882C37.001 18.8161 36.0734 18.8161 35.5014 19.3882C34.9293 19.9602 34.9293 20.8877 35.5014 21.4597L37.5729 23.5313C38.1449 24.1033 39.0726 24.1034 39.6445 23.5313C40.2166 22.9593 40.2166 22.0318 39.6445 21.4597Z" fill="#EEA83F" stroke="#EEA83F"/>
<path d="M56.2173 19.3882C55.6454 18.8161 54.7178 18.8161 54.1457 19.3882L52.0742 21.4596C51.5021 22.0317 51.5021 22.9592 52.0742 23.5312C52.6461 24.1033 53.5737 24.1034 54.1457 23.5313L56.2173 21.4597C56.7894 20.8877 56.7894 19.9602 56.2173 19.3882Z" fill="#EEA83F" stroke="#EEA83F"/>
</svg>
