<svg width="80" height="80" viewBox="0 0 80 80" fill="none" xmlns="http://www.w3.org/2000/svg">
<path d="M61.25 80H18.75C8.41125 80 0 71.5888 0 61.25V18.75C0 8.41125 8.41125 0 18.75 0H61.25C71.5888 0 80 8.41125 80 18.75V61.25C80 71.5888 71.5888 80 61.25 80ZM18.75 6.25C11.8575 6.25 6.25 11.8575 6.25 18.75V61.25C6.25 68.1425 11.8575 73.75 18.75 73.75H61.25C68.1425 73.75 73.75 68.1425 73.75 61.25V18.75C73.75 11.8575 68.1425 6.25 61.25 6.25H18.75Z" fill="#EEA83F"/>
<path d="M55.1459 29.8839L58.1396 26.8901L55.1938 23.9432L51.9912 27.1458C49.0655 25.0725 45.6514 23.7946 42.0834 23.4375V19.1667H46.25V15H33.75V19.1667H37.9167V23.4375C34.3487 23.7946 30.9346 25.0725 28.0089 27.1458L24.8063 23.9432L21.8604 26.8901L24.8542 29.8839C22.0597 32.8426 20.193 36.5551 19.4847 40.5628C18.7763 44.5704 19.2573 48.6979 20.8683 52.4353C22.4792 56.1727 25.1496 59.3564 28.5496 61.5932C31.9495 63.8301 35.9302 65.0221 40 65.0221C44.0698 65.0221 48.0505 63.8301 51.4505 61.5932C54.8505 59.3564 57.5208 56.1727 59.1318 52.4353C60.7427 48.6979 61.2237 44.5704 60.5154 40.5628C59.807 36.5551 57.9403 32.8426 55.1459 29.8839ZM40 60.8333C36.7037 60.8333 33.4813 59.8559 30.7405 58.0245C27.9997 56.1931 25.8635 53.5902 24.602 50.5447C23.3406 47.4993 23.0105 44.1482 23.6536 40.9152C24.2967 37.6821 25.884 34.7124 28.2149 32.3816C30.5458 30.0507 33.5155 28.4633 36.7485 27.8202C39.9815 27.1772 43.3327 27.5072 46.3781 28.7687C49.4235 30.0301 52.0265 32.1663 53.8579 34.9072C55.6892 37.648 56.6667 40.8703 56.6667 44.1667C56.6617 48.5854 54.9042 52.8218 51.7797 55.9463C48.6551 59.0708 44.4188 60.8284 40 60.8333Z" fill="#EEA83F" stroke="#EEA83F"/>
<path d="M40 31.6666V44.1666H27.5C27.5 46.6389 28.2331 49.0556 29.6066 51.1113C30.9801 53.1669 32.9324 54.769 35.2165 55.7151C37.5005 56.6612 40.0139 56.9088 42.4386 56.4264C44.8634 55.9441 47.0907 54.7536 48.8388 53.0055C50.587 51.2573 51.7775 49.03 52.2598 46.6053C52.7421 44.1805 52.4946 41.6672 51.5485 39.3831C50.6024 37.099 49.0002 35.1468 46.9446 33.7733C44.889 32.3997 42.4723 31.6666 40 31.6666Z" fill="#EEA83F" stroke="#EEA83F"/>
</svg>
