<svg width="80" height="80" viewBox="0 0 80 80" fill="none" xmlns="http://www.w3.org/2000/svg">
<path d="M61.25 80H18.75C8.41125 80 0 71.5888 0 61.25V18.75C0 8.41125 8.41125 0 18.75 0H61.25C71.5888 0 80 8.41125 80 18.75V61.25C80 71.5888 71.5888 80 61.25 80ZM18.75 6.25C11.8575 6.25 6.25 11.8575 6.25 18.75V61.25C6.25 68.1425 11.8575 73.75 18.75 73.75H61.25C68.1425 73.75 73.75 68.1425 73.75 61.25V18.75C73.75 11.8575 68.1425 6.25 61.25 6.25H18.75Z" fill="#EEA83F"/>
<path d="M63.1657 28.606L63.1555 28.5958C62.7392 28.2201 62.0994 28.2201 61.7033 28.6161C61.3073 29.0122 61.3073 29.652 61.7033 30.048C63.3688 31.7134 63.3688 34.4147 61.7033 36.0801C60.0379 37.7456 57.3367 37.7456 55.6712 36.0801C55.6509 36.0598 55.6407 36.0497 55.6204 36.0395C54.0972 33.9069 52.1474 32.1197 49.9031 30.7893C52.2286 25.3056 49.6594 18.9789 44.1756 16.6636C38.6919 14.3482 32.3652 16.9073 30.0499 22.3911C29.5827 23.5081 29.2984 24.6963 29.2172 25.9047C28.1407 25.6001 27.2775 25.4579 26.6073 25.4782C25.5308 25.4884 24.7387 26.1586 24.6169 27.1436C24.5458 27.5803 24.5966 28.2201 24.8301 30.3019L25.0434 32.2923C23.0936 33.8765 21.5602 35.7247 20.4533 37.7964L17.5083 38.3752C16.046 38.6697 15 39.9594 15 41.442V47.9718C15 49.4646 16.046 50.7441 17.5083 51.0386L20.4634 51.6276C21.0423 52.765 21.7531 53.8313 22.5859 54.8062C21.4891 57.5277 22.3015 60.6454 24.5763 62.5037C25.9269 63.6005 27.6228 64.1996 29.3593 64.1895C31.3396 64.1895 33.2487 63.438 34.7009 62.0874L35.4118 61.4171C38.0318 61.8132 40.7127 61.7218 43.3023 61.1734L44.3076 62.1382C45.6989 63.4482 47.5471 64.1793 49.4563 64.159H49.6695C49.6797 64.159 49.6899 64.159 49.7 64.159C51.6904 64.1082 53.5793 63.2755 54.9604 61.8335C57.0929 59.5791 57.3468 56.1873 55.6611 53.5266C57.5702 50.866 58.5756 47.8195 58.5756 44.6714V43.93C58.5756 43.9097 58.5756 43.8894 58.5756 43.8691C58.4842 42.356 58.0881 40.7921 57.3976 39.2079C59.4794 39.6547 61.6526 39.015 63.1555 37.5019C65.6131 35.0443 65.6131 31.0635 63.1657 28.606ZM39.9816 17.8314C44.8052 17.8213 48.7251 21.7208 48.7353 26.5445C48.7454 29.459 47.2932 32.1907 44.8662 33.8156C44.7849 33.8765 44.7037 33.9983 44.6428 33.9983H35.361C35.3204 33.9983 35.2696 33.9374 35.2188 33.8968C32.9136 32.404 31.4513 29.916 31.2482 27.1843C31.2279 26.9507 31.2279 26.7476 31.2279 26.5648C31.238 21.7513 35.1477 17.8416 39.9816 17.8314ZM53.691 52.7751C53.5183 52.9782 53.2543 53.4454 53.5691 54.075C53.5996 54.1359 53.63 54.1867 53.6707 54.2375C55.1431 56.1568 55.0619 58.7565 53.4777 60.4321C52.4724 61.4781 51.1116 62.128 49.6391 62.128H49.4461C48.0549 62.1382 46.7144 61.6202 45.6989 60.6657L44.3787 59.4064C44.1452 59.183 43.8304 59.0612 43.5155 59.0713C43.4343 59.0713 43.3632 59.0815 43.282 59.1018C40.6721 59.7212 37.9709 59.8025 35.3204 59.3557C35.2594 59.3455 35.2087 59.3455 35.1477 59.3455C34.8228 59.3353 34.5181 59.4572 34.2846 59.6806L33.2894 60.625C32.2738 61.5695 30.9638 62.1077 29.5827 62.1686C28.2321 62.2397 26.8916 61.803 25.8355 60.9602C24.1498 59.5791 23.6318 57.2129 24.5966 55.253C24.7489 54.9991 24.7895 54.6843 24.7083 54.3898C24.6677 54.207 24.5864 54.0445 24.4646 53.9125C23.51 52.8665 22.7077 51.6784 22.0883 50.3988C22.0375 50.2973 21.9766 50.2059 21.8953 50.1247C21.7024 49.9114 21.4485 49.7794 21.1743 49.7286L17.9044 49.0685C17.3966 48.967 17.031 48.51 17.031 47.9921V41.442C17.0209 40.9241 17.3865 40.4672 17.9044 40.3656L21.1845 39.7055C21.4586 39.6547 21.7125 39.5227 21.9055 39.3095C21.9867 39.2282 22.0476 39.147 22.0984 39.0454C23.1342 36.9738 24.6778 35.1256 26.6784 33.582C26.7088 33.5515 26.7393 33.5312 26.7698 33.5007C27.0033 33.2672 27.1252 32.9524 27.115 32.6274C27.115 32.5868 27.115 32.5563 27.1049 32.5157L26.8409 30.0785C26.7495 29.2965 26.5971 27.885 26.6174 27.4991C26.6276 27.4991 26.6479 27.4991 26.6581 27.4991C27.0643 27.4889 27.8462 27.56 29.2882 28.0271C29.5929 30.2816 30.6084 32.3735 32.1824 34.0085H31.2177C30.6592 34.0085 30.2022 34.4655 30.2022 35.024C30.2022 35.5825 30.6592 36.0395 31.2177 36.0395H48.8165C49.375 36.0395 49.832 35.5825 49.832 35.024C49.832 34.4655 49.375 34.0085 48.8165 34.0085H47.7604C48.2072 33.5718 48.6033 33.0844 48.9384 32.5563C51.2842 33.978 53.2137 35.8872 54.544 38.0807L55.265 39.472C56.0063 41.0054 56.4328 42.5591 56.5344 43.9808V44.6815C56.5344 47.5757 55.5494 50.3684 53.691 52.7751Z" fill="#EEA83F" stroke="#EEA83F"/>
<path d="M29.0649 39.5939C27.6229 39.5939 26.4652 40.7617 26.4652 42.1936C26.4652 43.6356 27.633 44.7933 29.0649 44.7933C30.4968 44.7933 31.6646 43.6255 31.6646 42.1936C31.6748 40.7617 30.5069 39.5939 29.0649 39.5939ZM29.0649 42.7724C28.7501 42.7724 28.4962 42.5185 28.4962 42.2037C28.4962 41.8889 28.7501 41.635 29.0649 41.635C29.3797 41.635 29.6336 41.8889 29.6336 42.2037C29.6438 42.5185 29.3899 42.7724 29.0649 42.7724Z" fill="#EEA83F" stroke="#EEA83F"/>
<path d="M39.9816 20.4108C36.5797 20.4108 33.8276 23.1628 33.8276 26.5648C33.8378 29.9566 36.5898 32.7086 39.9816 32.7188C43.3836 32.7188 46.1356 29.9667 46.1356 26.5648C46.1356 23.1628 43.3836 20.4108 39.9816 20.4108ZM39.9816 30.6877C37.7069 30.6877 35.8587 28.8395 35.8587 26.5648C35.8587 24.29 37.7069 22.4418 39.9816 22.4418C42.2564 22.4418 44.1046 24.29 44.1046 26.5648C44.1046 28.8395 42.2564 30.6877 39.9816 30.6877Z" fill="#EEA83F" stroke="#EEA83F"/>
</svg>
