<svg width="16" height="19" viewBox="0 0 16 19" fill="none" xmlns="http://www.w3.org/2000/svg">
<path fill-rule="evenodd" clip-rule="evenodd" d="M9.12496 1.125C9.12496 0.826631 9.00643 0.540483 8.79545 0.329505C8.58447 0.118527 8.29833 0 7.99996 0C7.70159 0 7.41544 0.118527 7.20446 0.329505C6.99348 0.540483 6.87496 0.826631 6.87496 1.125L6.87496 14.1593L2.04646 9.3285C1.83521 9.11725 1.5487 8.99858 1.24996 8.99858C0.951212 8.99858 0.664702 9.11725 0.453457 9.3285C0.242212 9.53974 0.123535 9.82625 0.123535 10.125C0.123535 10.4237 0.242212 10.7103 0.453457 10.9215L7.20346 17.6715C7.30796 17.7763 7.43211 17.8594 7.56878 17.9161C7.70546 17.9728 7.85198 18.002 7.99996 18.002C8.14793 18.002 8.29446 17.9728 8.43113 17.9161C8.56781 17.8594 8.69196 17.7763 8.79646 17.6715L15.5465 10.9215C15.7577 10.7103 15.8764 10.4237 15.8764 10.125C15.8764 9.82625 15.7577 9.53974 15.5465 9.3285C15.3352 9.11725 15.0487 8.99858 14.75 8.99858C14.4512 8.99858 14.1647 9.11725 13.9535 9.3285L9.12496 14.1593L9.12496 1.125Z" fill="#FFE812"/>
</svg>
