<svg width="747" height="805" viewBox="0 0 747 805" fill="none" xmlns="http://www.w3.org/2000/svg">
<path d="M160.617 518.683C155.319 457.642 209.693 371.635 214.743 317.983C219.439 264.126 174.809 242.623 206.32 205.19C237.478 167.554 294.47 150.49 355.486 139.52C416.148 128.346 481.242 122.559 547.091 140.778C613.143 158.643 680.154 200.16 689.779 256.157C699.404 312.154 547.982 338.53 516.572 398.648C484.959 459.12 573.357 553.334 541.762 598.26C510.167 643.187 461.533 682.518 400.881 702.654C340.379 723.349 267.71 724.291 224.322 688.399C180.377 652.656 166.473 579.575 160.617 518.683Z" fill="url(#paint0_linear)"/>
<defs>
<linearGradient id="paint0_linear" x1="323.646" y1="-0.000154873" x2="764.951" y2="308.181" gradientUnits="userSpaceOnUse">
<stop stop-color="#FFAA00"/>
<stop offset="1" stop-color="#FFE812"/>
</linearGradient>
</defs>
</svg>
