<svg width="701" height="713" viewBox="0 0 701 713" fill="none" xmlns="http://www.w3.org/2000/svg">
<path d="M387.187 566.288C334.797 553.542 294.898 536.498 251.579 517.201C207.99 498.14 160.981 476.827 138.628 440.025C116.006 403.461 117.802 351.139 125.813 297.175C133.553 243.449 147.032 187.542 180.74 137.757C214.211 87.7015 267.674 43.4982 317.074 51.2184C366.474 58.9386 411.812 118.582 453.11 161.678C494.646 205.044 532.142 231.863 560.72 270.842C589.298 309.821 608.419 361.435 608.155 417.673C608.398 473.942 588.75 534.803 546.62 560.89C504.458 587.484 439.609 578.528 387.187 566.288Z" fill="url(#paint0_linear)"/>
<defs>
<linearGradient id="paint0_linear" x1="-2.94517e-05" y1="284.95" x2="382.572" y2="2.70321" gradientUnits="userSpaceOnUse">
<stop stop-color="#FFAA00"/>
<stop offset="1" stop-color="#FFE812"/>
</linearGradient>
</defs>
</svg>
