<svg width="252" height="85" viewBox="0 0 252 85" fill="none" xmlns="http://www.w3.org/2000/svg">
<g clip-path="url(#clip0)">
<path d="M208.699 1.1915C218.927 1.21016 228.784 5.02738 236.358 11.9026C243.931 18.7779 248.681 28.221 249.685 38.4001C250.69 48.5792 247.878 58.7687 241.795 66.9917C235.711 75.2147 226.791 80.8851 216.763 82.9029C206.736 84.9207 196.316 83.142 187.526 77.9118C178.735 72.6817 172.201 64.373 169.19 54.5975C166.18 44.8221 166.907 34.2768 171.232 25.0075C175.556 15.7381 183.17 8.40542 192.595 4.43196C197.691 2.28097 203.168 1.17888 208.699 1.1915ZM208.699 0C185.192 0 166.137 19.0278 166.137 42.5C166.137 65.9722 185.192 85 208.699 85C232.206 85 251.261 65.9722 251.261 42.5C251.261 19.0278 232.206 0 208.699 0Z" fill="#405398"/>
<path d="M208.823 4.68124C218.163 4.69437 227.164 8.17605 234.082 14.4508C240.999 20.7256 245.339 29.3461 246.26 38.6399C247.181 47.9337 244.616 57.2382 239.065 64.7483C233.513 72.2585 225.37 77.4388 216.215 79.2842C207.06 81.1297 197.545 79.5088 189.518 74.7359C181.49 69.9631 175.521 62.3785 172.77 53.4538C170.018 44.5291 170.68 34.9004 174.626 26.4357C178.572 17.9711 185.522 11.274 194.127 7.64378C198.777 5.67896 203.775 4.67139 208.823 4.68124ZM208.823 3.48975C187.313 3.48975 169.875 20.8998 169.875 42.3754C169.875 63.8509 187.313 81.261 208.823 81.261C230.334 81.261 247.771 63.8509 247.771 42.3754C247.771 20.8998 230.334 3.48975 208.823 3.48975Z" fill="#405398"/>
<path d="M208.699 13.4056C215.941 13.4154 222.922 16.1151 228.287 20.9809C233.652 25.8466 237.018 32.5316 237.732 39.7389C238.447 46.9462 236.458 54.1619 232.154 59.9862C227.849 65.8105 221.534 69.8282 214.434 71.2598C207.334 72.6914 199.956 71.4348 193.73 67.7339C187.505 64.0329 182.876 58.1515 180.741 51.2305C178.607 44.3095 179.119 36.8425 182.179 30.278C185.239 23.7135 190.628 18.5196 197.301 15.7038C200.908 14.1814 204.784 13.4006 208.699 13.4081V13.4056ZM208.699 12.2166C191.87 12.2141 178.226 25.8291 178.226 42.6247C178.226 59.4203 191.87 73.0352 208.699 73.0352C225.528 73.0352 239.172 59.4203 239.172 42.6247C239.172 25.8291 225.528 12.2141 208.699 12.2141V12.2166Z" fill="#405398"/>
<path d="M185.782 21.5205L184.793 21.1653L183.525 22.6895L184.056 23.5969L183.657 24.0767L181.319 19.9975L181.743 19.489L186.18 21.0419L185.782 21.5205ZM183.234 22.1848L184.243 20.9696L182.066 20.1906L183.234 22.1848Z" fill="#405398"/>
<path d="M188.903 18.4918L188.38 18.9829L185.547 18.7411L186.994 20.2828L186.566 20.6891L183.553 17.4761L183.979 17.076L185.34 18.5255L185.32 15.8184L185.842 15.3274L185.888 18.2189L188.903 18.4918Z" fill="#405398"/>
<path d="M191.905 16.2747L191.326 16.7009L188.542 16.1251L189.796 17.8226L189.325 18.1691L186.707 14.6208L187.178 14.2743L188.357 15.8759L188.659 13.185L189.236 12.7588L188.945 15.6403L191.905 16.2747Z" fill="#405398"/>
<path d="M191.58 11.3865C191.742 11.291 191.92 11.2289 192.106 11.2039C192.292 11.1788 192.481 11.1914 192.662 11.2408C192.842 11.2902 193.011 11.3755 193.158 11.4915C193.306 11.6075 193.428 11.752 193.518 11.9162C193.614 12.0769 193.676 12.2554 193.7 12.4408C193.724 12.6262 193.709 12.8146 193.658 12.9943C193.609 13.1762 193.523 13.346 193.406 13.4935C193.288 13.641 193.142 13.7629 192.976 13.8518L192.093 14.3503L192.868 15.7213L192.359 16.0104L190.191 12.1767L191.58 11.3865ZM192.702 13.3806C192.801 13.3282 192.889 13.2557 192.958 13.1678C193.028 13.0798 193.079 12.9783 193.107 12.8696C193.162 12.6449 193.126 12.4077 193.007 12.2091C192.95 12.1049 192.873 12.0126 192.78 11.9374C192.697 11.8666 192.598 11.8148 192.493 11.7853C192.388 11.7568 192.279 11.7487 192.171 11.7617C192.056 11.7754 191.946 11.8123 191.846 11.8701L190.965 12.3686L191.821 13.8792L192.702 13.3806Z" fill="#405398"/>
<path d="M195.944 13.4954L197.826 12.6952L198.043 13.2112L195.621 14.2407L193.897 10.1864L196.289 9.16937L196.506 9.67912L194.653 10.4668L195.182 11.7131L196.891 10.9865L197.105 11.4913L195.397 12.2142L195.944 13.4954Z" fill="#405398"/>
<path d="M201.657 11.5349L202.111 11.4103L202.493 12.7539L201.93 12.9146L201.699 12.1033L198.903 12.8997L199.134 13.711L198.571 13.8706L198.188 12.527L198.562 12.4223C198.729 12.016 198.718 11.4822 198.531 10.8208L197.897 8.59982L200.603 7.82959L201.657 11.5349ZM201.094 11.6957L200.189 8.51756L198.61 8.97372L199.095 10.675C199.277 11.3131 199.31 11.8357 199.194 12.2429L201.094 11.6957Z" fill="#405398"/>
<path d="M205.645 11.445L205.195 8.19087L203.402 11.7566L202.935 11.8214L202.329 7.45927L202.91 7.37951L203.361 10.6399L205.153 7.06792L205.622 7.00311L206.226 11.3653L205.645 11.445Z" fill="#405398"/>
<path d="M209.929 6.87231L209.938 7.42569L208.635 7.44563L208.693 11.2968L208.108 11.3055L208.049 7.45435L206.753 7.47429L206.745 6.91968L209.929 6.87231Z" fill="#405398"/>
<path d="M210.334 9.04959C210.395 8.52859 210.636 8.04499 211.013 7.68105C211.391 7.31712 211.884 7.09532 212.407 7.0534C212.929 7.01148 213.451 7.15202 213.882 7.45111C214.313 7.75021 214.627 8.18938 214.771 8.69393C214.914 9.19848 214.879 9.73724 214.67 10.2186C214.461 10.6999 214.092 11.094 213.626 11.334C213.159 11.5739 212.624 11.6449 212.111 11.5347C211.598 11.4245 211.139 11.14 210.813 10.7296C210.622 10.4971 210.482 10.228 210.4 9.9391C210.317 9.65017 210.295 9.34746 210.334 9.04959ZM214.287 9.49204C214.318 9.26817 214.302 9.04047 214.242 8.82279C214.181 8.60511 214.077 8.40198 213.936 8.22576C213.799 8.04758 213.627 7.90003 213.43 7.79268C213.233 7.68533 213.015 7.62057 212.792 7.6026C212.568 7.57243 212.341 7.58898 212.124 7.65119C211.907 7.71341 211.705 7.81993 211.532 7.96403C211.357 8.10656 211.212 8.28282 211.106 8.48235C211 8.68189 210.936 8.90064 210.916 9.12561C210.886 9.34962 210.902 9.57727 210.961 9.7953C211.02 10.0133 211.122 10.2174 211.261 10.3956C211.4 10.5728 211.574 10.7195 211.772 10.8267C211.97 10.9339 212.188 10.9993 212.413 11.0188C212.635 11.0494 212.861 11.0337 213.076 10.9725C213.292 10.9114 213.493 10.8062 213.665 10.6636C213.843 10.5208 213.99 10.3433 214.097 10.1418C214.204 9.94042 214.269 9.71932 214.287 9.49204Z" fill="#405398"/>
<path d="M218.325 10.3533C218.493 10.4902 218.62 10.6704 218.692 10.8743C218.764 11.0841 218.771 11.3112 218.71 11.5248C218.672 11.6859 218.6 11.8372 218.5 11.9688C218.399 12.1004 218.272 12.2094 218.127 12.2888C217.981 12.3719 217.821 12.4251 217.654 12.4454C217.488 12.4657 217.319 12.4528 217.158 12.4072L215.314 11.9286L216.422 7.6637L218.131 8.10739C218.289 8.14431 218.437 8.21254 218.568 8.30803C218.699 8.40352 218.809 8.52432 218.892 8.66325C218.977 8.79926 219.032 8.95136 219.055 9.1099C219.078 9.26845 219.067 9.42999 219.025 9.5843C218.985 9.76235 218.9 9.92703 218.777 10.0619C218.655 10.1968 218.499 10.2973 218.325 10.3533ZM217.292 11.8763C217.384 11.9009 217.48 11.906 217.574 11.8913C217.662 11.8758 217.746 11.845 217.823 11.8003C217.901 11.7537 217.969 11.6918 218.022 11.6183C218.081 11.5405 218.123 11.452 218.147 11.3578C218.172 11.2676 218.179 11.1731 218.166 11.0802C218.153 10.9874 218.121 10.8981 218.072 10.8182C218.029 10.7374 217.968 10.6667 217.896 10.6106C217.823 10.5546 217.739 10.5145 217.65 10.4929L216.376 10.1626L216.017 11.546L217.292 11.8763ZM216.851 8.3417L216.511 9.6516L217.65 9.94698C217.736 9.96981 217.825 9.97406 217.913 9.95944C217.996 9.9454 218.076 9.91671 218.15 9.87469C218.223 9.83117 218.287 9.77305 218.337 9.70394C218.392 9.62939 218.431 9.54468 218.454 9.45468C218.477 9.3698 218.483 9.28108 218.471 9.19389C218.459 9.1067 218.429 9.02285 218.384 8.94742C218.344 8.87034 218.289 8.80264 218.221 8.74889C218.153 8.69514 218.074 8.65659 217.99 8.63584L216.851 8.3417Z" fill="#405398"/>
<path d="M221.74 14.0362L221.777 12.9855L219.937 12.2465L219.23 13.0304L218.652 12.7974L221.82 9.32257L222.432 9.57184L222.308 14.273L221.74 14.0362ZM220.328 11.814L221.794 12.4035L221.868 10.0928L220.328 11.814Z" fill="#405398"/>
<path d="M227.332 12.0309L227.841 12.32L225.665 16.1525L225.157 15.8634L226.135 14.1384L224.273 13.0865L223.295 14.8115L222.786 14.5223L224.963 10.6861L225.473 10.9752L224.551 12.5955L226.412 13.6524L227.332 12.0309Z" fill="#405398"/>
<path d="M231.291 14.8315L231.756 15.1867L229.076 18.6826L228.617 18.3212L229.824 16.7508L228.119 15.4546L226.917 17.03L226.45 16.6748L229.125 13.1738L229.591 13.529L228.453 15.0122L230.155 16.3109L231.291 14.8315Z" fill="#405398"/>
<path d="M229.803 19.2871L232.963 16.2161L233.371 16.6361L232.242 17.7329L232.95 18.462C233.212 18.7313 233.357 19.0937 233.352 19.4695C233.347 19.8453 233.193 20.2038 232.924 20.4661C232.655 20.7284 232.292 20.873 231.916 20.8681C231.541 20.8632 231.182 20.7092 230.92 20.44L229.803 19.2871ZM230.604 19.3257L231.31 20.0523C231.39 20.1361 231.486 20.2023 231.593 20.2468C231.692 20.2896 231.799 20.3125 231.907 20.3141C232.017 20.315 232.125 20.2929 232.226 20.2493C232.336 20.2031 232.437 20.1357 232.521 20.0511C232.607 19.969 232.677 19.8713 232.727 19.7632C232.774 19.6637 232.799 19.5554 232.801 19.4454C232.802 19.3371 232.783 19.2296 232.743 19.1288C232.701 19.021 232.638 18.923 232.556 18.8409L231.85 18.1143L230.604 19.3257ZM232.225 21.7735L235.385 18.7038L235.793 19.1238L232.629 22.1935L232.225 21.7735Z" fill="#405398"/>
<path d="M234.817 25.1648L237.485 23.2467L233.497 23.3252L233.221 22.9413L236.798 20.3701L237.14 20.845L234.468 22.7668L238.461 22.6833L238.737 23.0659L235.16 25.6384L234.817 25.1648ZM237.653 20.7527L238.042 20.4736L239.039 21.8533L238.651 22.1324L237.653 20.7527Z" fill="#405398"/>
<path d="M238.299 30.5091L238.499 30.9366L237.231 31.5323L236.982 31.0014L237.747 30.6462L236.522 28.009L235.757 28.3642L235.507 27.8332L236.774 27.2437L236.936 27.5927C237.363 27.6949 237.888 27.601 238.512 27.311L240.601 26.3414L241.789 28.8864L238.299 30.5091ZM238.05 29.9782L241.047 28.586L240.356 27.0966L238.752 27.8444C238.15 28.1253 237.639 28.2404 237.217 28.1897L238.05 29.9782Z" fill="#405398"/>
<path d="M238.904 32.2065L239.527 34.1533L239 34.3228L238.195 31.8177L242.39 30.4704L243.184 32.9456L242.661 33.1151L242.038 31.197L240.751 31.6108L241.318 33.3793L240.797 33.5464L240.234 31.7815L238.904 32.2065Z" fill="#405398"/>
<path d="M243.812 35.7174C243.853 35.9013 243.856 36.0916 243.821 36.2768C243.786 36.462 243.714 36.6381 243.609 36.7943C243.396 37.1044 243.07 37.3191 242.702 37.3927C242.333 37.4663 241.95 37.3928 241.635 37.1881C241.477 37.0845 241.343 36.9497 241.239 36.7922C241.136 36.6347 241.066 36.4576 241.034 36.272L240.834 35.275L239.296 35.5841L239.172 35.0095L243.498 34.1495L243.812 35.7174ZM241.568 36.1624C241.587 36.2731 241.629 36.3787 241.691 36.4725C241.752 36.5662 241.833 36.6461 241.927 36.707C242.124 36.8286 242.36 36.8689 242.585 36.8192C242.702 36.7968 242.814 36.7524 242.914 36.6883C243.008 36.6308 243.088 36.5538 243.149 36.4627C243.211 36.3695 243.254 36.2649 243.275 36.1549C243.297 36.045 243.296 35.9318 243.273 35.8221L243.075 34.8251L241.372 35.1665L241.568 36.1624Z" fill="#405398"/>
<path d="M240.154 43.2927L240.115 42.6259L242.128 40.8374L240.018 40.962L239.983 40.3775L242.095 40.2529L239.886 38.7124L239.847 38.0519L242.199 39.6796L244.249 37.8574L244.288 38.5167L242.365 40.2379L244.382 40.1133L244.415 40.6978L242.399 40.8225L244.51 42.3056L244.549 42.9724L242.305 41.3945L240.154 43.2927Z" fill="#405398"/>
<path d="M239.788 46.8397L240.806 46.5755L240.992 44.6013L240.044 44.1514L240.103 43.5282L244.34 45.5759L244.278 46.234L239.738 47.4567L239.788 46.8397ZM241.518 44.8531L241.369 46.4259L243.613 45.8402L241.518 44.8531Z" fill="#405398"/>
<path d="M243.409 51.3116L242.867 51.2007L243.129 49.9244L239.356 49.1505L239.473 48.5759L243.243 49.3549L243.505 48.0848L244.047 48.1958L243.409 51.3116Z" fill="#405398"/>
<path d="M239.273 51.7017L238.65 53.6497L238.122 53.4802L238.923 50.975L243.117 52.3223L242.321 54.7976L241.794 54.6281L242.412 52.7112L241.125 52.2974L240.557 54.0647L240.036 53.8977L240.604 52.1291L239.273 51.7017Z" fill="#405398"/>
<path d="M238.519 54.0211C238.445 54.1259 238.398 54.2469 238.382 54.3738C238.372 54.4932 238.4 54.6126 238.464 54.7141C238.55 54.8462 238.663 54.9594 238.794 55.0469C238.986 55.1795 239.19 55.2938 239.404 55.3884L241.664 56.4403L240.446 59.0763L236.45 57.223L236.699 56.692L240.189 58.3123L240.917 56.7381L239.152 55.9193C238.845 55.7863 238.559 55.6114 238.301 55.3996C238.124 55.2569 237.983 55.0752 237.888 54.8686C237.816 54.7002 237.795 54.5143 237.827 54.334C237.863 54.1443 237.933 53.9628 238.034 53.798L238.519 54.0211Z" fill="#405398"/>
<path d="M237.517 60.9146C237.42 61.0761 237.291 61.2162 237.138 61.3264C236.986 61.4365 236.812 61.5144 236.628 61.5552C236.353 61.6206 236.064 61.6018 235.799 61.5011C235.535 61.4004 235.306 61.2226 235.144 60.9906C234.982 60.7587 234.893 60.4833 234.889 60.2002C234.885 59.9171 234.966 59.6393 235.121 59.4028L235.978 58.048L239.702 60.4011L239.389 60.8997L238.059 60.0596L237.517 60.9146ZM235.586 59.692C235.523 59.7891 235.481 59.8981 235.462 60.0123C235.443 60.119 235.446 60.2283 235.47 60.3338C235.494 60.441 235.541 60.5418 235.607 60.6292C235.679 60.725 235.767 60.8062 235.869 60.8685C235.964 60.931 236.07 60.9743 236.181 60.9957C236.292 61.0171 236.406 61.0162 236.517 60.9931C236.628 60.9726 236.733 60.9287 236.826 60.8642C236.918 60.7997 236.996 60.7162 237.053 60.6192L237.595 59.7617L236.126 58.8345L235.586 59.692Z" fill="#405398"/>
<path d="M231.365 64.1227L231.757 63.7051L232.124 64.0504C232.588 63.6233 233.059 63.374 233.537 63.3026C233.767 63.2758 234 63.2994 234.219 63.3719C234.439 63.4443 234.64 63.5638 234.809 63.722C234.977 63.8802 235.109 64.0733 235.196 64.2878C235.282 64.5023 235.32 64.733 235.308 64.9639C235.263 65.445 235.042 65.9307 234.644 66.4209L235.012 66.7661L234.619 67.1837L234.245 66.8384C233.776 67.2713 233.305 67.5206 232.833 67.5862C232.604 67.6138 232.372 67.5908 232.153 67.5189C231.934 67.447 231.733 67.3279 231.565 67.1701C231.397 67.0123 231.266 66.8196 231.181 66.6055C231.095 66.3914 231.058 66.1612 231.071 65.9311C231.109 65.4558 231.33 64.9702 231.734 64.4741L231.365 64.1227ZM232.113 64.8293C231.809 65.2024 231.639 65.5522 231.605 65.8788C231.598 66.041 231.625 66.203 231.686 66.3535C231.747 66.504 231.84 66.6394 231.959 66.7505C232.077 66.8615 232.219 66.9455 232.373 66.9966C232.527 67.0478 232.69 67.0648 232.852 67.0466C233.176 66.9917 233.514 66.8019 233.866 66.477L232.113 64.8293ZM234.406 64.1439C234.294 64.0256 234.154 63.9367 233.999 63.885C233.844 63.8333 233.679 63.8203 233.518 63.8472C233.196 63.9037 232.86 64.0936 232.509 64.4168L234.254 66.0595C234.555 65.6881 234.722 65.3395 234.752 65.0138C234.77 64.852 234.748 64.6884 234.688 64.5369C234.629 64.3855 234.534 64.2506 234.411 64.1439H234.406Z" fill="#405398"/>
<path d="M230.946 70.4939C230.801 70.6103 230.634 70.697 230.456 70.749C230.277 70.801 230.09 70.8174 229.905 70.7971C229.721 70.7768 229.542 70.7204 229.379 70.6309C229.216 70.5415 229.072 70.4208 228.955 70.2758C228.839 70.1308 228.752 69.9643 228.7 69.7858C228.648 69.6073 228.632 69.4203 228.652 69.2355C228.672 69.0506 228.729 68.8716 228.818 68.7086C228.908 68.5456 229.028 68.4018 229.174 68.2854L229.965 67.6498L228.98 66.4221L229.438 66.0557L232.192 69.4919L230.946 70.4939ZM229.515 68.7104C229.426 68.7782 229.351 68.8638 229.296 68.9619C229.242 69.0599 229.208 69.1682 229.197 69.28C229.179 69.5105 229.253 69.7388 229.402 69.9156C229.475 70.0093 229.566 70.0883 229.668 70.1487C229.763 70.2045 229.868 70.2397 229.977 70.2521C230.088 70.2638 230.201 70.2533 230.308 70.2212C230.415 70.1892 230.514 70.1361 230.601 70.0652L231.391 69.4308L230.303 68.076L229.515 68.7104Z" fill="#405398"/>
<path d="M224.426 69.6452L225.259 70.2858L226.931 69.2214L226.708 68.1957L227.233 67.8617L228.204 72.4594L227.645 72.8146L223.895 69.9792L224.426 69.6452ZM227.056 69.7923L225.722 70.6398L227.557 72.0469L227.056 69.7923Z" fill="#405398"/>
<path d="M222.805 75.3559L222.274 75.6051L220.423 71.6069L220.955 71.3576L221.787 73.1598L223.73 72.2612L222.897 70.4628L223.428 70.2135L225.279 74.2117L224.747 74.461L223.966 72.761L222.02 73.6584L222.805 75.3559Z" fill="#405398"/>
<path d="M216.446 77.4185L215.881 77.5743L214.713 73.3256L219.558 71.9945L220.726 76.2433L220.16 76.4003L219.139 72.685L217.561 73.1187L218.582 76.8328L218.017 76.9886L216.997 73.2745L215.425 73.7057L216.446 77.4185Z" fill="#405398"/>
<path d="M211.043 73.712L211.379 76.9811L213.295 73.4802L213.764 73.4316L214.216 77.8137L213.634 77.8735L213.297 74.5994L211.379 78.1066L210.909 78.1552L210.456 73.7731L211.043 73.712Z" fill="#405398"/>
<path d="M207.375 76.0265C207.163 75.9384 206.98 75.7903 206.85 75.6002C206.723 75.4061 206.659 75.1777 206.666 74.9459C206.663 74.7692 206.701 74.5942 206.777 74.4345C206.852 74.2748 206.964 74.1346 207.102 74.0248C207.415 73.8078 207.785 73.6868 208.166 73.6766C208.546 73.6664 208.922 73.7675 209.246 73.9675C209.497 74.1507 209.685 74.4072 209.784 74.7016L209.286 74.9808C209.16 74.4822 208.806 74.233 208.221 74.233C207.968 74.2152 207.716 74.2852 207.509 74.4311C207.427 74.4952 207.361 74.5777 207.316 74.6718C207.272 74.766 207.25 74.8692 207.253 74.9733C207.248 75.0764 207.267 75.1792 207.307 75.2743C207.347 75.3694 207.408 75.4544 207.485 75.5229C207.67 75.6724 207.903 75.7483 208.14 75.7361H208.656V76.2657H208.283C208.051 76.2515 207.823 76.3205 207.638 76.4602C207.559 76.5218 207.496 76.6007 207.453 76.6909C207.409 76.781 207.388 76.8799 207.389 76.9799C207.385 77.0774 207.402 77.1745 207.44 77.2644C207.478 77.3542 207.536 77.4346 207.608 77.4996C207.784 77.6421 208.006 77.7136 208.231 77.7003C208.719 77.7003 209.046 77.4867 209.212 77.0597L209.701 77.3476C209.432 77.9533 208.941 78.2537 208.228 78.2487C207.852 78.2622 207.486 78.133 207.202 77.8872C207.074 77.7761 206.972 77.6378 206.904 77.4823C206.836 77.3269 206.803 77.1582 206.808 76.9886C206.803 76.7912 206.853 76.5963 206.954 76.4262C207.054 76.256 207.2 76.1175 207.375 76.0265Z" fill="#405398"/>
<path d="M202.552 73.1598L201.864 77.512L201.285 77.4198L201.975 73.0688L202.552 73.1598ZM205.978 73.702L205.289 78.0542L204.71 77.962L204.96 76.4078L203.955 76.2495C203.769 76.2246 203.589 76.1619 203.428 76.065C203.266 75.9681 203.126 75.8392 203.017 75.6861C202.799 75.3781 202.711 74.9974 202.77 74.6251C202.828 74.2527 203.03 73.918 203.332 73.692C203.484 73.5817 203.657 73.5036 203.84 73.4624C204.023 73.4213 204.213 73.418 204.398 73.4527L205.978 73.702ZM205.314 74.1519L204.317 73.9936C204.203 73.9739 204.086 73.9781 203.974 74.0061C203.869 74.0321 203.769 74.0778 203.681 74.1407C203.593 74.206 203.52 74.2888 203.465 74.3837C203.347 74.5931 203.308 74.8383 203.356 75.0742C203.376 75.181 203.419 75.2823 203.48 75.3721C203.544 75.4596 203.625 75.5341 203.717 75.5914C203.815 75.6522 203.924 75.6921 204.039 75.7086L205.036 75.8681L205.314 74.1519Z" fill="#405398"/>
<path d="M194.019 74.9446L193.473 74.7153L196.083 72.1628C196.321 71.9069 196.627 71.7255 196.966 71.6406C197.281 71.5853 197.605 71.6376 197.887 71.7889L197.676 72.2874C197.502 72.1787 197.296 72.1317 197.092 72.1541C196.883 72.2004 196.693 72.3101 196.549 72.4682L196.47 72.5442L196.618 76.0339L196.072 75.8046L195.971 73.0352L194.019 74.9446Z" fill="#405398"/>
<path d="M190.412 73.014L189.904 72.7236L192.099 68.9023L192.606 69.194L191.722 70.7332C192.096 70.761 192.458 70.8726 192.783 71.0597C193.12 71.2332 193.379 71.5294 193.505 71.8873C193.558 72.0556 193.575 72.2335 193.554 72.4089C193.532 72.5842 193.473 72.7528 193.38 72.9031L192.596 74.2678L192.089 73.9762L192.854 72.6451C192.911 72.5554 192.948 72.4548 192.963 72.3498C192.979 72.2448 192.971 72.1377 192.942 72.0356C192.866 71.8184 192.709 71.6395 192.503 71.5371C192.18 71.3511 191.819 71.2408 191.448 71.2143L190.412 73.014Z" fill="#405398"/>
<path d="M190.517 68.4649L188.875 67.246L189.204 66.801L191.322 68.3689L188.695 71.9135L186.607 70.3656L186.936 69.9206L188.557 71.1196L189.363 70.0328L187.867 68.9273L188.193 68.4873L189.688 69.5928L190.517 68.4649Z" fill="#405398"/>
<path d="M183.601 67.661L183.975 67.2534L184.932 68.1383L187.55 65.3079L187.98 65.7055L185.362 68.5347L186.314 69.4146L185.941 69.8221L183.601 67.661Z" fill="#405398"/>
<path d="M209.01 17.5347C215.216 17.5449 221.197 19.8598 225.793 24.0305C230.389 28.2011 233.271 33.9301 233.882 40.106C234.492 46.2819 232.787 52.4644 229.097 57.454C225.407 62.4437 219.995 65.8848 213.911 67.1098C207.827 68.3348 201.505 67.2564 196.171 64.0837C190.838 60.911 186.872 55.8702 185.045 49.9394C183.218 44.0085 183.659 37.6103 186.282 31.9861C188.906 26.3619 193.525 21.9126 199.243 19.5014C202.334 18.1968 205.656 17.528 209.01 17.5347ZM209.01 15.7038C194.143 15.7038 182.09 27.7284 182.09 42.5623C182.09 57.3962 194.143 69.4208 209.01 69.4208C223.878 69.4208 235.931 57.3962 235.931 42.5623C235.931 27.7284 223.878 15.7038 209.01 15.7038Z" fill="#405398"/>
</g>
<path d="M1.46464 59.3255H0.0778198L3.38829 51.4743H4.59616L7.90663 59.3255H6.44153L5.62509 57.3235H2.28107L1.46464 59.3255ZM5.09944 56.0374L3.95867 53.2526L2.80672 56.0374H5.09944Z" fill="#1A1A18"/>
<path d="M12.9712 54.2927H14.5929L12.6581 56.6861L14.8278 59.3255H13.1502L11.1594 56.7867L12.9712 54.2927ZM11.1147 59.3255H9.82854V54.2927H11.1147V59.3255Z" fill="#1A1A18"/>
<path d="M19.8455 54.2927H21.4672L19.5323 56.6861L21.702 59.3255H20.0244L18.0337 56.7867L19.8455 54.2927ZM17.9889 59.3255H16.7028V54.2927H17.9889V59.3255Z" fill="#1A1A18"/>
<path d="M24.8632 61.5623H23.577V54.2927H24.8632V54.7736C25.0272 54.5946 25.2509 54.4493 25.5342 54.3374C25.8175 54.2256 26.1121 54.1697 26.4178 54.1697C27.1112 54.1697 27.6629 54.4082 28.073 54.8854C28.4905 55.3701 28.6993 55.9852 28.6993 56.7308C28.6993 57.5137 28.4532 58.1623 27.9611 58.6768C27.4691 59.1913 26.8278 59.4485 26.0375 59.4485C25.5305 59.4485 25.139 59.3665 24.8632 59.2025V61.5623ZM26.0151 55.3775C25.5678 55.3775 25.1838 55.5602 24.8632 55.9255V57.961C25.1689 58.1549 25.523 58.2518 25.9257 58.2518C26.3507 58.2518 26.6899 58.1139 26.9434 57.838C27.2044 57.5621 27.3348 57.2042 27.3348 56.7643C27.3348 56.3468 27.2155 56.0113 26.977 55.7578C26.7458 55.5043 26.4252 55.3775 26.0151 55.3775Z" fill="#1A1A18"/>
<path d="M34.8798 57.9163L35.2488 58.8222C34.7493 59.2397 34.1081 59.4485 33.3252 59.4485C32.52 59.4485 31.8638 59.2062 31.3568 58.7215C30.8647 58.2444 30.6187 57.6069 30.6187 56.8091C30.6187 56.0635 30.861 55.4372 31.3456 54.9302C31.8303 54.4232 32.4752 54.1697 33.2805 54.1697C33.944 54.1697 34.507 54.3896 34.9692 54.8295C35.4315 55.2694 35.6627 55.8286 35.6627 56.5071C35.6627 56.8054 35.6366 57.0365 35.5844 57.2005H31.9496C32.0018 57.5659 32.1621 57.8529 32.4305 58.0617C32.7063 58.2705 33.0493 58.3748 33.4594 58.3748C34.0186 58.3748 34.4921 58.222 34.8798 57.9163ZM33.2245 55.2433C32.4939 55.2433 32.0539 55.6087 31.9048 56.3394H34.3765C34.3839 56.0187 34.2796 55.7578 34.0633 55.5565C33.8546 55.3477 33.575 55.2433 33.2245 55.2433Z" fill="#1A1A18"/>
<path d="M38.2459 60.4998H37.0492V58.1288H37.6867C38.0819 57.5994 38.3167 56.7233 38.3913 55.5006L38.4696 54.2927H42.1827V58.1288H43.0215V60.4998H41.8136V59.3255H38.2459V60.4998ZM39.6663 55.5006L39.6327 56.015C39.5432 56.9843 39.3419 57.6889 39.0288 58.1288H40.8965V55.5006H39.6663Z" fill="#1A1A18"/>
<path d="M48.6209 56.138L46.2723 59.3255H44.9861V54.2927H46.2723V57.4801L48.6209 54.2927H49.9071V59.3255H48.6209V56.138Z" fill="#1A1A18"/>
<path d="M53.5906 55.5788H51.9354V54.2927H56.5209V55.5788H54.8768V59.3255H53.5906V55.5788Z" fill="#1A1A18"/>
<path d="M58.8431 58.7104C58.3436 58.2108 58.0938 57.5771 58.0938 56.8091C58.0938 56.0411 58.3436 55.4111 58.8431 54.919C59.3427 54.4194 60.0062 54.1697 60.8339 54.1697C61.654 54.1697 62.3139 54.4194 62.8134 54.919C63.3204 55.4111 63.5739 56.0411 63.5739 56.8091C63.5739 57.5696 63.3204 58.2034 62.8134 58.7104C62.3064 59.2025 61.6466 59.4485 60.8339 59.4485C60.0062 59.4485 59.3427 59.2025 58.8431 58.7104ZM59.8609 55.7802C59.5999 56.0486 59.4694 56.3915 59.4694 56.8091C59.4694 57.2266 59.5962 57.5733 59.8497 57.8492C60.1106 58.1176 60.4387 58.2518 60.8339 58.2518C61.2365 58.2518 61.5646 58.1176 61.8181 57.8492C62.079 57.5808 62.2095 57.2341 62.2095 56.8091C62.2095 56.3915 62.079 56.0486 61.8181 55.7802C61.5571 55.5117 61.229 55.3775 60.8339 55.3775C60.4461 55.3775 60.1218 55.5117 59.8609 55.7802Z" fill="#1A1A18"/>
<path d="M65.8054 59.3255V54.2927C65.8725 54.2927 66.1559 54.2852 66.6554 54.2703C67.1624 54.2479 67.5389 54.2368 67.785 54.2368C69.306 54.2368 70.0665 54.6767 70.0665 55.5565C70.0665 55.8398 69.9771 56.0896 69.7981 56.3058C69.6192 56.5146 69.3955 56.6376 69.1271 56.6749V56.6972C69.8428 56.8687 70.2007 57.2564 70.2007 57.8604C70.2007 58.8744 69.403 59.3814 67.8074 59.3814C67.5762 59.3814 67.2221 59.3702 66.7449 59.3479C66.6256 59.3479 66.4876 59.3441 66.3311 59.3367C66.182 59.3367 66.0664 59.3329 65.9844 59.3255C65.9098 59.3255 65.8502 59.3255 65.8054 59.3255ZM67.8968 57.1893H67.0916V58.3077C67.5389 58.3376 67.8223 58.3525 67.9416 58.3525C68.2249 58.3525 68.4449 58.3003 68.6014 58.1959C68.7655 58.0915 68.8475 57.9499 68.8475 57.7709C68.8475 57.3832 68.5306 57.1893 67.8968 57.1893ZM67.8968 55.2769C67.5986 55.2769 67.3302 55.2843 67.0916 55.2992V56.4065H67.9304C68.1615 56.4065 68.3479 56.3543 68.4896 56.2499C68.6312 56.1455 68.7021 56.0038 68.7021 55.8249C68.7021 55.4595 68.4337 55.2769 67.8968 55.2769Z" fill="#1A1A18"/>
<path d="M72.9291 55.59L72.6048 54.6506C73.1491 54.33 73.7418 54.1697 74.383 54.1697C75.0839 54.1697 75.5946 54.3411 75.9152 54.6841C76.2359 55.0271 76.3962 55.5527 76.3962 56.2611V59.3255H75.2778V58.7439C74.9795 59.1764 74.4837 59.3926 73.7903 59.3926C73.3131 59.3926 72.9291 59.2547 72.6383 58.9788C72.355 58.6955 72.2133 58.3189 72.2133 57.8492C72.2133 57.3273 72.3811 56.9246 72.7166 56.6413C73.0521 56.358 73.4958 56.2163 74.0475 56.2163C74.5023 56.2163 74.8826 56.3244 75.1883 56.5407C75.2032 56.0933 75.1361 55.7652 74.987 55.5565C74.8453 55.3477 74.5993 55.2433 74.2488 55.2433C73.8611 55.2433 73.4212 55.3589 72.9291 55.59ZM74.2153 58.3077C74.6477 58.3077 74.9721 58.1549 75.1883 57.8492V57.3347C74.9795 57.1707 74.685 57.0887 74.3047 57.0887C74.0662 57.0887 73.8723 57.1446 73.7232 57.2564C73.5741 57.3683 73.4995 57.5211 73.4995 57.715C73.4995 57.8939 73.5666 58.0393 73.7008 58.1512C73.835 58.2555 74.0065 58.3077 74.2153 58.3077Z" fill="#1A1A18"/>
<path d="M83.6086 59.3255H82.3225V57.4018H80.1192V59.3255H78.8331V54.2927H80.1192V56.194H82.3225V54.2927H83.6086V59.3255Z" fill="#1A1A18"/>
<path d="M90.9307 59.3255H89.6445V57.4018H87.4413V59.3255H86.1551V54.2927H87.4413V56.194H89.6445V54.2927H90.9307V59.3255Z" fill="#1A1A18"/>
<path d="M95.2889 59.3255H93.4771V54.2927H94.7633V55.6683H95.3896C96.1427 55.6683 96.6981 55.8249 97.056 56.138C97.4214 56.4512 97.604 56.8762 97.604 57.413C97.604 57.9871 97.4102 58.4494 97.0225 58.7998C96.6347 59.1503 96.0569 59.3255 95.2889 59.3255ZM99.606 59.3255H98.3198V54.2927H99.606V59.3255ZM95.2778 56.6972H94.7633V58.2071H95.2666C95.9152 58.2071 96.2396 57.9573 96.2396 57.4578C96.2396 56.9507 95.919 56.6972 95.2778 56.6972Z" fill="#1A1A18"/>
<path d="M105.788 56.138L103.44 59.3255H102.153V54.2927H103.44V57.4801L105.788 54.2927H107.074V59.3255H105.788V56.138ZM102.903 51.7763H104.077C104.077 52.0223 104.126 52.2199 104.223 52.369C104.319 52.5181 104.465 52.5927 104.659 52.5927C104.83 52.5927 104.961 52.5181 105.05 52.369C105.147 52.2124 105.196 52.0149 105.196 51.7763H106.37C106.37 52.2982 106.217 52.7195 105.911 53.0401C105.606 53.3532 105.188 53.5098 104.659 53.5098C104.077 53.5098 103.637 53.3569 103.339 53.0513C103.048 52.7381 102.903 52.3131 102.903 51.7763Z" fill="#1A1A18"/>
<path d="M116.886 61.5623H115.6V59.4485H115.533C114.668 59.4485 113.997 59.2025 113.52 58.7104C113.042 58.2257 112.804 57.592 112.804 56.8091C112.804 56.0933 113.046 55.4745 113.531 54.9525C114.023 54.4306 114.686 54.1697 115.521 54.1697H115.6V51.4967H116.886V54.1697H116.975C117.818 54.1697 118.478 54.4194 118.955 54.919C119.44 55.4185 119.682 56.0486 119.682 56.8091C119.682 57.6069 119.443 58.2481 118.966 58.7327C118.496 59.2099 117.833 59.4485 116.975 59.4485H116.886V61.5623ZM116.975 55.3775H116.886V58.2518H116.931C117.371 58.2518 117.71 58.1251 117.948 57.8716C118.187 57.6106 118.306 57.2564 118.306 56.8091C118.306 56.3915 118.187 56.0486 117.948 55.7802C117.717 55.5117 117.393 55.3775 116.975 55.3775ZM114.179 56.8091C114.179 57.249 114.299 57.5994 114.537 57.8604C114.783 58.1213 115.126 58.2518 115.566 58.2518H115.6V55.3775H115.51C115.078 55.3775 114.746 55.508 114.515 55.769C114.291 56.0299 114.179 56.3766 114.179 56.8091Z" fill="#1A1A18"/>
<path d="M123.2 61.5623H121.913V54.2927H123.2V54.7736C123.364 54.5946 123.587 54.4493 123.871 54.3374C124.154 54.2256 124.448 54.1697 124.754 54.1697C125.448 54.1697 125.999 54.4082 126.409 54.8854C126.827 55.3701 127.036 55.9852 127.036 56.7308C127.036 57.5137 126.79 58.1623 126.298 58.6768C125.805 59.1913 125.164 59.4485 124.374 59.4485C123.867 59.4485 123.475 59.3665 123.2 59.2025V61.5623ZM124.351 55.3775C123.904 55.3775 123.52 55.5602 123.2 55.9255V57.961C123.505 58.1549 123.859 58.2518 124.262 58.2518C124.687 58.2518 125.026 58.1139 125.28 57.838C125.541 57.5621 125.671 57.2042 125.671 56.7643C125.671 56.3468 125.552 56.0113 125.313 55.7578C125.082 55.5043 124.762 55.3775 124.351 55.3775Z" fill="#1A1A18"/>
<path d="M129.66 55.59L129.335 54.6506C129.88 54.33 130.472 54.1697 131.114 54.1697C131.814 54.1697 132.325 54.3411 132.646 54.6841C132.966 55.0271 133.127 55.5527 133.127 56.2611V59.3255H132.008V58.7439C131.71 59.1764 131.214 59.3926 130.521 59.3926C130.044 59.3926 129.66 59.2547 129.369 58.9788C129.085 58.6955 128.944 58.3189 128.944 57.8492C128.944 57.3273 129.112 56.9246 129.447 56.6413C129.783 56.358 130.226 56.2163 130.778 56.2163C131.233 56.2163 131.613 56.3244 131.919 56.5407C131.934 56.0933 131.867 55.7652 131.717 55.5565C131.576 55.3477 131.33 55.2433 130.979 55.2433C130.592 55.2433 130.152 55.3589 129.66 55.59ZM130.946 58.3077C131.378 58.3077 131.703 58.1549 131.919 57.8492V57.3347C131.71 57.1707 131.415 57.0887 131.035 57.0887C130.797 57.0887 130.603 57.1446 130.454 57.2564C130.305 57.3683 130.23 57.5211 130.23 57.715C130.23 57.8939 130.297 58.0393 130.431 58.1512C130.566 58.2555 130.737 58.3077 130.946 58.3077Z" fill="#1A1A18"/>
<path d="M140.339 59.3255H139.053V57.4018H136.85V59.3255H135.564V54.2927H136.85V56.194H139.053V54.2927H140.339V59.3255Z" fill="#1A1A18"/>
<path d="M145.659 54.2927H146.945V59.3255H145.659V57.592C145.286 57.7858 144.869 57.8827 144.407 57.8827C143.78 57.8827 143.318 57.7187 143.02 57.3906C142.729 57.0626 142.584 56.5668 142.584 55.9032V54.2927H143.959V55.7466C143.959 56.3654 144.231 56.6749 144.776 56.6749C145.126 56.6749 145.421 56.6078 145.659 56.4736V54.2927Z" fill="#1A1A18"/>
<path d="M149.889 55.59L149.565 54.6506C150.109 54.33 150.702 54.1697 151.343 54.1697C152.044 54.1697 152.555 54.3411 152.875 54.6841C153.196 55.0271 153.356 55.5527 153.356 56.2611V59.3255H152.238V58.7439C151.94 59.1764 151.444 59.3926 150.75 59.3926C150.273 59.3926 149.889 59.2547 149.598 58.9788C149.315 58.6955 149.173 58.3189 149.173 57.8492C149.173 57.3273 149.341 56.9246 149.677 56.6413C150.012 56.358 150.456 56.2163 151.008 56.2163C151.462 56.2163 151.843 56.3244 152.148 56.5407C152.163 56.0933 152.096 55.7652 151.947 55.5565C151.805 55.3477 151.559 55.2433 151.209 55.2433C150.821 55.2433 150.381 55.3589 149.889 55.59ZM151.175 58.3077C151.608 58.3077 151.932 58.1549 152.148 57.8492V57.3347C151.94 57.1707 151.645 57.0887 151.265 57.0887C151.026 57.0887 150.832 57.1446 150.683 57.2564C150.534 57.3683 150.46 57.5211 150.46 57.715C150.46 57.8939 150.527 58.0393 150.661 58.1512C150.795 58.2555 150.967 58.3077 151.175 58.3077Z" fill="#1A1A18"/>
<path d="M159.428 56.138L157.079 59.3255H155.793V54.2927H157.079V57.4801L159.428 54.2927H160.714V59.3255H159.428V56.138ZM156.542 51.7763H157.717C157.717 52.0223 157.765 52.2199 157.862 52.369C157.959 52.5181 158.104 52.5927 158.298 52.5927C158.47 52.5927 158.6 52.5181 158.69 52.369C158.787 52.2124 158.835 52.0149 158.835 51.7763H160.009C160.009 52.2982 159.857 52.7195 159.551 53.0401C159.245 53.3532 158.828 53.5098 158.298 53.5098C157.717 53.5098 157.277 53.3569 156.979 53.0513C156.688 52.7381 156.542 52.3131 156.542 51.7763Z" fill="#1A1A18"/>
<path d="M165.046 59.4485C164.606 59.4485 164.178 59.3702 163.76 59.2136C163.343 59.0496 163.041 58.8483 162.854 58.6097L163.514 57.8045C163.663 57.9759 163.876 58.1213 164.152 58.2406C164.427 58.3599 164.688 58.4196 164.934 58.4196C165.262 58.4196 165.516 58.3637 165.695 58.2518C165.874 58.14 165.963 57.9909 165.963 57.8045C165.963 57.633 165.896 57.495 165.762 57.3906C165.628 57.2863 165.441 57.2341 165.203 57.2341H164.263V56.3729H165.147C165.348 56.3729 165.509 56.317 165.628 56.2051C165.755 56.0858 165.818 55.9367 165.818 55.7578C165.818 55.3924 165.523 55.2098 164.934 55.2098C164.472 55.2098 164.014 55.4036 163.559 55.7913L163.022 55.0196C163.499 54.453 164.219 54.1697 165.18 54.1697C165.829 54.1697 166.325 54.2964 166.668 54.5499C167.018 54.796 167.194 55.1464 167.194 55.6012C167.194 55.8473 167.112 56.0709 166.948 56.2722C166.784 56.4736 166.556 56.6227 166.265 56.7196V56.742C166.601 56.8091 166.862 56.9507 167.048 57.167C167.235 57.3757 167.328 57.6292 167.328 57.9275C167.328 58.3972 167.119 58.77 166.702 59.0459C166.291 59.3143 165.74 59.4485 165.046 59.4485Z" fill="#1A1A18"/>
<path d="M173.297 56.138L170.948 59.3255H169.662V54.2927H170.948V57.4801L173.297 54.2927H174.583V59.3255H173.297V56.138Z" fill="#1A1A18"/>
<g clip-path="url(#clip1)">
<path d="M82.9608 42.3091V44.2673H80.7084V42.3091C78.2161 42.1253 76.227 41.4492 74.7409 40.2808C74.0166 39.7118 73.437 38.9795 73.0497 38.1437C72.6623 37.3079 72.478 36.3924 72.5119 35.4718C72.4784 34.5519 72.6628 33.6372 73.0502 32.8022C73.4376 31.9673 74.0169 31.2358 74.7409 30.6674C76.2394 29.496 78.2286 28.8199 80.7084 28.6392V26.681H82.9608V28.6392C85.4718 28.8168 87.4625 29.4928 88.933 30.6674C89.6627 31.232 90.2476 31.9622 90.6392 32.7976C91.0309 33.633 91.2181 34.5497 91.1854 35.4718C91.2181 36.3946 91.0309 37.3119 90.6392 38.148C90.2476 38.9842 89.6628 39.7152 88.933 40.2808C87.4594 41.4492 85.4687 42.1253 82.9608 42.3091ZM76.3251 32.1396C75.8181 32.5301 75.4122 33.0364 75.1415 33.6163C74.8707 34.1961 74.743 34.8324 74.769 35.4718C74.7425 36.1093 74.8701 36.7437 75.141 37.3213C75.4119 37.899 75.8181 38.4027 76.3251 38.79C77.3469 39.5782 78.8081 40.0456 80.7084 40.192V30.7422C78.8112 30.8731 77.3501 31.3389 76.3251 32.1396ZM82.9608 30.7376V40.192C84.8581 40.0565 86.3208 39.5938 87.3442 38.79C87.848 38.3978 88.2505 37.8906 88.518 37.3108C88.7855 36.7311 88.9102 36.0956 88.8816 35.4578C88.9098 34.82 88.7849 34.1847 88.5175 33.605C88.25 33.0253 87.8477 32.518 87.3442 32.1256C86.3223 31.3373 84.8612 30.8762 82.9608 30.7422V30.7376Z" fill="#1A1A18"/>
<path d="M100.321 31.434C101.152 31.4236 101.977 31.588 102.741 31.9165C103.505 32.2449 104.191 32.7302 104.756 33.3408C105.933 34.591 106.588 36.2433 106.588 37.9605C106.588 39.6776 105.933 41.33 104.756 42.5802C104.189 43.1859 103.501 43.6654 102.737 43.9875C101.973 44.3096 101.15 44.4671 100.321 44.4496C99.3952 44.4899 98.4753 44.2846 97.6546 43.8545C96.8339 43.4244 96.1415 42.7849 95.6478 42.0007V49.0951H93.4935V31.7798H95.6478V33.9109C96.1373 33.1209 96.828 32.4752 97.6492 32.04C98.4703 31.6048 99.3923 31.3956 100.321 31.434ZM100.05 42.3839C100.629 42.3978 101.204 42.2929 101.741 42.0759C102.278 41.8589 102.765 41.5343 103.171 41.1221C103.582 40.7033 103.904 40.207 104.121 39.6622C104.338 39.1174 104.444 38.535 104.433 37.9488C104.448 37.3662 104.344 36.7866 104.127 36.2457C103.911 35.7048 103.585 35.214 103.171 34.8036C102.336 33.9801 101.211 33.5185 100.038 33.5185C98.8654 33.5185 97.7399 33.9801 96.9048 34.8036C96.4911 35.214 96.1657 35.7048 95.9488 36.2457C95.7318 36.7866 95.6278 37.3662 95.6431 37.9488C95.6325 38.535 95.7387 39.1174 95.9553 39.6622C96.1719 40.207 96.4947 40.7033 96.9048 41.1221C97.3153 41.5359 97.806 41.8613 98.3468 42.0783C98.8877 42.2953 99.4672 42.3993 100.05 42.3839Z" fill="#1A1A18"/>
<path d="M119.42 33.8875V31.7798H121.574V44.1645H119.42V42.0147C118.928 42.8009 118.236 43.442 117.415 43.8724C116.594 44.3028 115.673 44.5068 114.746 44.4636C113.917 44.4811 113.094 44.3236 112.33 44.0015C111.566 43.6794 110.878 43.1999 110.312 42.5942C109.135 41.344 108.479 39.6916 108.479 37.9745C108.479 36.2573 109.135 34.605 110.312 33.3548C110.877 32.7446 111.563 32.2597 112.327 31.9313C113.091 31.6028 113.915 31.4382 114.746 31.448C115.672 31.4028 116.593 31.605 117.414 32.0338C118.235 32.4626 118.927 33.1024 119.42 33.8875ZM115.008 42.3839C115.591 42.3996 116.17 42.2957 116.711 42.0787C117.252 41.8616 117.743 41.5361 118.153 41.1221C118.565 40.7041 118.889 40.2081 119.106 39.6632C119.324 39.1183 119.43 38.5354 119.42 37.9488C119.43 37.3658 119.322 36.7867 119.105 36.2458C118.887 35.705 118.562 35.2134 118.151 34.8002C117.74 34.387 117.249 34.0607 116.71 33.8405C116.17 33.6203 115.591 33.5107 115.008 33.5183C114.428 33.5059 113.852 33.6137 113.315 33.8349C112.779 34.0561 112.294 34.3859 111.891 34.8035C111.476 35.2131 111.149 35.7036 110.931 36.2446C110.714 36.7857 110.609 37.3657 110.625 37.9488C110.613 38.5362 110.72 39.1199 110.937 39.6657C111.155 40.2114 111.479 40.7082 111.891 41.1268C112.297 41.538 112.784 41.8617 113.32 42.0779C113.856 42.2941 114.43 42.3983 115.008 42.3839Z" fill="#1A1A18"/>
<path d="M133.411 36.9207V31.7798H135.565V44.1646H133.411V38.9677H126.999V44.1412H124.84V31.7798H126.999V36.9207H133.411Z" fill="#1A1A18"/>
<path d="M153.645 42.0849V31.7798H155.799V44.1646H138.836V31.7798H140.99V42.1082H146.266V31.7798H148.42V42.1082L153.645 42.0849Z" fill="#1A1A18"/>
<path d="M161.22 40.4538L168.084 31.7798H169.818V44.1646H167.687V35.4485L160.827 44.1412H159.094V31.7798H161.22V40.4538Z" fill="#1A1A18"/>
<path d="M179.776 37.804C181.147 38.3804 181.833 39.3618 181.833 40.7483C181.841 41.2598 181.731 41.7664 181.511 42.2284C181.291 42.6905 180.968 43.0956 180.566 43.4121C179.725 44.1132 178.561 44.4637 177.075 44.4637C174.599 44.4637 172.94 43.4729 172.099 41.4913L173.907 40.4258C174.365 41.7811 175.429 42.4588 177.099 42.4588C177.774 42.4969 178.443 42.3148 179.005 41.94C179.228 41.782 179.408 41.5712 179.53 41.3266C179.651 41.0819 179.71 40.811 179.702 40.538C179.708 40.306 179.66 40.0758 179.563 39.8651C179.466 39.6544 179.321 39.4689 179.141 39.3229C178.715 38.992 178.184 38.826 177.646 38.8555H175.837V36.9207H177.174C177.702 36.9503 178.223 36.7839 178.636 36.4533C178.809 36.2955 178.946 36.1015 179.035 35.885C179.125 35.6685 179.166 35.4349 179.155 35.2008C179.164 34.9507 179.112 34.7021 179.005 34.4759C178.898 34.2498 178.738 34.0528 178.538 33.9016C178.053 33.564 177.469 33.3994 176.879 33.4343C175.493 33.4343 174.55 34.0216 174.052 35.1962L172.295 34.1774C173.17 32.364 174.698 31.4558 176.879 31.4527C178.029 31.3985 179.16 31.7639 180.061 32.4809C180.442 32.7917 180.747 33.1841 180.955 33.6291C181.163 34.0741 181.268 34.5602 181.262 35.0513C181.291 35.6023 181.167 36.1504 180.905 36.6359C180.643 37.1213 180.253 37.5254 179.776 37.804Z" fill="#1A1A18"/>
<path d="M194.398 33.8875V31.7798H196.553V44.1645H194.398V42.0147C193.907 42.8009 193.215 43.4421 192.394 43.8724C191.572 44.3028 190.652 44.5068 189.725 44.4636C188.896 44.4805 188.073 44.3228 187.309 44.0007C186.545 43.6786 185.857 43.1994 185.291 42.5942C184.114 41.344 183.458 39.6917 183.458 37.9745C183.458 36.2573 184.114 34.605 185.291 33.3548C185.854 32.7421 186.54 32.2545 187.304 31.9237C188.068 31.5928 188.893 31.426 189.725 31.434C190.652 31.3902 191.574 31.5946 192.395 32.0259C193.217 32.4572 193.908 33.0998 194.398 33.8875ZM190.006 42.3839C190.588 42.3988 191.168 42.2945 191.708 42.0775C192.249 41.8605 192.74 41.5354 193.151 41.1221C193.558 40.7021 193.879 40.2053 194.093 39.6606C194.307 39.1158 194.411 38.534 194.398 37.9488C194.409 37.366 194.303 36.787 194.085 36.2462C193.868 35.7054 193.544 35.2137 193.133 34.8005C192.722 34.3872 192.232 34.0608 191.693 33.8405C191.153 33.6203 190.575 33.5107 189.992 33.5183C189.411 33.5053 188.834 33.6128 188.296 33.834C187.759 34.0552 187.274 34.3853 186.87 34.8035C186.456 35.2138 186.13 35.7044 185.912 36.2453C185.694 36.7862 185.589 37.3659 185.604 37.9488C185.595 38.537 185.704 39.1211 185.924 39.6667C186.144 40.2124 186.47 40.7087 186.884 41.1268C187.291 41.5381 187.778 41.8619 188.315 42.0781C188.852 42.2943 189.427 42.3984 190.006 42.3839Z" fill="#1A1A18"/>
<path fill-rule="evenodd" clip-rule="evenodd" d="M3.6403 16.1424H64.5721V43.4635C64.5721 44.4291 64.1886 45.3551 63.5059 46.0379C62.8232 46.7206 61.8973 47.1042 60.9318 47.1042H3.6403C2.67483 47.1042 1.74891 46.7206 1.06622 46.0379C0.38353 45.3551 0 44.4291 0 43.4635L0 19.783C0 18.8175 0.38353 17.8915 1.06622 17.2087C1.74891 16.526 2.67483 16.1424 3.6403 16.1424Z" fill="#76B2D0"/>
<path fill-rule="evenodd" clip-rule="evenodd" d="M72.1424 12.8429C73.3668 11.2165 73.9556 8.41243 73.0023 3.73895C60.9738 5.60835 63.5534 12.1092 64.7029 14.1421C66.4746 11.395 68.5638 8.86634 70.9274 6.60847C69.3251 8.92364 67.9391 11.3813 66.7871 13.9505C68.4087 12.0811 70.3106 11.983 72.1424 12.8429ZM75.9276 16.6565C70.6564 22.6011 67.8292 19.311 66.7778 17.5257C68.4149 16.9811 70.1386 16.7435 71.862 16.8247C70.1223 16.2874 68.302 16.0581 66.4834 16.147C67.1236 14.6095 69.7592 10.0715 75.9276 16.6565Z" fill="#85BC22"/>
<path fill-rule="evenodd" clip-rule="evenodd" d="M36.8049 22.9376H38.389V24.5219H36.8049V22.9376ZM14.1173 32.864L18.052 22.9376H20.6689L14.6219 37.187C13.7341 39.276 12.5705 40.2014 10.4162 40.2855C9.29888 40.3025 8.18859 40.1058 7.14508 39.706V37.7104C9.1872 38.3086 9.45356 38.3787 10.1826 38.3647C11.1779 38.3647 12.0191 37.8319 12.9864 35.598L7.1591 22.9376H9.68722L14.1173 32.864ZM31.272 40.2855H29.0897V35.6728C28.1304 35.9255 27.1424 36.0528 26.1503 36.0513C23.0895 36.0513 21.2717 34.4717 21.2437 31.3498V27.5737H23.4166V31.4386C23.4166 33.3361 24.3512 34.1633 26.1503 34.1633C27.1424 34.1647 28.1304 34.0375 29.0897 33.7847V27.5737H31.272V40.2855ZM39.9639 40.2855C35.889 40.2855 33.9169 37.6123 33.9169 33.8875C33.9169 30.6161 36.0245 27.583 39.6835 27.583C44.2444 27.583 45.1089 30.9152 45.1089 34.5371H35.9263C35.9241 35.0708 36.0298 35.5993 36.2372 36.091C36.4446 36.5827 36.7494 37.0273 37.1332 37.398C37.517 37.7687 37.9718 38.0579 38.4704 38.2482C38.9689 38.4384 39.5008 38.5257 40.034 38.5049C40.7047 38.5333 41.3729 38.4049 41.9853 38.1299C42.5978 37.8549 43.1377 37.4408 43.5621 36.9206L44.964 37.9161C43.8425 39.4957 42.1758 40.2855 39.9639 40.2855ZM39.6835 29.2982C37.5572 29.2982 36.2441 30.9666 36.0011 32.822H43.0995C43.0995 30.9199 41.8144 29.2982 39.6835 29.2982ZM57.4083 29.3402H53.1465V40.2855H50.9735V29.3402H46.7678V27.5737H57.385V29.3309L57.4083 29.3402ZM40.6555 22.9516H42.2396V24.5359H40.6555V22.9516Z" fill="white"/>
</g>
<defs>
<clipPath id="clip0">
<rect width="85.1246" height="85" fill="white" transform="translate(166.137)"/>
</clipPath>
<clipPath id="clip1">
<rect width="196.567" height="45.3561" fill="white" transform="translate(0 3.73895)"/>
</clipPath>
</defs>
</svg>
