<svg width="202" height="92" viewBox="0 0 202 92" fill="none" xmlns="http://www.w3.org/2000/svg">
<path d="M177.495 86.5268C193.721 77.5402 201.116 60.4495 201.396 45.9894C201.625 34.034 196.957 25.3969 195.783 23.328C186.831 7.53827 170.793 2.97043 166.257 1.87575C162.803 1.04472 150.523 -1.72349 136.868 4.16254C118.362 12.1348 112.045 29.6553 111.014 32.6699" fill="url(#paint0_linear)"/>
<path d="M177.495 86.5272C183.961 82.7388 189.534 77.4546 193.452 71.0929C197.398 64.7655 199.884 57.5499 200.663 50.1622C201.459 42.7746 200.394 35.2151 197.61 28.3432C194.85 21.4657 190.084 15.4593 184.196 10.9946C178.319 6.49559 171.36 3.40643 164.098 1.93349C160.466 1.20562 156.743 0.901861 153.038 1.03368C149.332 1.18843 145.643 1.74436 142.069 2.75307C138.501 3.77323 135.064 5.26337 131.868 7.16042C128.666 9.04601 125.694 11.3271 123.036 13.9405C117.721 19.1732 113.631 25.6495 111.014 32.6646C113.396 25.5521 117.4 18.9669 122.641 13.5393C125.287 10.8514 128.277 8.49581 131.501 6.53571C134.72 4.55842 138.197 2.99378 141.823 1.90484C149.08 -0.278783 156.869 -0.548153 164.304 0.907593C171.733 2.3748 178.846 5.49262 184.895 10.0834C190.915 14.6913 195.777 20.8811 198.578 27.9535C201.379 34.9973 202.49 42.7402 201.54 50.2597C200.64 57.7734 198.017 65.0578 193.927 71.3966C189.803 77.724 184.093 82.9624 177.495 86.5272Z" fill="white"/>
<path d="M51.2108 60.3527H47.8143L45.2368 41.7661H48.5016L50.1569 55.4811C50.2027 55.888 50.2199 56.2433 50.2199 56.5471L50.1798 57.1947H50.26C50.4318 56.6617 50.6896 56.0829 51.0218 55.4581L58.3933 41.7718H61.9559L51.2108 60.3527Z" fill="black"/>
<path d="M79.0874 49.3716C79.0874 51.3775 78.6636 53.2517 77.8102 55.0054C76.9567 56.7535 75.7826 58.1404 74.2819 59.1549C72.7813 60.1693 70.9942 60.6794 68.9322 60.6794C67.4201 60.6794 66.0856 60.347 64.9229 59.6822C63.7601 59.0173 62.8609 58.0774 62.2309 56.8566C61.5951 55.6359 61.2801 54.2604 61.2801 52.7244C61.2801 51.1024 61.5321 49.5951 62.0418 48.2139C62.5516 46.8326 63.2905 45.6176 64.2642 44.563C65.2379 43.5142 66.3261 42.7347 67.529 42.2247C68.7318 41.7146 70.0491 41.4624 71.4753 41.4624C72.9703 41.4624 74.2991 41.7891 75.4561 42.4425C76.6188 43.0958 77.5123 44.0243 78.1424 45.2279C78.7724 46.4257 79.0874 47.8127 79.0874 49.3716ZM75.7196 49.4919C75.7196 47.8872 75.3072 46.6148 74.4824 45.6749C73.6576 44.735 72.5407 44.2707 71.1317 44.2707C69.9575 44.2707 68.8635 44.6375 67.8497 45.3769C66.8359 46.1162 66.0455 47.1536 65.4784 48.4947C64.9114 49.8358 64.6307 51.24 64.6307 52.7072C64.6307 54.289 65.0317 55.5499 65.8393 56.4841C66.6469 57.424 67.7638 57.8883 69.19 57.8883C70.4272 57.8883 71.5383 57.5272 72.5235 56.7993C73.5144 56.0714 74.2934 55.0341 74.8604 53.6758C75.4274 52.3175 75.7196 50.9248 75.7196 49.4919Z" fill="black"/>
<path d="M93.063 45.3196C92.5188 44.947 91.8659 44.649 91.0984 44.4255C90.3366 44.202 89.6092 44.0873 88.9276 44.0873C88.2632 44.0873 87.6961 44.202 87.2322 44.4312C86.7683 44.6605 86.4074 44.9642 86.1611 45.3368C85.9148 45.715 85.7945 46.1277 85.7945 46.5747C85.7945 47.1994 85.9778 47.7496 86.3387 48.2425C86.6995 48.7297 87.3983 49.3143 88.4236 49.9963C89.7524 50.8846 90.6745 51.7271 91.19 52.518C91.7055 53.309 91.9633 54.1916 91.9633 55.1716C91.9633 56.2548 91.6883 57.2292 91.1385 58.0946C90.5886 58.96 89.8211 59.6134 88.8245 60.0375C87.8336 60.4673 86.6594 60.6794 85.302 60.6794C84.4199 60.6794 83.5149 60.5648 82.5813 60.3355C81.6477 60.1063 80.8401 59.8082 80.1585 59.4357L80.7026 56.4669C81.3613 56.9483 82.1059 57.3381 82.9422 57.6189C83.7784 57.9055 84.5975 58.0487 85.3879 58.0487C86.4131 58.0487 87.2093 57.8252 87.7706 57.3839C88.3319 56.9369 88.6126 56.3122 88.6126 55.4983C88.6126 54.8736 88.4121 54.3291 88.0169 53.8649C87.6217 53.4007 86.8656 52.8161 85.7602 52.1169C84.586 51.3718 83.7326 50.5866 83.1999 49.7498C82.6672 48.9188 82.4038 47.9961 82.4038 46.9816C82.4038 45.9385 82.673 44.9871 83.2056 44.1446C83.7383 43.2964 84.5001 42.6373 85.4853 42.1674C86.4704 41.6974 87.6331 41.4624 88.9849 41.4624C90.497 41.4624 92.0435 41.7719 93.6243 42.3966L93.063 45.3196Z" fill="black"/>
<path d="M109.255 60.3527H106.042L107.714 52.4091H99.1515L97.479 60.3527H94.2429L98.1835 41.7661H101.42L99.7472 49.5549H108.322L109.994 41.7661H113.207L109.255 60.3527Z" fill="black"/>
<path d="M132.389 49.3716C132.389 51.3775 131.965 53.2517 131.112 55.0054C130.259 56.7535 129.084 58.1404 127.584 59.1549C126.083 60.1693 124.296 60.6794 122.234 60.6794C120.722 60.6794 119.387 60.347 118.225 59.6822C117.062 59.0173 116.163 58.0774 115.533 56.8566C114.897 55.6359 114.582 54.2604 114.582 52.7244C114.582 51.1024 114.834 49.5951 115.344 48.2139C115.853 46.8326 116.592 45.6176 117.566 44.563C118.54 43.5142 119.628 42.7347 120.831 42.2247C122.034 41.7146 123.351 41.4624 124.777 41.4624C126.272 41.4624 127.601 41.7891 128.758 42.4425C129.921 43.0958 130.814 44.0243 131.444 45.2279C132.074 46.4257 132.389 47.8127 132.389 49.3716ZM129.021 49.4919C129.021 47.8872 128.609 46.6148 127.784 45.6749C126.959 44.735 125.842 44.2707 124.433 44.2707C123.259 44.2707 122.165 44.6375 121.152 45.3769C120.138 46.1162 119.347 47.1536 118.78 48.4947C118.213 49.8358 117.933 51.24 117.933 52.7072C117.933 54.289 118.333 55.5499 119.141 56.4841C119.949 57.424 121.066 57.8883 122.492 57.8883C123.729 57.8883 124.84 57.5272 125.825 56.7993C126.816 56.0714 127.595 55.0341 128.162 53.6758C128.741 52.3232 129.021 50.9248 129.021 49.4919Z" fill="black"/>
<path d="M151.823 49.2856C151.823 51.4864 151.359 53.4407 150.426 55.1429C149.492 56.8451 148.186 58.1404 146.502 59.023C144.818 59.9114 142.825 60.3527 140.528 60.3527H133.833L137.785 41.7661H143.638C146.141 41.7661 148.135 42.4367 149.612 43.7778C151.084 45.1132 151.823 46.9529 151.823 49.2856ZM148.467 49.532C148.467 47.8757 147.986 46.6148 147.029 45.7551C146.073 44.8954 144.681 44.4655 142.859 44.4655H140.425L137.613 57.6704H140.62C142.189 57.6704 143.575 57.3323 144.767 56.6617C145.958 55.9854 146.875 55.0283 147.51 53.7789C148.146 52.5237 148.467 51.1138 148.467 49.532Z" fill="black"/>
<path d="M61.9903 80.435C61.9903 82.441 61.5665 84.3151 60.713 86.0689C59.8596 87.8169 58.6854 89.2039 57.1848 90.2184C55.6841 91.2328 53.8971 91.7429 51.8351 91.7429C50.323 91.7429 48.9885 91.4105 47.8258 90.7456C46.663 90.0808 45.7638 89.1409 45.1337 87.9201C44.498 86.6993 44.1829 85.3238 44.1829 83.7879C44.1829 82.1659 44.435 80.6586 44.9447 79.2773C45.4545 77.8961 46.1934 76.6811 47.1671 75.6265C48.1408 74.5777 49.229 73.7982 50.4319 73.2881C51.6347 72.7781 52.952 72.5259 54.3782 72.5259C55.8732 72.5259 57.202 72.8526 58.359 73.5059C59.5217 74.1593 60.4152 75.0878 61.0452 76.2913C61.6753 77.4892 61.9903 78.8704 61.9903 80.435ZM58.6224 80.5554C58.6224 78.9506 58.21 77.6783 57.3853 76.7384C56.5605 75.7984 55.4436 75.3342 54.0346 75.3342C52.8604 75.3342 51.7664 75.701 50.7526 76.4403C49.7388 77.1797 48.9484 78.217 48.3813 79.5582C47.8143 80.8993 47.5336 82.3034 47.5336 83.7707C47.5336 85.3525 47.9346 86.6134 48.7422 87.5476C49.5498 88.4875 50.6667 88.9517 52.0929 88.9517C53.3301 88.9517 54.4412 88.5907 55.4264 87.8628C56.4173 87.1349 57.1962 86.0976 57.7633 84.7392C58.3361 83.3867 58.6224 81.9882 58.6224 80.5554Z" fill="black"/>
<path d="M79.4884 91.4166H76.3782L70.0434 78.0685C69.9919 77.9538 69.9002 77.7418 69.7799 77.4208C69.6539 77.0999 69.5795 76.8706 69.5508 76.7331H69.4706L69.3561 77.6157L69.2014 78.5614L66.4693 91.4166H63.4279L67.3514 72.8301H70.7307L76.9338 86.1152C77.1343 86.5565 77.2775 86.9176 77.3634 87.2041H77.415C77.4608 86.6081 77.541 86.035 77.6612 85.479L80.3532 72.8301H83.4233L79.4884 91.4166Z" fill="black"/>
<path d="M96.5225 76.383C95.9784 76.0105 95.3254 75.7125 94.5579 75.489C93.7961 75.2654 93.0687 75.1508 92.3871 75.1508C91.7227 75.1508 91.1557 75.2654 90.6917 75.4947C90.2278 75.7239 89.8669 76.0277 89.6206 76.4002C89.3744 76.7785 89.2541 77.1911 89.2541 77.6382C89.2541 78.2629 89.4374 78.8131 89.7982 79.306C90.159 79.7931 90.8578 80.3777 91.8831 81.0598C93.2119 81.9481 94.1341 82.7906 94.6495 83.5815C95.165 84.3724 95.4228 85.2551 95.4228 86.2351C95.4228 87.3183 95.1479 88.2926 94.598 89.1581C94.0481 90.0235 93.2806 90.6768 92.284 91.101C91.2931 91.5308 90.1189 91.7429 88.7615 91.7429C87.8794 91.7429 86.9745 91.6282 86.0408 91.399C85.1072 91.1697 84.2996 90.8717 83.618 90.4992L84.1622 87.5304C84.8208 88.0118 85.5654 88.4015 86.4017 88.6824C87.2379 88.9689 88.057 89.1122 88.8474 89.1122C89.8727 89.1122 90.6688 88.8887 91.2301 88.4474C91.7914 88.0003 92.0721 87.3756 92.0721 86.5618C92.0721 85.9371 91.8716 85.3926 91.4764 84.9284C91.0812 84.4641 90.3251 83.8796 89.2197 83.1803C88.0455 82.4353 87.1921 81.6501 86.6594 80.8133C86.1268 79.9765 85.8633 79.0595 85.8633 78.0451C85.8633 77.002 86.1325 76.0563 86.6652 75.2081C87.1978 74.3599 87.9596 73.7008 88.9448 73.2308C89.9299 72.7609 91.0927 72.5259 92.4444 72.5259C93.9565 72.5259 95.503 72.8354 97.0838 73.4601L96.5225 76.383Z" fill="black"/>
<path d="M105.332 91.737C103.379 91.737 101.832 91.1868 100.687 90.0864C99.541 88.986 98.9682 87.5073 98.9682 85.6618C98.9682 84.762 99.0713 83.8335 99.2775 82.8764L101.443 72.8295H104.667L102.502 82.8248C102.267 83.994 102.153 84.8365 102.153 85.3638C102.153 86.4757 102.474 87.3583 103.109 87.9944C103.751 88.6363 104.61 88.9516 105.698 88.9516C106.993 88.9516 108.012 88.5618 108.763 87.7766C109.507 86.9972 110.063 85.7592 110.429 84.0628L112.852 72.8237H116.077L113.683 83.9825C113.27 85.9197 112.72 87.4328 112.033 88.5217C111.346 89.6107 110.458 90.4188 109.37 90.946C108.287 91.4733 106.935 91.737 105.332 91.737Z" fill="black"/>
<path d="M126.793 91.4166H116.432L120.373 72.8301H123.609L120.241 88.6828H127.366L126.793 91.4166Z" fill="black"/>
<path d="M142.819 75.5238H137.561L134.205 91.4166H130.992L134.348 75.5238H128.998L129.583 72.8301H143.404L142.819 75.5238Z" fill="black"/>
<path d="M145.448 91.4166H142.224L146.147 72.8301H149.383L145.448 91.4166Z" fill="black"/>
<path d="M166.016 91.4166H162.906L156.571 78.0685C156.52 77.9538 156.428 77.7418 156.308 77.4208C156.182 77.0999 156.108 76.8706 156.079 76.7331H155.999L155.884 77.6157L155.73 78.5614L152.997 91.4166H149.956L153.879 72.8301H157.259L163.462 86.1152C163.662 86.5565 163.806 86.9176 163.891 87.2041H163.943C163.989 86.6081 164.069 86.035 164.189 85.479L166.881 72.8301H169.951L166.016 91.4166Z" fill="black"/>
<path d="M187.341 76.7041C186.699 76.2628 185.937 75.9132 185.044 75.6495C184.15 75.3859 183.222 75.2541 182.266 75.2541C180.765 75.2541 179.436 75.5922 178.285 76.257C177.134 76.9276 176.24 77.8675 175.616 79.0883C174.992 80.3091 174.677 81.7018 174.677 83.2721C174.677 85.0546 175.152 86.4587 176.109 87.4846C177.065 88.5105 178.365 89.0263 180.015 89.0263C180.949 89.0263 181.813 88.8773 182.621 88.585L183.578 83.9943H179.534L180.107 81.3522H187.346L185.428 90.3503C183.646 91.2845 181.705 91.7487 179.597 91.7487C177.941 91.7487 176.481 91.4048 175.227 90.7171C173.972 90.0293 173.004 89.0607 172.34 87.7999C171.67 86.5447 171.337 85.1061 171.337 83.4899C171.337 81.3751 171.796 79.4723 172.712 77.7873C173.629 76.1023 174.923 74.8013 176.607 73.8843C178.285 72.9673 180.255 72.5088 182.506 72.5088C184.362 72.5088 186.184 72.8871 187.971 73.6493L187.341 76.7041Z" fill="black"/>
<path d="M38.6328 49.2169C34.7838 47.87 31.2269 45.9386 27.4867 45.4744C20.7739 44.6376 16.1459 48.5865 12.7322 53.928C9.15817 59.516 7.47423 65.7115 7.57733 72.3713C7.72052 81.4726 13.7976 86.3212 22.687 84.0803C25.9861 83.2492 29.0733 81.5757 32.5042 80.183C33.3404 83.4097 32.8192 85.9601 29.8809 87.5649C23.4659 91.0667 16.6328 91.8576 9.78249 89.4333C4.22663 87.4675 1.19096 82.9111 0.406271 77.1798C-1.17457 65.7173 1.85537 55.4525 9.54192 46.8155C16.5011 38.9923 28.4261 36.78 36.84 41.3536C40.7921 43.5028 41.2217 46.0303 38.6328 49.2169Z" fill="black"/>
<defs>
<linearGradient id="paint0_linear" x1="139.932" y1="61.6063" x2="188.081" y2="13.4877" gradientUnits="userSpaceOnUse">
<stop offset="0.0849" stop-color="white" stop-opacity="0"/>
<stop offset="1" stop-color="white"/>
</linearGradient>
</defs>
</svg>
