<svg width="131" height="60" viewBox="0 0 131 60" fill="none" xmlns="http://www.w3.org/2000/svg">
<path d="M114.172 56.6396C124.611 50.8651 129.369 39.8748 129.548 30.5797C129.697 22.894 126.694 17.343 125.938 16.0093C120.178 5.85727 109.862 2.92157 106.945 2.21745C104.725 1.6847 96.8265 -0.0960881 88.038 3.68902C76.1313 8.81531 72.0668 20.0775 71.4037 22.0148" fill="url(#paint0_linear)"/>
<path d="M114.172 56.6396C118.211 53.987 121.62 50.5149 123.974 46.4243C125.163 44.3901 126.12 42.2331 126.821 40.0015C127.517 37.7699 128.009 35.4787 128.203 33.1652L128.277 32.2972L128.3 31.4291L128.322 30.5611L128.296 29.6968C128.288 29.1193 128.229 28.5456 128.195 27.9719C128.128 27.3981 128.083 26.8244 127.983 26.2581C127.633 23.9818 127.003 21.7503 126.116 19.6342C125.662 18.5799 125.178 17.5479 124.593 16.5793L123.68 15.1338C123.36 14.6644 123.002 14.2173 122.667 13.7591C121.262 11.9671 119.627 10.354 117.805 8.97179C115.987 7.58218 114.001 6.40119 111.9 5.46237C109.799 4.51236 107.608 3.78589 105.347 3.31275C103.097 2.83589 100.787 2.62726 98.4806 2.67197C96.1782 2.7353 93.8759 3.04079 91.6369 3.62569C91.0818 3.79334 90.5267 3.95354 89.9753 4.12864C89.4351 4.33354 88.8837 4.51982 88.3472 4.7359L86.7602 5.45119L86.3615 5.63002L85.9778 5.83864L85.2104 6.25217C83.1725 7.37728 81.2613 8.75944 79.5364 10.3614C76.0754 13.5653 73.3297 17.5852 71.4111 22.0111C72.7113 17.3504 75.1701 12.9804 78.5007 9.32944C81.8723 5.72688 86.1902 2.90295 90.9849 1.39412C95.7722 -0.133337 100.951 -0.386671 105.902 0.540979C110.853 1.47981 115.577 3.53628 119.619 6.60237C123.646 9.67591 126.906 13.8298 128.735 18.5836C130.542 23.2926 131.235 28.4524 130.516 33.4223C129.857 38.3846 128.001 43.1346 125.211 47.2066C122.387 51.2711 118.539 54.5645 114.172 56.6396Z" fill="#FFE812"/>
<path d="M32.9416 39.8115H30.7584L29.1006 27.8638H31.2018L32.2673 36.6783C32.2933 36.9391 32.3082 37.1664 32.3082 37.3601L32.2822 37.7774H32.3306C32.4424 37.4346 32.6063 37.0621 32.8224 36.6597L37.5649 27.8601H39.8561L32.9416 39.8115Z" fill="black"/>
<path d="M50.8724 32.7554C50.8724 34.0444 50.6005 35.2515 50.0528 36.3766C49.5052 37.5017 48.7489 38.3921 47.784 39.044C46.8191 39.696 45.6716 40.0238 44.3416 40.0238C43.3692 40.0238 42.5087 39.8115 41.7636 39.3831C41.0147 38.9546 40.4373 38.3511 40.0312 37.5687C39.6214 36.7864 39.4202 35.8997 39.4202 34.9087C39.4202 33.8656 39.5841 32.897 39.912 32.0103C40.2398 31.1199 40.7167 30.3413 41.3426 29.6632C41.9685 28.9889 42.6689 28.486 43.4438 28.1581C44.2187 27.8303 45.0644 27.6664 45.9808 27.6664C46.942 27.6664 47.7951 27.875 48.544 28.296C49.2891 28.7169 49.8665 29.313 50.2726 30.0879C50.6675 30.8591 50.8724 31.7495 50.8724 32.7554ZM48.7042 32.8299C48.7042 31.7979 48.4397 30.9783 47.9069 30.3748C47.3779 29.7713 46.6589 29.4695 45.7536 29.4695C44.9973 29.4695 44.2932 29.7079 43.6412 30.1811C42.9893 30.6542 42.4789 31.3248 42.1175 32.1854C41.7524 33.046 41.5698 33.9475 41.5698 34.8938C41.5698 35.9109 41.8306 36.7193 42.3485 37.3229C42.8663 37.9264 43.5853 38.2282 44.5018 38.2282C45.2953 38.2282 46.0106 37.9934 46.6477 37.5278C47.2848 37.0621 47.784 36.3915 48.1528 35.5197C48.5216 34.6479 48.7042 33.7538 48.7042 32.8299Z" fill="black"/>
<path d="M59.8621 30.1475C59.5119 29.9091 59.0909 29.7154 58.5991 29.5738C58.1073 29.4285 57.6417 29.3577 57.202 29.3577C56.7736 29.3577 56.4122 29.4322 56.1105 29.5775C55.8087 29.7266 55.5814 29.9203 55.425 30.1624C55.2648 30.4046 55.1865 30.6691 55.1865 30.9597C55.1865 31.3583 55.302 31.716 55.5367 32.0289C55.7714 32.3419 56.2185 32.7181 56.8779 33.1577C57.7348 33.7315 58.3271 34.2717 58.6587 34.7783C58.9903 35.285 59.1542 35.855 59.1542 36.4809C59.1542 37.1738 58.9791 37.8034 58.6252 38.3585C58.2713 38.9174 57.7758 39.3346 57.1387 39.6066C56.4979 39.8823 55.7454 40.0201 54.8736 40.0201C54.3073 40.0201 53.7224 39.9456 53.1226 39.8003C52.5228 39.6513 52.005 39.4613 51.5654 39.2191L51.9156 37.3117C52.3365 37.6246 52.8171 37.8705 53.3573 38.0531C53.8975 38.2356 54.4228 38.3287 54.9332 38.3287C55.5926 38.3287 56.1067 38.1872 56.4681 37.9003C56.8295 37.6134 57.0083 37.2111 57.0083 36.6895C57.0083 36.2909 56.8816 35.9407 56.6246 35.6389C56.3675 35.3372 55.8869 34.9646 55.1754 34.5138C54.4191 34.037 53.8714 33.5303 53.5287 32.9938C53.1859 32.4573 53.0146 31.865 53.0146 31.2168C53.0146 30.5462 53.1859 29.9352 53.5324 29.3913C53.8752 28.8473 54.3669 28.4226 55.0003 28.1209C55.6336 27.8191 56.3824 27.6664 57.2505 27.6664C58.2228 27.6664 59.2175 27.8675 60.2346 28.2662L59.8621 30.1475Z" fill="black"/>
<path d="M70.2786 39.8115H68.2109L69.2876 34.7038H63.7813L62.7046 39.8115H60.6221L63.1554 27.8638H65.238L64.1613 32.8709H69.6788L70.7554 27.8638H72.8231L70.2786 39.8115Z" fill="black"/>
<path d="M85.1582 32.7554C85.1582 34.0444 84.8863 35.2515 84.3386 36.3766C83.791 37.5017 83.0347 38.3921 82.0698 39.044C81.1049 39.696 79.9574 40.0238 78.6274 40.0238C77.6551 40.0238 76.7945 39.8115 76.0494 39.3831C75.3005 38.9546 74.7231 38.3511 74.317 37.5687C73.9072 36.7864 73.706 35.8997 73.706 34.9087C73.706 33.8656 73.8699 32.897 74.1978 32.0103C74.5256 31.1199 75.0025 30.3413 75.6284 29.6632C76.2543 28.9889 76.9547 28.486 77.7296 28.1581C78.5045 27.8303 79.3502 27.6664 80.2666 27.6664C81.2278 27.6664 82.081 27.875 82.8298 28.296C83.5749 28.7169 84.1523 29.313 84.5584 30.0879C84.957 30.8591 85.1582 31.7495 85.1582 32.7554ZM82.9937 32.8299C82.9937 31.7979 82.7292 30.9783 82.1964 30.3748C81.6674 29.7713 80.9484 29.4695 80.0431 29.4695C79.2868 29.4695 78.5827 29.7079 77.9307 30.1811C77.2788 30.6542 76.7684 31.3248 76.407 32.1854C76.0419 33.046 75.8594 33.9475 75.8594 34.8938C75.8594 35.9109 76.1202 36.7193 76.638 37.3229C77.1558 37.9264 77.8749 38.2282 78.7913 38.2282C79.5849 38.2282 80.3002 37.9934 80.9372 37.5278C81.5743 37.0621 82.0735 36.3915 82.4423 35.5197C82.8112 34.6479 82.9937 33.7538 82.9937 32.8299Z" fill="black"/>
<path d="M97.6573 32.6958C97.6573 34.1115 97.3555 35.3669 96.7557 36.4622C96.1559 37.5575 95.3139 38.3883 94.2298 38.9583C93.1457 39.5283 91.8678 39.8115 90.3888 39.8115H86.0821L88.6229 27.8638H92.3894C93.9988 27.8638 95.2804 28.2959 96.2304 29.1565C97.1841 30.0171 97.6573 31.1981 97.6573 32.6958ZM95.5002 32.856C95.5002 31.7905 95.191 30.9783 94.5763 30.4269C93.9579 29.8756 93.0637 29.5961 91.8939 29.5961H90.3292L88.5223 38.0866H90.4559C91.4655 38.0866 92.3559 37.8705 93.1233 37.4383C93.8908 37.0062 94.4794 36.3877 94.8892 35.583C95.2953 34.782 95.5002 33.873 95.5002 32.856Z" fill="black"/>
<path d="M39.8747 52.724C39.8747 54.0131 39.6028 55.2201 39.0551 56.3452C38.5075 57.4703 37.7512 58.3607 36.7863 59.0127C35.8214 59.6647 34.6739 59.9925 33.3439 59.9925C32.3716 59.9925 31.511 59.7801 30.7659 59.3517C30.017 58.9233 29.4396 58.3198 29.0335 57.5374C28.6237 56.755 28.4225 55.8684 28.4225 54.8774C28.4225 53.8342 28.5865 52.8656 28.9143 51.9789C29.2421 51.0886 29.719 50.3099 30.3449 49.6319C30.9708 48.9576 31.6712 48.4546 32.4461 48.1268C33.221 47.7989 34.0667 47.635 34.9831 47.635C35.9443 47.635 36.7975 47.8436 37.5463 48.2646C38.2914 48.6856 38.8688 49.2817 39.2749 50.0566C39.6698 50.8278 39.8747 51.7182 39.8747 52.724ZM37.7065 52.7986C37.7065 51.7666 37.442 50.947 36.9092 50.3435C36.3802 49.7399 35.6612 49.4382 34.7559 49.4382C33.9996 49.4382 33.2955 49.6766 32.6435 50.1497C31.9916 50.6266 31.4812 51.2935 31.1198 52.154C30.7547 53.0146 30.5721 53.9162 30.5721 54.8625C30.5721 55.8795 30.8329 56.688 31.3508 57.2915C31.8686 57.895 32.5876 58.1968 33.5041 58.1968C34.2976 58.1968 35.0129 57.9621 35.65 57.4964C36.2871 57.0307 36.7863 56.3601 37.1551 55.4884C37.5239 54.6203 37.7065 53.7225 37.7065 52.7986Z" fill="black"/>
<path d="M51.1295 59.7839H49.1289L45.0532 51.2003C45.0196 51.1295 44.9638 50.988 44.8818 50.7831C44.7998 50.5782 44.7514 50.4292 44.7365 50.3435H44.6881L44.6136 50.9097L44.513 51.517L42.7545 59.7839H40.7949L43.3208 47.8362H45.4965L49.4865 56.3751C49.6132 56.6582 49.7063 56.8929 49.7622 57.0754H49.7957C49.8218 56.6917 49.8777 56.3229 49.9522 55.969L51.6846 47.8362H53.6591L51.1295 59.7839Z" fill="black"/>
<path d="M62.0862 50.1162C61.736 49.8778 61.315 49.6841 60.8232 49.5425C60.3315 49.3972 59.8658 49.3264 59.4262 49.3264C58.9977 49.3264 58.6364 49.4009 58.3346 49.5462C58.0328 49.6952 57.8056 49.889 57.6491 50.1311C57.4889 50.3733 57.4107 50.6378 57.4107 50.9284C57.4107 51.327 57.5262 51.6847 57.7609 51.9976C57.9956 52.3105 58.4426 52.6868 59.1021 53.1264C59.9589 53.7001 60.5513 54.2403 60.8829 54.747C61.2144 55.2537 61.3783 55.8237 61.3783 56.4496C61.3783 57.1425 61.2032 57.7721 60.8493 58.3272C60.4954 58.886 59.9999 59.3033 59.3628 59.5753C58.7221 59.851 57.9695 59.9888 57.0977 59.9888C56.5315 59.9888 55.9466 59.9143 55.3468 59.769C54.7469 59.62 54.2291 59.43 53.7895 59.1878L54.1397 57.2804C54.5607 57.5933 55.0413 57.8392 55.5815 58.0217C56.1217 58.2043 56.647 58.2974 57.1573 58.2974C57.8168 58.2974 58.3309 58.1558 58.6923 57.869C59.0536 57.5821 59.2324 57.1798 59.2324 56.6582C59.2324 56.2596 59.1058 55.9094 58.8487 55.6076C58.5917 55.3058 58.1111 54.9333 57.3995 54.4825C56.6432 54.0056 56.0956 53.499 55.7528 52.9625C55.4101 52.426 55.2387 51.8337 55.2387 51.1817C55.2387 50.5111 55.4101 49.9001 55.7566 49.3562C56.0993 48.8123 56.5911 48.3876 57.2244 48.0858C57.8577 47.7841 58.6066 47.6313 59.4746 47.6313C60.447 47.6313 61.4417 47.8325 62.4587 48.2311L62.0862 50.1162Z" fill="black"/>
<path d="M67.7527 59.9888C66.4972 59.9888 65.5025 59.6349 64.7648 58.927C64.0272 58.2192 63.6621 57.2692 63.6621 56.0807C63.6621 55.5033 63.7291 54.9072 63.8632 54.2888L65.2566 47.8325H67.3317L65.9383 54.2552C65.7893 55.0041 65.7148 55.548 65.7148 55.887C65.7148 56.6023 65.9197 57.1686 66.3332 57.5784C66.7431 57.9882 67.2982 58.1968 67.9985 58.1968C68.8331 58.1968 69.4888 57.9472 69.9693 57.4405C70.4499 56.9376 70.8076 56.1441 71.0386 55.0525L72.5958 47.8287H74.6709L73.1286 55.0041C72.8603 56.2484 72.5064 57.2207 72.0668 57.9211C71.6272 58.6215 71.0535 59.1394 70.3531 59.4784C69.6527 59.8211 68.7884 59.9888 67.7527 59.9888Z" fill="black"/>
<path d="M81.5594 59.7839H74.8945L77.4278 47.8362H79.5104L77.3421 58.0254H81.9245L81.5594 59.7839Z" fill="black"/>
<path d="M91.8678 49.5686H88.4851L86.328 59.7839H84.2604L86.4174 49.5686H82.9751L83.3513 47.8362H92.2404L91.8678 49.5686Z" fill="black"/>
<path d="M93.5592 59.7839H91.4841L94.01 47.8362H96.0926L93.5592 59.7839Z" fill="black"/>
<path d="M106.792 59.7839H104.792L100.716 51.2003C100.682 51.1295 100.627 50.988 100.545 50.7831C100.463 50.5782 100.414 50.4292 100.399 50.3435H100.351L100.276 50.9097L100.176 51.517L98.4173 59.7839H96.4577L98.9836 47.8362H101.159L105.149 56.3751C105.276 56.6582 105.369 56.8929 105.425 57.0754H105.458C105.485 56.6917 105.54 56.3229 105.615 55.969L107.347 47.8362H109.322L106.792 59.7839Z" fill="black"/>
<path d="M120.506 50.3248C120.096 50.0417 119.6 49.8144 119.027 49.6468C118.453 49.4791 117.857 49.3934 117.239 49.3934C116.274 49.3934 115.417 49.6095 114.675 50.038C113.934 50.4701 113.36 51.0736 112.958 51.8597C112.556 52.6421 112.354 53.5399 112.354 54.5495C112.354 55.6933 112.66 56.5986 113.275 57.258C113.889 57.9174 114.724 58.249 115.786 58.249C116.385 58.249 116.944 58.1558 117.462 57.9658L118.08 55.0152H115.48L115.845 53.3164H120.502L119.269 59.0984C118.125 59.6982 116.873 60 115.521 60C114.456 60 113.517 59.7801 112.708 59.3368C111.9 58.8935 111.281 58.2713 110.849 57.4629C110.417 56.6545 110.205 55.7305 110.205 54.6911C110.205 53.3313 110.499 52.1093 111.088 51.0252C111.676 49.9411 112.511 49.1066 113.591 48.518C114.672 47.9293 115.938 47.635 117.388 47.635C118.583 47.635 119.753 47.8809 120.904 48.3689L120.506 50.3248Z" fill="black"/>
<path d="M24.8498 32.6511C22.3723 31.7868 20.0849 30.5425 17.6782 30.2444C13.3603 29.708 10.3837 32.245 8.18933 35.6762C5.8907 39.2676 4.80658 43.2502 4.87363 47.5345C4.96677 53.3835 8.87482 56.5055 14.5935 55.0637C16.7133 54.5273 18.699 53.4543 20.9082 52.5602C21.4447 54.6353 21.1094 56.2745 19.2205 57.3065C15.0927 59.5567 10.7003 60.0671 6.29305 58.5098C2.72029 57.2469 0.768131 54.3186 0.261462 50.6341C-0.7556 43.2651 1.19284 36.6672 6.13658 31.1125C10.6109 26.0831 18.2854 24.6599 23.6986 27.6031C26.2357 28.9815 26.5114 30.6058 24.8498 32.6511Z" fill="black"/>
<defs>
<linearGradient id="paint0_linear" x1="84.6606" y1="41.2463" x2="124.508" y2="13.7689" gradientUnits="userSpaceOnUse">
<stop offset="2.02456e-07" stop-color="white" stop-opacity="0.3"/>
<stop offset="1" stop-color="#FFFF00"/>
</linearGradient>
</defs>
</svg>
