<svg width="80" height="80" viewBox="0 0 80 80" fill="none" xmlns="http://www.w3.org/2000/svg">
<path d="M61.25 80H18.75C8.41125 80 0 71.5888 0 61.25V18.75C0 8.41125 8.41125 0 18.75 0H61.25C71.5888 0 80 8.41125 80 18.75V61.25C80 71.5888 71.5888 80 61.25 80ZM18.75 6.25C11.8575 6.25 6.25 11.8575 6.25 18.75V61.25C6.25 68.1425 11.8575 73.75 18.75 73.75H61.25C68.1425 73.75 73.75 68.1425 73.75 61.25V18.75C73.75 11.8575 68.1425 6.25 61.25 6.25H18.75ZM51.0083 65.1545C49.6953 65.1545 48.375 64.8405 47.1531 64.2045L40.9609 60.982C40.3591 60.6689 39.6408 60.6686 39.0389 60.982L32.8469 64.2045C30.0169 65.6775 26.6603 65.4234 24.0867 63.542C21.5419 61.6816 20.2941 58.6034 20.8302 55.5086L22.0127 48.6831C22.123 48.0459 21.9075 47.3941 21.4363 46.9394L16.4267 42.1055C11.4842 37.4167 14.2781 28.9419 21.0145 28.0416L27.9375 27.0456C28.6052 26.9495 29.18 26.5389 29.475 25.9473L32.5711 19.7373C35.5298 13.6598 44.4712 13.662 47.4286 19.7373L50.5245 25.9472C50.8197 26.5389 51.3944 26.9495 52.0622 27.0456L58.9852 28.0416C65.7241 28.9425 68.5139 37.4188 63.573 42.1053L58.5634 46.9394C58.092 47.3941 57.8766 48.0459 57.987 48.683L59.1695 55.5086C59.7058 58.6034 58.4578 61.6816 55.913 63.542C54.4509 64.6109 52.7359 65.1545 51.0083 65.1545ZM40 54.4978C41.3213 54.4978 42.642 54.8111 43.8464 55.438L50.0384 58.6605C51.0723 59.1986 51.9117 58.725 52.2247 58.4964C52.5234 58.2781 53.1983 57.6534 53.0116 56.5755L51.8291 49.75C51.3644 47.0691 52.2597 44.3369 54.2238 42.4417L59.2333 37.6078C60.0312 36.8378 59.8564 35.9464 59.7444 35.5991C59.6289 35.2416 59.2372 34.392 58.0955 34.228L51.1725 33.232C48.4745 32.8441 46.1416 31.1633 44.9314 28.7359L41.8356 22.5262C41.093 21.0261 38.9095 21.0234 38.1647 22.5262L35.0687 28.7361C33.8587 31.1633 31.5256 32.8441 28.8278 33.232L21.9048 34.228C20.7631 34.3922 20.3716 35.2416 20.2559 35.5991C20.1437 35.9466 19.9689 36.838 20.767 37.608L25.7766 42.4417C27.7406 44.337 28.6359 47.0691 28.1713 49.7502L26.9888 56.5755C26.802 57.6534 27.4769 58.278 27.7756 58.4964C28.0884 58.7252 28.9273 59.1983 29.962 58.6605L36.1539 55.438C37.3577 54.8113 38.6791 54.4978 40 54.4978Z" fill="#EEA83F"/>
</svg>
