<svg width="80" height="80" viewBox="0 0 80 80" fill="none" xmlns="http://www.w3.org/2000/svg">
<path d="M61.25 80H18.75C8.41125 80 0 71.5888 0 61.25V18.75C0 8.41125 8.41125 0 18.75 0H61.25C71.5888 0 80 8.41125 80 18.75V61.25C80 71.5888 71.5888 80 61.25 80ZM18.75 6.25C11.8575 6.25 6.25 11.8575 6.25 18.75V61.25C6.25 68.1425 11.8575 73.75 18.75 73.75H61.25C68.1425 73.75 73.75 68.1425 73.75 61.25V18.75C73.75 11.8575 68.1425 6.25 61.25 6.25H18.75Z" fill="#EEA83F"/>
<path d="M55.9463 40.4855C55.9463 41.4557 55.1599 42.2422 54.1897 42.2422H34.6357C34.8641 46.7224 35.954 50.6936 36.7968 53.3981C37.0854 54.3244 36.5685 55.3093 35.6422 55.5979C34.741 55.8862 33.7286 55.378 33.4425 54.4433C32.5295 51.5134 31.346 47.1869 31.1182 42.2421H26.7856C24.4549 42.1493 24.4567 38.8207 26.7856 38.7287H31.1267C31.375 33.8549 32.549 29.5919 33.4571 26.6939C33.7473 25.7681 34.7331 25.2525 35.6587 25.543C36.5845 25.8331 37.0999 26.8187 36.8098 27.7445C35.9729 30.4153 34.8936 34.3207 34.6454 38.7287H46.3978C46.1495 34.3207 45.0702 30.4153 44.2334 27.7445C43.9433 26.8187 44.4586 25.833 45.3844 25.543C46.3104 25.2532 47.2959 25.7683 47.586 26.6939C48.494 29.5919 49.6682 33.8549 49.9164 38.7287H54.1899C55.1599 38.7288 55.9463 39.5153 55.9463 40.4855ZM56.3872 24.5859C42.2567 10.4863 18.022 20.5284 18.0023 40.4857C17.8086 53.6891 29.966 64.5163 43.0578 62.8255C45.3631 62.4692 44.985 59.164 42.6604 59.3347C31.5165 60.6812 21.441 51.7213 21.5156 40.4855C21.5155 30.0243 30.0264 21.5134 40.4876 21.5134C51.6636 21.4447 60.5964 31.3993 59.3544 42.4973C59.2527 43.4621 59.9525 44.3267 60.9174 44.4283C61.8826 44.5298 62.7468 43.8301 62.8484 42.8653C63.5708 36.1203 61.2034 29.3685 56.3872 24.5859ZM47.6021 57.7009C46.6319 57.7009 45.8455 56.9144 45.8455 55.9442V51.0255C45.8455 48.1196 48.2096 45.7555 51.1155 45.7555H56.122C58.4528 45.8483 58.451 49.1769 56.122 49.2689H51.1155C50.1469 49.2689 49.3588 50.0569 49.3588 51.0255V55.9442C49.3588 56.9144 48.5723 57.7009 47.6021 57.7009ZM62.4585 62.4565C63.1446 61.7704 63.1446 60.6581 62.4585 59.9721L54.9048 52.4184C53.191 50.8359 50.8387 53.1909 52.4205 54.9028L59.9742 62.4565C60.3172 62.7995 60.7667 62.9709 61.2164 62.9709C61.666 62.9709 62.1155 62.7995 62.4585 62.4565Z" fill="#EEA83F" stroke="#EEA83F" stroke-width="0.5"/>
</svg>
