<svg width="80" height="80" viewBox="0 0 80 80" fill="none" xmlns="http://www.w3.org/2000/svg">
<path d="M61.25 80H18.75C8.41125 80 0 71.5888 0 61.25V18.75C0 8.41125 8.41125 0 18.75 0H61.25C71.5888 0 80 8.41125 80 18.75V61.25C80 71.5888 71.5888 80 61.25 80ZM18.75 6.25C11.8575 6.25 6.25 11.8575 6.25 18.75V61.25C6.25 68.1425 11.8575 73.75 18.75 73.75H61.25C68.1425 73.75 73.75 68.1425 73.75 61.25V18.75C73.75 11.8575 68.1425 6.25 61.25 6.25H18.75Z" fill="#EEA83F"/>
<path d="M34.666 58.332C22.1679 58.332 12 48.1641 12 35.666C12 23.1679 22.1679 13 34.666 13C47.1641 13 57.332 23.1679 57.332 35.666C57.332 48.1641 47.1641 58.332 34.666 58.332ZM34.666 17.2969C24.5372 17.2969 16.2969 25.5372 16.2969 35.666C16.2969 45.7948 24.5372 54.0351 34.666 54.0351C44.7948 54.0351 53.0351 45.7948 53.0351 35.666C53.0351 25.5372 44.7948 17.2969 34.666 17.2969ZM34.8721 36.6328C31.1405 36.6328 28.1046 33.5968 28.1046 29.8652C28.1046 26.1336 31.1405 23.0976 34.8721 23.0976C38.6038 23.0976 41.6397 26.1336 41.6397 29.8652C41.6397 33.5968 38.6039 36.6328 34.8721 36.6328ZM34.8721 27.3945C33.5098 27.3945 32.4014 28.5029 32.4014 29.8652C32.4014 31.2275 33.5098 32.3359 34.8721 32.3359C36.2345 32.3359 37.3428 31.2275 37.3428 29.8652C37.3428 28.5029 36.2346 27.3945 34.8721 27.3945ZM41.4321 48.1275C40.4779 48.1275 39.6068 47.4871 39.3546 46.5208C38.859 44.6202 37.1303 43.2929 35.1508 43.2929H33.9491C31.9696 43.2929 30.2409 44.6202 29.7451 46.5208C29.4455 47.6689 28.272 48.3566 27.1239 48.0574C25.9758 47.7579 25.2879 46.5843 25.5874 45.4363C26.5765 41.6444 30.015 38.9962 33.9491 38.9962H35.1508C39.0849 38.9962 42.5234 41.6444 43.5125 45.4363C43.812 46.5845 43.1241 47.7579 41.9759 48.0574C41.7941 48.1048 41.6116 48.1275 41.4321 48.1275ZM66.375 67.3665C67.2117 66.5252 67.2078 65.1649 66.3665 64.3282L56.6985 54.7139C55.8572 53.8772 54.4969 53.8812 53.6602 54.7224C52.8235 55.5637 52.8274 56.924 53.6687 57.7607L63.3367 67.375C63.7557 67.7919 64.3036 68 64.8515 68C65.4032 68 65.9551 67.7885 66.375 67.3665Z" fill="#EEA83F" stroke="#EEA83F" stroke-width="0.5"/>
</svg>
