<svg width="80" height="80" viewBox="0 0 80 80" fill="none" xmlns="http://www.w3.org/2000/svg">
<path d="M61.25 80H18.75C8.41125 80 0 71.5888 0 61.25V18.75C0 8.41125 8.41125 0 18.75 0H61.25C71.5888 0 80 8.41125 80 18.75V61.25C80 71.5888 71.5888 80 61.25 80ZM18.75 6.25C11.8575 6.25 6.25 11.8575 6.25 18.75V61.25C6.25 68.1425 11.8575 73.75 18.75 73.75H61.25C68.1425 73.75 73.75 68.1425 73.75 61.25V18.75C73.75 11.8575 68.1425 6.25 61.25 6.25H18.75Z" fill="#EEA83F"/>
<path d="M56.4726 53.498C52.6225 53.498 49.4902 50.3657 49.4902 46.5156C49.4902 42.6655 52.6225 39.5332 56.4726 39.5332C60.3227 39.5332 63.455 42.6655 63.455 46.5156C63.455 50.3657 60.3227 53.498 56.4726 53.498ZM56.4726 43.83C54.9918 43.83 53.787 45.0348 53.787 46.5156C53.787 47.9964 54.9918 49.2011 56.4726 49.2011C57.9534 49.2011 59.1581 47.9964 59.1581 46.5156C59.1581 45.0348 57.9534 43.83 56.4726 43.83ZM38.8554 54.6796C35.0053 54.6796 31.873 51.5473 31.873 47.6972C31.873 43.8471 35.0053 40.7148 38.8554 40.7148C42.7055 40.7148 45.8378 43.8471 45.8378 47.6972C45.8378 51.5473 42.7055 54.6796 38.8554 54.6796ZM38.8554 45.0117C37.3746 45.0117 36.1699 46.2164 36.1699 47.6972C36.1699 49.178 37.3746 50.3827 38.8554 50.3827C40.3362 50.3827 41.541 49.178 41.541 47.6972C41.541 46.2164 40.3362 45.0117 38.8554 45.0117ZM33.2695 65.8515C33.2695 63.5414 35.1726 61.662 37.5117 61.662H41.2187C42.4053 61.662 43.3671 60.7002 43.3671 59.5136C43.3671 58.327 42.4053 57.3652 41.2187 57.3652H37.5117C32.8032 57.3652 28.9726 61.1721 28.9726 65.8515C28.9726 67.038 29.9345 67.9999 31.1211 67.9999C32.3076 67.9999 33.2695 67.038 33.2695 65.8515ZM21.4531 54.6796C17.603 54.6796 14.4707 51.5473 14.4707 47.6972C14.4707 43.8471 17.603 40.7148 21.4531 40.7148C25.3032 40.7148 28.4355 43.8471 28.4355 47.6972C28.4355 51.5473 25.3032 54.6796 21.4531 54.6796ZM21.4531 45.0117C19.9723 45.0117 18.7676 46.2164 18.7676 47.6972C18.7676 49.178 19.9723 50.3827 21.4531 50.3827C22.9339 50.3827 24.1386 49.178 24.1386 47.6972C24.1386 46.2164 22.9339 45.0117 21.4531 45.0117ZM16.2969 65.8515C16.2969 63.5414 18.1999 61.662 20.5391 61.662H24.8906C26.0772 61.662 27.039 60.7002 27.039 59.5136C27.039 58.327 26.0772 57.3652 24.8906 57.3652H20.5391C15.8305 57.3652 12 61.1721 12 65.8515C12 67.038 12.9619 67.9999 14.1484 67.9999C15.335 67.9999 16.2969 67.038 16.2969 65.8515ZM49.9204 36.8476C49.3612 36.8476 48.8118 36.6293 48.4007 36.2183L48.2065 36.0241C47.1609 34.9787 45.5717 34.7175 44.2515 35.3748C42.2886 36.3521 40.1679 36.8475 37.9482 36.8475C37.946 36.8475 37.9436 36.8475 37.9415 36.8475H23.9238C17.349 36.8476 12 31.4987 12 24.9238C12 18.349 17.349 13 23.9238 13H40.1445C46.7193 13 52.0683 18.349 52.0683 24.9238V34.6992C52.0683 35.5681 51.5448 36.3515 50.742 36.6841C50.4763 36.7941 50.197 36.8476 49.9204 36.8476ZM23.9238 17.2969C19.7184 17.2969 16.2969 20.7184 16.2969 24.9238C16.2969 29.1293 19.7184 32.5507 23.9238 32.5507H37.9423H37.9472C39.4975 32.5507 40.9737 32.2068 42.3363 31.5283C44.0634 30.6684 45.9949 30.5052 47.7714 30.9797V24.9238C47.7714 20.7184 44.3499 17.2969 40.1445 17.2969H23.9238ZM64.8515 67.9999C63.6649 67.9999 62.703 67.038 62.703 65.8515C62.703 62.7187 60.1384 60.17 56.986 60.17H55.5294C52.377 60.17 49.8124 62.7187 49.8124 65.8515C49.8124 67.038 48.8506 67.9999 47.664 67.9999C46.4774 67.9999 45.5156 67.038 45.5156 65.8515C45.5156 60.3494 50.0077 55.8732 55.5294 55.8732H56.9862C62.5077 55.8732 67 60.3494 67 65.8515C66.9999 67.038 66.038 67.9999 64.8515 67.9999ZM20.5937 24.9238C20.5937 26.407 21.7961 27.6093 23.2793 27.6093C24.7624 27.6093 25.9648 26.407 25.9648 24.9238C25.9648 23.4406 24.7624 22.2383 23.2793 22.2383C21.7961 22.2383 20.5937 23.4406 20.5937 24.9238ZM29.1875 24.9238C29.1875 26.407 30.3898 27.6093 31.873 27.6093C33.3562 27.6093 34.5586 26.407 34.5586 24.9238C34.5586 23.4406 33.3562 22.2383 31.873 22.2383C30.3898 22.2383 29.1875 23.4406 29.1875 24.9238ZM37.7812 24.9238C37.7812 26.407 38.9836 27.6093 40.4667 27.6093C41.9499 27.6093 43.1523 26.407 43.1523 24.9238C43.1523 23.4406 41.9499 22.2383 40.4667 22.2383C38.9836 22.2383 37.7812 23.4406 37.7812 24.9238Z" fill="#EEA83F" stroke="#EEA83F" stroke-width="0.5"/>
</svg>
