<svg width="80" height="80" viewBox="0 0 80 80" fill="none" xmlns="http://www.w3.org/2000/svg">
<path d="M61.25 80H18.75C8.41125 80 0 71.5888 0 61.25V18.75C0 8.41125 8.41125 0 18.75 0H61.25C71.5888 0 80 8.41125 80 18.75V61.25C80 71.5888 71.5888 80 61.25 80ZM18.75 6.25C11.8575 6.25 6.25 11.8575 6.25 18.75V61.25C6.25 68.1425 11.8575 73.75 18.75 73.75H61.25C68.1425 73.75 73.75 68.1425 73.75 61.25V18.75C73.75 11.8575 68.1425 6.25 61.25 6.25H18.75Z" fill="#EEA83F"/>
<path d="M59.7949 47.3806V44.5488C59.7949 40.9949 56.9036 38.1035 53.3496 38.1035C49.7957 38.1035 46.9043 40.9949 46.9043 44.5488V47.3442C43.4773 48.4747 40.9961 51.7051 40.9961 55.5059V58.4062C40.9961 63.1448 44.8512 67 49.5898 67H57.002C61.7405 67 65.5957 63.1448 65.5957 58.4062V55.5059C65.5957 51.7449 63.1661 48.5428 59.7949 47.3806ZM53.3496 42.4004C54.5343 42.4004 55.498 43.3642 55.498 44.5488V46.9121H51.2012V44.5488C51.2012 43.3642 52.165 42.4004 53.3496 42.4004ZM61.2988 58.4062C61.2988 60.7755 59.3713 62.7031 57.002 62.7031H49.5898C47.2205 62.7031 45.293 60.7755 45.293 58.4062V55.5059C45.293 53.1366 47.2205 51.209 49.5898 51.209H57.002C59.3713 51.209 61.2988 53.1366 61.2988 55.5059V58.4062ZM35.9473 41.0039C43.9436 41.0039 50.4492 34.4983 50.4492 26.502C50.4492 18.5056 43.9436 12 35.9473 12C27.9509 12 21.4453 18.5056 21.4453 26.502C21.4453 34.4983 27.9509 41.0039 35.9473 41.0039ZM35.9473 16.2969C41.5743 16.2969 46.1523 20.8749 46.1523 26.502C46.1523 32.129 41.5743 36.707 35.9473 36.707C30.3202 36.707 25.7422 32.129 25.7422 26.502C25.7422 20.8749 30.3202 16.2969 35.9473 16.2969ZM56.1068 56.9023C56.1068 58.3855 54.9044 59.5879 53.4213 59.5879C51.9381 59.5879 50.7357 58.3855 50.7357 56.9023C50.7357 55.4192 51.9381 54.2168 53.4213 54.2168C54.9044 54.2168 56.1068 55.4192 56.1068 56.9023ZM38.8477 47.4492C38.8477 48.6358 37.8858 49.5977 36.6992 49.5977H34.5508C26.1398 49.5977 19.2969 56.4405 19.2969 64.8516C19.2969 66.0381 18.335 67 17.1484 67C15.9619 67 15 66.0381 15 64.8516C15 54.0712 23.7705 45.3008 34.5508 45.3008H36.6992C37.8858 45.3008 38.8477 46.2626 38.8477 47.4492Z" fill="#EEA83F" stroke="#EEA83F" stroke-width="0.5"/>
</svg>
