<svg width="80" height="80" viewBox="0 0 80 80" fill="none" xmlns="http://www.w3.org/2000/svg"><path d="M61.25 80h-42.5C8.411 80 0 71.589 0 61.25v-42.5C0 8.411 8.411 0 18.75 0h42.5C71.589 0 80 8.411 80 18.75v42.5C80 71.589 71.589 80 61.25 80zM18.75 6.25c-6.893 0-12.5 5.607-12.5 12.5v42.5c0 6.892 5.607 12.5 12.5 12.5h42.5c6.892 0 12.5-5.608 12.5-12.5v-42.5c0-6.893-5.608-12.5-12.5-12.5h-42.5z" fill="#EEA83F"/><path d="M55.146 29.884l2.994-2.994-2.946-2.947-3.203 3.203a20.702 20.702 0 0 0-9.908-3.709v-4.27h4.167V15h-12.5v4.167h4.167v4.27a20.702 20.702 0 0 0-9.908 3.709l-3.203-3.203-2.946 2.947 2.994 2.994a20.833 20.833 0 1 0 30.292 0zM40 60.834a16.666 16.666 0 1 1 16.667-16.667A16.686 16.686 0 0 1 40 60.833z" fill="#EEA83F" stroke="#EEA83F"/><path d="M40 31.667v12.5H27.5a12.5 12.5 0 1 0 12.5-12.5z" fill="#EEA83F" stroke="#EEA83F"/></svg>