<svg width="252" height="85" viewBox="0 0 252 85" fill="none" xmlns="http://www.w3.org/2000/svg"><g clip-path="url(#a)" fill="#405398"><path d="M208.699 1.192A41.264 41.264 0 0 1 249.685 38.4a41.26 41.26 0 0 1-62.159 39.512 41.26 41.26 0 0 1 5.069-73.48 41.17 41.17 0 0 1 16.104-3.24zm0-1.192c-23.507 0-42.562 19.028-42.562 42.5S185.192 85 208.699 85c23.507 0 42.562-19.028 42.562-42.5S232.206 0 208.699 0z"/><path d="M208.823 4.681A37.675 37.675 0 0 1 246.26 38.64a37.675 37.675 0 0 1-30.045 40.644 37.672 37.672 0 0 1-22.088-71.64 37.568 37.568 0 0 1 14.696-2.963zm0-1.191c-21.51 0-38.948 17.41-38.948 38.885 0 21.476 17.438 38.886 38.948 38.886 21.511 0 38.948-17.41 38.948-38.886 0-21.475-17.437-38.885-38.948-38.885z"/><path d="M208.699 13.406a29.217 29.217 0 0 1 23.455 46.58 29.216 29.216 0 1 1-34.853-44.282 29.167 29.167 0 0 1 11.398-2.296v-.002zm0-1.19c-16.829-.002-30.473 13.613-30.473 30.409 0 16.795 13.644 30.41 30.473 30.41s30.473-13.615 30.473-30.41c0-16.796-13.644-30.41-30.473-30.41v.002z"/><path d="M185.782 21.52l-.989-.355-1.268 1.524.531.908-.399.48-2.338-4.08.424-.508 4.437 1.553-.398.478zm-2.548.665l1.009-1.215-2.177-.78 1.168 1.995zM188.903 18.492l-.523.49-2.833-.24 1.447 1.54-.428.407-3.013-3.213.426-.4 1.361 1.45-.02-2.708.522-.49.046 2.89 3.015.274zM191.905 16.275l-.579.426-2.784-.576 1.254 1.698-.471.346-2.618-3.548.471-.347 1.179 1.602.302-2.691.577-.426-.291 2.881 2.96.635zM191.58 11.386a1.402 1.402 0 0 1 1.578.106c.148.115.27.26.36.424a1.364 1.364 0 0 1 .14 1.078 1.382 1.382 0 0 1-.682.858l-.883.498.775 1.371-.509.29-2.168-3.834 1.389-.79zm1.122 1.995a.804.804 0 0 0 .405-.511.878.878 0 0 0-.1-.66.913.913 0 0 0-.227-.273.76.76 0 0 0-.287-.152.843.843 0 0 0-.647.085l-.881.499.856 1.51.881-.498zM195.944 13.495l1.882-.8.217.516-2.422 1.03-1.724-4.055 2.392-1.017.217.51-1.853.788.529 1.246 1.709-.726.214.504-1.708.723.547 1.281zM201.657 11.535l.454-.125.382 1.344-.563.16-.231-.81-2.796.796.231.811-.563.16-.383-1.344.374-.105c.167-.406.156-.94-.031-1.601l-.634-2.221 2.706-.77 1.054 3.705zm-.563.16l-.905-3.177-1.579.456.485 1.701c.182.638.215 1.16.099 1.568l1.9-.547zM205.645 11.445l-.45-3.254-1.793 3.566-.467.064-.606-4.362.581-.08.451 3.26 1.792-3.571.469-.065.604 4.362-.581.08zM209.929 6.872l.009.554-1.303.02.058 3.85-.585.01-.059-3.852-1.296.02-.008-.554 3.184-.048zM210.334 9.05a2.27 2.27 0 0 1 4.437-.356 2.272 2.272 0 0 1-2.66 2.84 2.265 2.265 0 0 1-1.298-.804 2.19 2.19 0 0 1-.479-1.68zm3.953.442a1.661 1.661 0 0 0-.351-1.266 1.61 1.61 0 0 0-1.144-.623 1.631 1.631 0 0 0-1.26.361 1.693 1.693 0 0 0-.616 1.162 1.7 1.7 0 0 0 .345 1.27 1.645 1.645 0 0 0 1.152.623 1.617 1.617 0 0 0 1.252-.355 1.678 1.678 0 0 0 .622-1.172zM218.325 10.353c.168.137.295.317.367.521.072.21.079.437.018.65a1.184 1.184 0 0 1-.583.765 1.262 1.262 0 0 1-.969.118l-1.844-.478 1.108-4.265 1.709.443a1.207 1.207 0 0 1 .761.556 1.155 1.155 0 0 1 .133.921 1.05 1.05 0 0 1-.7.77zm-1.033 1.523a.683.683 0 0 0 .73-.258.727.727 0 0 0 .125-.26.685.685 0 0 0-.075-.54.655.655 0 0 0-.422-.325l-1.274-.33-.359 1.383 1.275.33zm-.441-3.534l-.34 1.31 1.139.295a.623.623 0 0 0 .263.012.628.628 0 0 0 .424-.256.718.718 0 0 0 .134-.51.657.657 0 0 0-.087-.246.61.61 0 0 0-.394-.311l-1.139-.294zM221.74 14.036l.037-1.05-1.84-.74-.707.784-.578-.233 3.168-3.474.612.249-.124 4.701-.568-.237zm-1.412-2.222l1.466.59.074-2.311-1.54 1.721zM227.332 12.03l.509.29-2.176 3.832-.508-.289.978-1.725-1.862-1.052-.978 1.726-.509-.29 2.177-3.836.51.29-.922 1.62 1.861 1.056.92-1.621zM231.291 14.832l.465.355-2.68 3.496-.459-.362 1.207-1.57-1.705-1.296-1.202 1.575-.467-.355 2.675-3.501.466.355-1.138 1.483 1.702 1.299 1.136-1.48zM229.803 19.287l3.16-3.07.408.42-1.129 1.096.708.729a1.418 1.418 0 0 1-2.03 1.978l-1.117-1.153zm.801.039l.706.726c.08.084.176.15.283.195a.786.786 0 0 0 .633.003.917.917 0 0 0 .295-.199.949.949 0 0 0 .206-.288.777.777 0 0 0 .074-.318.836.836 0 0 0-.245-.604l-.706-.727-1.246 1.212zm1.621 2.447l3.16-3.07.408.42-3.164 3.07-.404-.42zM234.817 25.165l2.668-1.918-3.988.078-.276-.384 3.577-2.57.342.474-2.672 1.922 3.993-.084.276.383-3.577 2.572-.343-.473zm2.836-4.412l.389-.28.997 1.38-.388.28-.998-1.38zM238.299 30.51l.2.427-1.268.595-.249-.53.765-.356-1.225-2.637-.765.355-.25-.53 1.267-.59.162.349c.427.102.952.008 1.576-.282l2.089-.97 1.188 2.545-3.49 1.623zm-.249-.532l2.997-1.392-.691-1.49-1.604.748c-.602.281-1.113.396-1.535.346l.833 1.788zM238.904 32.206l.623 1.947-.527.17-.805-2.505 4.195-1.348.794 2.476-.523.17-.623-1.919-1.287.414.567 1.768-.521.167-.563-1.764-1.33.424zM243.812 35.717a1.387 1.387 0 0 1-.203 1.077 1.445 1.445 0 0 1-1.974.394 1.384 1.384 0 0 1-.601-.916l-.2-.997-1.538.31-.124-.575 4.326-.86.314 1.567zm-2.244.445a.812.812 0 0 0 .359.545.888.888 0 0 0 .658.112.937.937 0 0 0 .329-.13.76.76 0 0 0 .235-.226.84.84 0 0 0 .124-.64l-.198-.998-1.703.341.196.996zM240.154 43.293l-.039-.667 2.013-1.789-2.11.125-.035-.585 2.112-.124-2.209-1.54-.039-.661 2.352 1.628 2.05-1.823.039.66-1.923 1.72 2.017-.124.033.585-2.016.124 2.111 1.484.039.666-2.244-1.578-2.151 1.899zM239.788 46.84l1.018-.265.186-1.974-.948-.45.059-.623 4.237 2.048-.062.658-4.54 1.223.05-.617zm1.73-1.987l-.149 1.573 2.244-.586-2.095-.987zM243.409 51.312l-.542-.111.262-1.277-3.773-.773.117-.575 3.77.779.262-1.27.542.11-.638 3.117zM239.273 51.702l-.623 1.948-.528-.17.801-2.505 4.194 1.347-.796 2.476-.527-.17.618-1.917-1.287-.414-.568 1.768-.521-.167.568-1.769-1.331-.427zM238.519 54.021a.78.78 0 0 0-.137.353.55.55 0 0 0 .082.34c.086.132.199.245.33.333.192.133.396.247.61.341l2.26 1.052-1.218 2.636-3.996-1.853.249-.531 3.49 1.62.728-1.574-1.765-.819a3.59 3.59 0 0 1-.851-.52 1.47 1.47 0 0 1-.413-.53.942.942 0 0 1-.061-.535c.036-.19.106-.371.207-.536l.485.223zM237.517 60.915a1.389 1.389 0 0 1-.889.64 1.414 1.414 0 0 1-1.507-2.152l.857-1.355 3.724 2.353-.313.499-1.33-.84-.542.855zm-1.931-1.223a.842.842 0 0 0-.116.642.77.77 0 0 0 .137.295c.072.096.16.177.262.24a.866.866 0 0 0 .957-.005.787.787 0 0 0 .227-.245l.542-.857-1.469-.928-.54.858zM231.365 64.123l.392-.418.367.345c.464-.427.935-.676 1.413-.747a1.587 1.587 0 0 1 1.771 1.66c-.045.482-.266.968-.664 1.458l.368.345-.393.418-.374-.346c-.469.433-.94.683-1.412.748a1.575 1.575 0 0 1-1.762-1.655c.038-.475.259-.96.663-1.457l-.369-.351zm.748.706c-.304.373-.474.723-.508 1.05a1.133 1.133 0 0 0 .354.871 1.12 1.12 0 0 0 .893.297c.324-.055.662-.245 1.014-.57l-1.753-1.648zm2.293-.685a.993.993 0 0 0-.888-.297c-.322.057-.658.247-1.009.57l1.745 1.642c.301-.37.468-.72.498-1.045a1.002 1.002 0 0 0-.341-.87h-.005zM230.946 70.494a1.42 1.42 0 0 1-1.991-.218 1.422 1.422 0 0 1-.137-1.567c.09-.163.21-.307.356-.424l.791-.635-.985-1.228.458-.366 2.754 3.436-1.246 1.002zm-1.431-1.784a.823.823 0 0 0-.318.57.88.88 0 0 0 .205.636.953.953 0 0 0 .266.233.785.785 0 0 0 .64.072.848.848 0 0 0 .293-.156l.79-.634-1.088-1.355-.788.634zM224.426 69.645l.833.64 1.672-1.064-.223-1.025.525-.334.971 4.597-.559.356-3.75-2.836.531-.334zm2.63.147l-1.334.848 1.835 1.407-.501-2.255zM222.805 75.356l-.531.25-1.851-4 .532-.248.832 1.802 1.943-.899-.833-1.798.531-.25 1.851 3.999-.532.249-.781-1.7-1.946.897.785 1.698zM216.446 77.418l-.565.156-1.168-4.248 4.845-1.331 1.168 4.248-.566.157-1.021-3.715-1.578.434 1.021 3.714-.565.156-1.02-3.715-1.572.432 1.021 3.712zM211.043 73.712l.336 3.27 1.916-3.502.469-.048.452 4.382-.582.06-.337-3.275-1.918 3.508-.47.048-.453-4.382.587-.061zM207.375 76.026a1.19 1.19 0 0 1-.525-.426 1.132 1.132 0 0 1-.184-.654 1.145 1.145 0 0 1 .436-.921 1.96 1.96 0 0 1 2.144-.058c.251.184.439.44.538.735l-.498.279c-.126-.499-.48-.748-1.065-.748a1.103 1.103 0 0 0-.712.198.667.667 0 0 0-.256.542.69.69 0 0 0 .232.55c.185.15.418.225.655.213h.516v.53h-.373a.97.97 0 0 0-.645.194.643.643 0 0 0-.249.52.66.66 0 0 0 .219.52.905.905 0 0 0 .623.2c.488 0 .815-.213.981-.64l.489.288c-.269.605-.76.906-1.473.9a1.485 1.485 0 0 1-1.026-.36 1.143 1.143 0 0 1-.394-.9 1.049 1.049 0 0 1 .567-.962zM202.552 73.16l-.688 4.352-.579-.092.69-4.351.577.09zm3.426.542l-.689 4.352-.579-.092.25-1.554-1.005-.159a1.378 1.378 0 0 1-.938-.563 1.444 1.444 0 0 1 .315-1.994 1.382 1.382 0 0 1 1.066-.24l1.58.25zm-.664.45l-.997-.158a.86.86 0 0 0-.636.147.803.803 0 0 0-.216.243 1 1 0 0 0-.109.69.79.79 0 0 0 .124.298.852.852 0 0 0 .559.337l.997.16.278-1.717zM194.019 74.945l-.546-.23 2.61-2.552c.238-.256.544-.438.883-.522.315-.056.639-.003.921.148l-.211.498a.915.915 0 0 0-.584-.133 1.039 1.039 0 0 0-.543.314l-.079.076.148 3.49-.546-.23-.101-2.769-1.952 1.91zM190.412 73.014l-.508-.29 2.195-3.822.507.292-.884 1.54c.374.027.736.139 1.061.326.337.173.596.47.722.827a1.23 1.23 0 0 1-.125 1.016l-.784 1.365-.507-.292.765-1.33a.747.747 0 0 0 .088-.61.88.88 0 0 0-.439-.499 2.467 2.467 0 0 0-1.055-.323l-1.036 1.8zM190.517 68.465l-1.642-1.219.329-.445 2.118 1.568-2.627 3.544-2.088-1.547.329-.445 1.621 1.199.806-1.087-1.496-1.106.326-.44 1.495 1.106.829-1.128zM183.601 67.661l.374-.408.957.885 2.618-2.83.43.397-2.618 2.83.952.88-.373.407-2.34-2.161zM209.01 17.535a25.035 25.035 0 0 1 20.087 39.919 25.033 25.033 0 1 1-29.854-37.953 24.99 24.99 0 0 1 9.767-1.966zm0-1.831c-14.867 0-26.92 12.024-26.92 26.858 0 14.834 12.053 26.859 26.92 26.859 14.868 0 26.921-12.025 26.921-26.859 0-14.834-12.053-26.858-26.921-26.858z"/></g><path d="M1.465 59.325H.078l3.31-7.85h1.208l3.31 7.85H6.443l-.817-2.002H2.281l-.816 2.002zm3.634-3.288l-1.14-2.784-1.152 2.784h2.292zM12.971 54.293h1.622l-1.935 2.393 2.17 2.64H13.15l-1.99-2.54 1.811-2.493zm-1.856 5.032H9.829v-5.032h1.286v5.032zM19.846 54.293h1.621l-1.935 2.393 2.17 2.64h-1.678l-1.99-2.54 1.812-2.493zm-1.857 5.032h-1.286v-5.032h1.286v5.032zM24.863 61.562h-1.286v-7.27h1.286v.482c.164-.18.388-.325.671-.437.284-.111.578-.167.884-.167.693 0 1.245.238 1.655.715.418.485.626 1.1.626 1.846 0 .783-.246 1.431-.738 1.946-.492.514-1.133.772-1.923.772-.508 0-.899-.082-1.175-.246v2.36zm1.152-6.184c-.447 0-.831.182-1.152.547v2.036c.306.194.66.29 1.063.29.425 0 .764-.137 1.017-.413.261-.276.392-.634.392-1.074 0-.417-.12-.753-.358-1.006-.231-.254-.552-.38-.962-.38zM34.88 57.916l.369.906c-.5.418-1.14.627-1.924.627-.805 0-1.461-.243-1.968-.727-.492-.478-.738-1.115-.738-1.913 0-.745.242-1.372.727-1.879.484-.507 1.13-.76 1.935-.76.663 0 1.226.22 1.688.66.462.44.694.999.694 1.677 0 .298-.026.53-.079.694H31.95c.052.365.212.652.48.86.276.21.62.314 1.03.314.559 0 1.032-.153 1.42-.459zm-1.656-2.673c-.73 0-1.17.366-1.32 1.096h2.473c.007-.32-.097-.581-.314-.782-.208-.21-.488-.314-.839-.314zM38.246 60.5h-1.197v-2.371h.638c.395-.53.63-1.406.704-2.628l.079-1.208h3.713v3.836h.839v2.37h-1.208v-1.174h-3.568V60.5zm1.42-5l-.033.515c-.09.97-.291 1.674-.604 2.114h1.867V55.5h-1.23zM48.62 56.138l-2.348 3.188h-1.286v-5.033h1.286v3.187l2.349-3.187h1.286v5.032h-1.286v-3.187zM53.59 55.579h-1.655v-1.286h4.586v1.286h-1.644v3.746H53.59V55.58zM58.843 58.71c-.5-.5-.75-1.133-.75-1.9 0-.769.25-1.399.75-1.891.5-.5 1.163-.75 1.99-.75.821 0 1.48.25 1.98.75.507.492.76 1.122.76 1.89 0 .76-.253 1.394-.76 1.901-.507.492-1.166.739-1.98.739-.827 0-1.49-.246-1.99-.739zm1.018-2.93c-.261.269-.392.611-.392 1.03 0 .417.127.763.38 1.04.262.268.59.402.985.402.402 0 .73-.134.984-.403.261-.268.392-.615.392-1.04 0-.417-.131-.76-.392-1.029a1.315 1.315 0 0 0-.984-.403c-.388 0-.712.135-.973.403zM65.805 59.325v-5.032c.067 0 .35-.008.85-.023.507-.022.884-.033 1.13-.033 1.521 0 2.282.44 2.282 1.32 0 .283-.09.533-.269.749a1.047 1.047 0 0 1-.67.369v.022c.715.172 1.073.56 1.073 1.163 0 1.014-.798 1.521-2.394 1.521-.23 0-.585-.01-1.062-.033-.12 0-.257-.004-.414-.011-.149 0-.265-.004-.347-.012h-.179zm2.092-2.136h-.805v1.119c.447.03.73.044.85.044.283 0 .503-.052.66-.156a.482.482 0 0 0 .245-.425c0-.388-.316-.582-.95-.582zm0-1.912c-.298 0-.567.007-.805.022v1.108h.838c.231 0 .418-.053.56-.157a.5.5 0 0 0 .212-.425c0-.366-.268-.548-.805-.548zM72.93 55.59l-.325-.94a3.441 3.441 0 0 1 1.778-.48c.7 0 1.212.171 1.532.514.32.343.481.869.481 1.577v3.064h-1.118v-.581c-.299.432-.794.649-1.488.649-.477 0-.86-.138-1.152-.414-.283-.283-.425-.66-.425-1.13 0-.522.168-.924.504-1.208.335-.283.779-.425 1.33-.425.455 0 .836.108 1.141.325.015-.448-.052-.776-.201-.984-.142-.21-.388-.314-.738-.314-.388 0-.828.116-1.32.347zm1.285 2.718c.433 0 .757-.153.973-.459v-.514c-.209-.164-.503-.246-.883-.246-.239 0-.433.056-.582.167a.542.542 0 0 0-.224.459c0 .179.068.324.202.436a.814.814 0 0 0 .514.157zM83.609 59.325h-1.286v-1.923h-2.204v1.923h-1.286v-5.032h1.286v1.901h2.204v-1.901h1.286v5.032zM90.93 59.325h-1.286v-1.923h-2.203v1.923h-1.286v-5.032h1.286v1.901h2.203v-1.901h1.287v5.032zM95.289 59.325h-1.812v-5.032h1.286v1.375h.627c.753 0 1.308.157 1.666.47.365.313.548.738.548 1.275 0 .574-.194 1.036-.582 1.387-.387.35-.965.526-1.733.526zm4.317 0H98.32v-5.032h1.286v5.032zm-4.328-2.628h-.515v1.51h.504c.648 0 .973-.25.973-.75 0-.506-.321-.76-.962-.76zM105.788 56.138l-2.348 3.188h-1.287v-5.033h1.287v3.187l2.348-3.187h1.286v5.032h-1.286v-3.187zm-2.885-4.362h1.174c0 .246.049.444.146.593.096.15.242.224.436.224a.43.43 0 0 0 .391-.224c.097-.157.146-.354.146-.593h1.174c0 .522-.153.943-.459 1.264-.305.313-.723.47-1.252.47-.582 0-1.022-.153-1.32-.459-.291-.313-.436-.738-.436-1.275zM116.886 61.562H115.6V59.45h-.067c-.865 0-1.536-.246-2.013-.739-.478-.484-.716-1.118-.716-1.9 0-.717.242-1.336.727-1.858.492-.521 1.155-.782 1.99-.782h.079v-2.673h1.286v2.673h.089c.843 0 1.503.25 1.98.749.485.5.727 1.13.727 1.89 0 .798-.239 1.44-.716 1.924-.47.477-1.133.716-1.991.716h-.089v2.113zm.089-6.184h-.089v2.874h.045c.44 0 .779-.127 1.017-.38.239-.261.358-.616.358-1.063 0-.417-.119-.76-.358-1.029-.231-.268-.555-.403-.973-.403zm-2.796 1.431c0 .44.12.79.358 1.051.246.261.589.392 1.029.392h.034v-2.875h-.09c-.432 0-.764.131-.995.392-.224.26-.336.608-.336 1.04zM123.2 61.562h-1.287v-7.27h1.287v.482c.164-.18.387-.325.671-.437a2.38 2.38 0 0 1 .883-.167c.694 0 1.245.238 1.655.715.418.485.627 1.1.627 1.846 0 .783-.246 1.431-.738 1.946-.493.514-1.134.772-1.924.772-.507 0-.899-.082-1.174-.246v2.36zm1.151-6.184c-.447 0-.831.182-1.151.547v2.036c.305.194.659.29 1.062.29.425 0 .764-.137 1.018-.413.261-.276.391-.634.391-1.074 0-.417-.119-.753-.358-1.006-.231-.254-.551-.38-.962-.38zM129.66 55.59l-.325-.94a3.444 3.444 0 0 1 1.779-.48c.7 0 1.211.171 1.532.514.32.343.481.869.481 1.577v3.064h-1.119v-.581c-.298.432-.794.649-1.487.649-.477 0-.861-.138-1.152-.414-.284-.283-.425-.66-.425-1.13 0-.522.168-.924.503-1.208.336-.283.779-.425 1.331-.425.455 0 .835.108 1.141.325.015-.448-.052-.776-.202-.984-.141-.21-.387-.314-.738-.314-.387 0-.827.116-1.319.347zm1.286 2.718c.432 0 .757-.153.973-.459v-.514c-.209-.164-.504-.246-.884-.246-.238 0-.432.056-.581.167a.543.543 0 0 0-.224.459c0 .179.067.324.201.436a.816.816 0 0 0 .515.157zM140.339 59.325h-1.286v-1.923h-2.203v1.923h-1.286v-5.032h1.286v1.901h2.203v-1.901h1.286v5.032zM145.659 54.293h1.286v5.032h-1.286v-1.733c-.373.194-.79.29-1.252.29-.627 0-1.089-.163-1.387-.491-.291-.328-.436-.824-.436-1.488v-1.61h1.375v1.454c0 .618.272.928.817.928.35 0 .645-.067.883-.201v-2.181zM149.889 55.59l-.324-.94a3.44 3.44 0 0 1 1.778-.48c.701 0 1.212.171 1.532.514.321.343.481.869.481 1.577v3.064h-1.118v-.581c-.298.432-.794.649-1.488.649-.477 0-.861-.138-1.152-.414-.283-.283-.425-.66-.425-1.13 0-.522.168-.924.504-1.208.335-.283.779-.425 1.331-.425.454 0 .835.108 1.14.325.015-.448-.052-.776-.201-.984-.142-.21-.388-.314-.738-.314-.388 0-.828.116-1.32.347zm1.286 2.718c.433 0 .757-.153.973-.459v-.514c-.208-.164-.503-.246-.883-.246-.239 0-.433.056-.582.167a.542.542 0 0 0-.223.459c0 .179.067.324.201.436a.813.813 0 0 0 .514.157zM159.428 56.138l-2.349 3.188h-1.286v-5.033h1.286v3.187l2.349-3.187h1.286v5.032h-1.286v-3.187zm-2.886-4.362h1.175c0 .246.048.444.145.593.097.15.242.224.436.224a.431.431 0 0 0 .392-.224c.097-.157.145-.354.145-.593h1.174c0 .522-.152.943-.458 1.264-.306.313-.723.47-1.253.47-.581 0-1.021-.153-1.319-.459-.291-.313-.437-.738-.437-1.275zM165.046 59.449c-.44 0-.868-.079-1.286-.235-.417-.164-.719-.366-.906-.604l.66-.806c.149.172.362.317.638.437.275.119.536.179.782.179.328 0 .582-.056.761-.168.179-.112.268-.261.268-.448a.499.499 0 0 0-.201-.413c-.134-.105-.321-.157-.559-.157h-.94v-.861h.884c.201 0 .362-.056.481-.168a.588.588 0 0 0 .19-.447c0-.366-.295-.548-.884-.548-.462 0-.92.194-1.375.581l-.537-.771c.477-.567 1.197-.85 2.158-.85.649 0 1.145.126 1.488.38.35.246.526.596.526 1.051 0 .246-.082.47-.246.671-.164.202-.392.35-.683.448v.022c.336.067.597.209.783.425.187.209.28.462.28.76 0 .47-.209.843-.626 1.119-.411.268-.962.403-1.656.403zM173.297 56.138l-2.349 3.188h-1.286v-5.033h1.286v3.187l2.349-3.187h1.286v5.032h-1.286v-3.187z" fill="#1A1A18"/><g clip-path="url(#b)"><path d="M82.96 42.31v1.957h-2.252V42.31c-2.492-.184-4.481-.86-5.967-2.028a5.84 5.84 0 0 1-2.23-4.81 5.838 5.838 0 0 1 2.23-4.804c1.498-1.171 3.488-1.847 5.967-2.028v-1.958h2.253v1.958c2.51.178 4.502.854 5.972 2.028a5.813 5.813 0 0 1 2.252 4.805 5.822 5.822 0 0 1-2.252 4.809c-1.474 1.168-3.464 1.844-5.972 2.028zm-6.635-10.17a3.999 3.999 0 0 0-1.556 3.332 3.967 3.967 0 0 0 1.556 3.318c1.022.788 2.483 1.256 4.383 1.402v-9.45c-1.897.131-3.358.597-4.383 1.398zm6.636-1.402v9.454c1.897-.136 3.36-.598 4.383-1.402a3.996 3.996 0 0 0 1.538-3.332 4.002 4.002 0 0 0-1.538-3.332c-1.022-.789-2.483-1.25-4.383-1.384v-.004zM100.321 31.434a5.94 5.94 0 0 1 4.435 1.907 6.739 6.739 0 0 1 0 9.24 5.912 5.912 0 0 1-4.435 1.869A5.252 5.252 0 0 1 95.648 42v7.095h-2.154V31.78h2.154v2.13a5.242 5.242 0 0 1 4.673-2.476zm-.271 10.95a4.24 4.24 0 0 0 3.121-1.262 4.415 4.415 0 0 0 1.262-3.173 4.278 4.278 0 0 0-1.262-3.145 4.46 4.46 0 0 0-6.266 0 4.27 4.27 0 0 0-1.262 3.145 4.421 4.421 0 0 0 1.262 3.173 4.272 4.272 0 0 0 3.145 1.262zM119.42 33.888V31.78h2.154v12.384h-2.154v-2.15a5.23 5.23 0 0 1-4.674 2.45 5.898 5.898 0 0 1-4.434-1.87 6.74 6.74 0 0 1 0-9.24 5.946 5.946 0 0 1 4.434-1.906 5.214 5.214 0 0 1 4.674 2.44zm-4.412 8.496a4.264 4.264 0 0 0 3.145-1.262 4.412 4.412 0 0 0 1.267-3.173 4.365 4.365 0 0 0-2.71-4.108 4.358 4.358 0 0 0-1.702-.323 4.208 4.208 0 0 0-3.117 1.285 4.265 4.265 0 0 0-1.266 3.146 4.405 4.405 0 0 0 1.266 3.178 4.235 4.235 0 0 0 3.117 1.257zM133.411 36.92v-5.14h2.154v12.385h-2.154v-5.197h-6.412v5.173h-2.159V31.78h2.159v5.14h6.412zM153.645 42.085V31.78h2.154v12.385h-16.963V31.78h2.154v10.328h5.276V31.78h2.154v10.328l5.225-.023zM161.22 40.454l6.864-8.674h1.734v12.385h-2.131v-8.716l-6.86 8.692h-1.733V31.78h2.126v8.674zM179.776 37.804c1.371.576 2.057 1.558 2.057 2.944a3.322 3.322 0 0 1-1.267 2.664c-.841.701-2.005 1.052-3.491 1.052-2.476 0-4.135-.991-4.976-2.973l1.808-1.065c.458 1.355 1.522 2.033 3.192 2.033a3.119 3.119 0 0 0 1.906-.519 1.658 1.658 0 0 0 .697-1.402 1.516 1.516 0 0 0-.561-1.215 2.238 2.238 0 0 0-1.495-.468h-1.809v-1.934h1.337a2.148 2.148 0 0 0 1.462-.468 1.588 1.588 0 0 0 .519-1.252 1.564 1.564 0 0 0-.617-1.3 2.631 2.631 0 0 0-1.659-.467c-1.386 0-2.329.588-2.827 1.762l-1.757-1.019c.875-1.813 2.403-2.721 4.584-2.724a4.751 4.751 0 0 1 3.182 1.028 3.265 3.265 0 0 1 1.201 2.57 3.004 3.004 0 0 1-1.486 2.753zM194.398 33.888V31.78h2.155v12.384h-2.155v-2.15a5.22 5.22 0 0 1-4.673 2.45 5.908 5.908 0 0 1-4.434-1.87 6.74 6.74 0 0 1 0-9.24 5.938 5.938 0 0 1 4.434-1.92 5.213 5.213 0 0 1 4.673 2.454zm-4.392 8.496a4.274 4.274 0 0 0 3.145-1.262 4.429 4.429 0 0 0 1.247-3.173 4.345 4.345 0 0 0-4.406-4.43 4.21 4.21 0 0 0-3.122 1.284 4.285 4.285 0 0 0-1.266 3.146 4.414 4.414 0 0 0 1.28 3.178 4.242 4.242 0 0 0 3.122 1.257z" fill="#1A1A18"/><path fill-rule="evenodd" clip-rule="evenodd" d="M3.64 16.142h60.932v27.322a3.64 3.64 0 0 1-3.64 3.64H3.64A3.64 3.64 0 0 1 0 43.464V19.783a3.64 3.64 0 0 1 3.64-3.64z" fill="#76B2D0"/><path fill-rule="evenodd" clip-rule="evenodd" d="M72.142 12.843c1.225-1.627 1.814-4.43.86-9.104-12.028 1.87-9.449 8.37-8.3 10.403a41.598 41.598 0 0 1 6.225-7.534 45.903 45.903 0 0 0-4.14 7.343c1.622-1.87 3.524-1.968 5.355-1.108zm3.786 3.814c-5.272 5.944-8.099 2.654-9.15.869a14.017 14.017 0 0 1 5.084-.701 15.64 15.64 0 0 0-5.379-.678c.64-1.537 3.276-6.075 9.445.51z" fill="#85BC22"/><path fill-rule="evenodd" clip-rule="evenodd" d="M36.805 22.938h1.584v1.584h-1.584v-1.584zm-22.688 9.926l3.935-9.926h2.617l-6.047 14.249c-.888 2.089-2.052 3.014-4.206 3.099a8.77 8.77 0 0 1-3.27-.58V37.71c2.041.599 2.308.669 3.037.655.995 0 1.836-.533 2.803-2.767L7.16 22.938h2.528l4.43 9.926zm17.155 7.422H29.09v-4.613c-.96.252-1.948.38-2.94.378-3.06 0-4.878-1.58-4.906-4.701v-3.776h2.173v3.865c0 1.897.934 2.724 2.733 2.724.992.002 1.98-.125 2.94-.378v-6.211h2.182v12.711zm8.692 0c-4.075 0-6.047-2.674-6.047-6.398 0-3.272 2.108-6.305 5.767-6.305 4.56 0 5.425 3.332 5.425 6.954h-9.183a3.956 3.956 0 0 0 4.108 3.968 4.318 4.318 0 0 0 3.528-1.584l1.402.995c-1.121 1.58-2.788 2.37-5 2.37zm-.28-10.988c-2.127 0-3.44 1.669-3.683 3.524H43.1c0-1.902-1.286-3.524-3.416-3.524zm17.724.042h-4.261v10.945h-2.173V29.34h-4.206v-1.766h10.617v1.757l.023.01zm-16.752-6.388h1.584v1.584h-1.584v-1.584z" fill="#fff"/></g><defs><clipPath id="a"><path fill="#fff" transform="translate(166.137)" d="M0 0h85.125v85H0z"/></clipPath><clipPath id="b"><path fill="#fff" transform="translate(0 3.739)" d="M0 0h196.567v45.356H0z"/></clipPath></defs></svg>