<svg width="80" height="80" viewBox="0 0 80 80" fill="none" xmlns="http://www.w3.org/2000/svg"><path d="M61.25 80h-42.5C8.411 80 0 71.589 0 61.25v-42.5C0 8.411 8.411 0 18.75 0h42.5C71.589 0 80 8.411 80 18.75v42.5C80 71.589 71.589 80 61.25 80zM18.75 6.25c-6.893 0-12.5 5.607-12.5 12.5v42.5c0 6.892 5.607 12.5 12.5 12.5h42.5c6.892 0 12.5-5.608 12.5-12.5v-42.5c0-6.893-5.608-12.5-12.5-12.5h-42.5z" fill="#EEA83F"/><path d="M55.946 40.486c0 .97-.786 1.756-1.756 1.756H34.636c.228 4.48 1.318 8.452 2.16 11.156a1.757 1.757 0 0 1-3.353 1.045c-.913-2.93-2.097-7.256-2.325-12.2h-4.332c-2.331-.094-2.33-3.422 0-3.514h4.34c.249-4.874 1.423-9.137 2.331-12.035a1.756 1.756 0 1 1 3.353 1.05c-.837 2.671-1.916 6.577-2.165 10.985h11.753c-.248-4.408-1.328-8.314-2.165-10.985a1.757 1.757 0 1 1 3.353-1.05c.908 2.898 2.082 7.16 2.33 12.035h4.274c.97 0 1.756.786 1.756 1.757zm.441-15.9c-14.13-14.1-38.365-4.058-38.385 15.9-.193 13.203 11.964 24.03 25.056 22.34 2.305-.357 1.927-3.662-.398-3.491-11.143 1.346-21.219-7.614-21.144-18.85 0-10.46 8.51-18.972 18.972-18.972 11.176-.068 20.108 9.886 18.866 20.984a1.757 1.757 0 1 0 3.494.368c.723-6.745-1.645-13.497-6.46-18.28zM47.602 57.7c-.97 0-1.756-.787-1.756-1.757v-4.919a5.276 5.276 0 0 1 5.27-5.27h5.006c2.33.093 2.329 3.422 0 3.514h-5.007c-.968 0-1.756.788-1.756 1.757v4.918c0 .97-.787 1.757-1.757 1.757zm14.857 4.755a1.757 1.757 0 0 0 0-2.484l-7.554-7.554c-1.714-1.582-4.066.773-2.485 2.485l7.554 7.553c.343.343.793.515 1.242.515.45 0 .9-.171 1.242-.514z" fill="#EEA83F" stroke="#EEA83F" stroke-width=".5"/></svg>