<svg width="202" height="92" viewBox="0 0 202 92" fill="none" xmlns="http://www.w3.org/2000/svg"><path d="M177.495 86.527c16.226-8.987 23.621-26.078 23.901-40.538.229-11.955-4.439-20.592-5.613-22.661-8.952-15.79-24.99-20.358-29.526-21.452-3.454-.831-15.734-3.6-29.389 2.287-18.506 7.972-24.823 25.492-25.854 28.507" fill="url(#a)"/><path d="M177.495 86.527c6.466-3.788 12.039-9.072 15.957-15.434a49.543 49.543 0 0 0 7.211-20.93 45.411 45.411 0 0 0-3.053-21.82c-2.76-6.877-7.526-12.884-13.414-17.348-5.877-4.5-12.836-7.589-20.098-9.062a47.734 47.734 0 0 0-11.06-.9c-3.706.155-7.395.711-10.969 1.72a43.392 43.392 0 0 0-10.201 4.407 45.653 45.653 0 0 0-8.832 6.78c-5.315 5.233-9.405 11.71-12.022 18.725a50.946 50.946 0 0 1 11.627-19.126 45.92 45.92 0 0 1 8.86-7.003 43.845 43.845 0 0 1 10.322-4.631C149.08-.28 156.869-.548 164.304.908c7.429 1.467 14.542 4.585 20.591 9.175 6.02 4.608 10.882 10.798 13.683 17.87 2.801 7.044 3.912 14.787 2.962 22.307a50.13 50.13 0 0 1-7.613 21.137 45.547 45.547 0 0 1-16.432 15.13z" fill="#fff"/><path d="M51.21 60.353h-3.396l-2.577-18.587h3.265l1.655 13.715c.046.407.063.762.063 1.066l-.04.648h.08c.172-.533.43-1.112.762-1.737l7.371-13.686h3.563L51.21 60.352zM79.087 49.372c0 2.005-.423 3.88-1.277 5.633-.853 1.748-2.027 3.135-3.528 4.15-1.5 1.014-3.288 1.524-5.35 1.524-1.512 0-2.846-.332-4.01-.997a6.744 6.744 0 0 1-2.691-2.825c-.636-1.221-.95-2.597-.95-4.133 0-1.622.251-3.129.76-4.51a10.862 10.862 0 0 1 2.223-3.651c.974-1.049 2.062-1.828 3.265-2.338 1.203-.51 2.52-.763 3.946-.763 1.495 0 2.824.327 3.981.98a6.665 6.665 0 0 1 2.686 2.786c.63 1.198.945 2.585.945 4.144zm-3.367.12c0-1.605-.413-2.877-1.238-3.817-.824-.94-1.941-1.404-3.35-1.404-1.175 0-2.269.367-3.282 1.106-1.014.74-1.804 1.777-2.372 3.118a10.707 10.707 0 0 0-.847 4.212c0 1.582.4 2.843 1.208 3.777.808.94 1.925 1.404 3.351 1.404a5.467 5.467 0 0 0 3.334-1.089c.99-.728 1.77-1.765 2.336-3.123.567-1.358.86-2.751.86-4.184zM93.063 45.32c-.544-.373-1.197-.671-1.965-.895-.761-.223-1.489-.338-2.17-.338-.665 0-1.232.115-1.696.344-.464.23-.825.533-1.07.906a2.22 2.22 0 0 0-.368 1.238c0 .624.184 1.175.545 1.667.36.488 1.06 1.072 2.085 1.754 1.328.889 2.25 1.731 2.766 2.522.516.791.773 1.674.773 2.654 0 1.083-.275 2.057-.825 2.923-.55.865-1.317 1.518-2.314 1.943-.99.43-2.165.641-3.522.641-.882 0-1.787-.114-2.72-.343-.934-.23-1.742-.528-2.423-.9l.544-2.97a8.19 8.19 0 0 0 2.24 1.153c.835.287 1.654.43 2.445.43 1.025 0 1.821-.224 2.383-.665.56-.447.842-1.072.842-1.886 0-.624-.2-1.169-.596-1.633-.395-.464-1.151-1.049-2.257-1.748-1.174-.745-2.027-1.53-2.56-2.367a5.02 5.02 0 0 1-.796-2.768c0-1.044.269-1.995.802-2.837.532-.849 1.294-1.508 2.28-1.978.984-.47 2.147-.705 3.499-.705 1.512 0 3.058.31 4.64.935l-.562 2.923zM109.255 60.353h-3.213l1.672-7.944h-8.563l-1.672 7.944h-3.236l3.94-18.587h3.237l-1.673 7.789h8.575l1.672-7.789h3.213l-3.952 18.587zM132.389 49.372c0 2.005-.424 3.88-1.277 5.633-.853 1.748-2.028 3.135-3.528 4.15-1.501 1.014-3.288 1.524-5.35 1.524-1.512 0-2.847-.332-4.009-.997a6.743 6.743 0 0 1-2.692-2.825c-.636-1.221-.951-2.597-.951-4.133 0-1.622.252-3.129.762-4.51a10.843 10.843 0 0 1 2.222-3.651c.974-1.049 2.062-1.828 3.265-2.338 1.203-.51 2.52-.763 3.946-.763 1.495 0 2.824.327 3.981.98a6.662 6.662 0 0 1 2.686 2.786c.63 1.198.945 2.585.945 4.144zm-3.368.12c0-1.605-.412-2.877-1.237-3.817-.825-.94-1.942-1.404-3.351-1.404-1.174 0-2.268.367-3.281 1.106-1.014.74-1.805 1.777-2.372 3.118a10.706 10.706 0 0 0-.847 4.212c0 1.582.4 2.843 1.208 3.777.808.94 1.925 1.404 3.351 1.404a5.466 5.466 0 0 0 3.333-1.089c.991-.728 1.77-1.765 2.337-3.123.579-1.353.859-2.751.859-4.184zM151.823 49.286c0 2.2-.464 4.155-1.397 5.857-.934 1.702-2.24 2.997-3.924 3.88-1.684.888-3.677 1.33-5.974 1.33h-6.695l3.952-18.587h5.853c2.503 0 4.497.67 5.974 2.012 1.472 1.335 2.211 3.175 2.211 5.508zm-3.356.246c0-1.656-.481-2.917-1.438-3.777-.956-.86-2.348-1.29-4.17-1.29h-2.434l-2.812 13.205h3.007c1.569 0 2.955-.338 4.147-1.008a6.765 6.765 0 0 0 2.743-2.883c.636-1.255.957-2.665.957-4.247zM61.99 80.435c0 2.006-.424 3.88-1.277 5.634-.853 1.748-2.028 3.135-3.528 4.15-1.5 1.014-3.288 1.524-5.35 1.524-1.512 0-2.846-.332-4.01-.997a6.744 6.744 0 0 1-2.691-2.826c-.636-1.22-.951-2.596-.951-4.132 0-1.622.252-3.13.762-4.51a10.862 10.862 0 0 1 2.222-3.652c.974-1.048 2.062-1.828 3.265-2.338 1.203-.51 2.52-.762 3.946-.762 1.495 0 2.824.327 3.981.98a6.665 6.665 0 0 1 2.686 2.785c.63 1.198.945 2.58.945 4.144zm-3.368.12c0-1.604-.412-2.877-1.237-3.817-.825-.94-1.941-1.404-3.35-1.404-1.175 0-2.269.367-3.282 1.106-1.014.74-1.805 1.777-2.372 3.118a10.706 10.706 0 0 0-.847 4.213c0 1.582.4 2.842 1.208 3.777.808.94 1.925 1.404 3.35 1.404a5.467 5.467 0 0 0 3.334-1.09c.991-.727 1.77-1.764 2.337-3.123.573-1.352.86-2.75.86-4.184zM79.488 91.417h-3.11l-6.335-13.349a11.004 11.004 0 0 1-.263-.647c-.126-.321-.2-.55-.23-.688h-.08l-.114.883-.155.945-2.732 12.856h-3.041L67.35 72.83h3.38l6.203 13.285c.2.442.344.803.43 1.09h.051c.046-.597.126-1.17.246-1.726l2.692-12.649h3.07l-3.935 18.587zM96.522 76.383c-.544-.373-1.197-.67-1.964-.894-.762-.224-1.49-.338-2.17-.338-.665 0-1.232.114-1.696.344-.464.229-.825.533-1.071.905-.247.378-.367.791-.367 1.238 0 .625.183 1.175.544 1.668.361.487 1.06 1.072 2.085 1.754 1.329.888 2.251 1.73 2.767 2.522a4.75 4.75 0 0 1 .773 2.653c0 1.083-.275 2.058-.825 2.923-.55.865-1.317 1.519-2.314 1.943-.99.43-2.165.642-3.523.642-.882 0-1.786-.115-2.72-.344-.934-.23-1.741-.527-2.423-.9l.544-2.969a8.19 8.19 0 0 0 2.24 1.152 7.54 7.54 0 0 0 2.445.43c1.026 0 1.822-.223 2.383-.665.561-.447.842-1.071.842-1.885 0-.625-.2-1.17-.596-1.634-.395-.464-1.15-1.048-2.256-1.748-1.174-.745-2.028-1.53-2.56-2.367a5.035 5.035 0 0 1-.797-2.768c0-1.043.27-1.989.802-2.837.533-.848 1.295-1.507 2.28-1.977.985-.47 2.148-.705 3.5-.705 1.512 0 3.058.31 4.639.934l-.562 2.923zM105.332 91.737c-1.953 0-3.5-.55-4.645-1.65-1.146-1.101-1.719-2.58-1.719-4.425 0-.9.103-1.829.31-2.786l2.165-10.047h3.224l-2.165 9.996c-.235 1.169-.349 2.011-.349 2.539 0 1.112.321 1.994.956 2.63.642.642 1.501.958 2.589.958 1.295 0 2.314-.39 3.065-1.175.744-.78 1.3-2.018 1.666-3.714l2.423-11.24h3.225l-2.394 11.16c-.413 1.937-.963 3.45-1.65 4.539-.687 1.089-1.575 1.897-2.663 2.424-1.083.527-2.435.791-4.038.791zM126.793 91.417h-10.361l3.941-18.587h3.236l-3.368 15.853h7.125l-.573 2.734zM142.819 75.524h-5.258l-3.356 15.893h-3.213l3.356-15.893h-5.35l.585-2.694h13.821l-.585 2.694zM145.448 91.417h-3.224l3.923-18.587h3.236l-3.935 18.587zM166.016 91.417h-3.11l-6.335-13.349a11.261 11.261 0 0 1-.263-.647c-.126-.321-.2-.55-.229-.688h-.08l-.115.883-.154.945-2.733 12.856h-3.041l3.923-18.587h3.38l6.203 13.285c.2.442.344.803.429 1.09h.052c.046-.597.126-1.17.246-1.726l2.692-12.649h3.07l-3.935 18.587zM187.341 76.704c-.642-.441-1.404-.79-2.297-1.054a9.781 9.781 0 0 0-2.778-.396c-1.501 0-2.83.338-3.981 1.003a6.775 6.775 0 0 0-2.669 2.831c-.624 1.221-.939 2.614-.939 4.184 0 1.783.475 3.187 1.432 4.213.956 1.025 2.256 1.541 3.906 1.541.934 0 1.798-.149 2.606-.441l.957-4.59h-4.044l.573-2.643h7.239l-1.918 8.998c-1.782.934-3.723 1.399-5.831 1.399-1.656 0-3.116-.344-4.37-1.032-1.255-.688-2.223-1.656-2.887-2.917-.67-1.255-1.003-2.694-1.003-4.31 0-2.115.459-4.018 1.375-5.703a9.54 9.54 0 0 1 3.895-3.903c1.678-.917 3.648-1.375 5.899-1.375 1.856 0 3.678.378 5.465 1.14l-.63 3.055zM38.633 49.217c-3.85-1.347-7.406-3.278-11.146-3.743-6.713-.836-11.341 3.113-14.755 8.454-3.574 5.588-5.258 11.784-5.155 18.443.144 9.102 6.22 13.95 15.11 11.71 3.3-.832 6.386-2.505 9.817-3.898.836 3.227.315 5.777-2.623 7.382-6.415 3.502-13.248 4.293-20.099 1.868C4.227 87.467 1.191 82.911.406 77.18c-1.58-11.463 1.45-21.728 9.136-30.365 6.96-7.823 18.884-10.035 27.298-5.461 3.952 2.149 4.382 4.676 1.793 7.863z" fill="#000"/><defs><linearGradient id="a" x1="139.932" y1="61.606" x2="188.081" y2="13.488" gradientUnits="userSpaceOnUse"><stop offset=".085" stop-color="#fff" stop-opacity="0"/><stop offset="1" stop-color="#fff"/></linearGradient></defs></svg>