<svg width="131" height="60" viewBox="0 0 131 60" fill="none" xmlns="http://www.w3.org/2000/svg"><path d="M114.172 56.64c10.439-5.775 15.197-16.765 15.376-26.06.149-7.686-2.854-13.237-3.61-14.57-5.76-10.153-16.076-13.088-18.993-13.793-2.22-.532-10.118-2.313-18.907 1.472-11.907 5.126-15.971 16.389-16.634 18.326" fill="url(#a)"/><path d="M114.172 56.64c4.039-2.653 7.448-6.125 9.802-10.216a31.37 31.37 0 0 0 2.847-6.422c.696-2.232 1.188-4.523 1.382-6.837l.074-.868.023-.868.022-.868-.026-.864c-.008-.578-.067-1.151-.101-1.725-.067-.574-.112-1.148-.212-1.714a28.28 28.28 0 0 0-1.867-6.624c-.454-1.054-.938-2.086-1.523-3.055l-.913-1.445c-.32-.47-.678-.917-1.013-1.375a26.657 26.657 0 0 0-4.862-4.787 29.659 29.659 0 0 0-5.905-3.51 31.615 31.615 0 0 0-6.553-2.15 30.32 30.32 0 0 0-6.866-.64 30.394 30.394 0 0 0-6.844.954c-.555.167-1.11.328-1.662.503-.54.205-1.091.39-1.628.607l-1.587.715-.398.179-.384.209-.768.413a28.819 28.819 0 0 0-5.674 4.11c-3.46 3.203-6.206 7.223-8.125 11.65 1.3-4.662 3.76-9.032 7.09-12.683 3.371-3.602 7.69-6.426 12.484-7.935 4.787-1.527 9.966-1.78 14.917-.853 4.951.939 9.675 2.995 13.717 6.061 4.027 3.074 7.287 7.228 9.116 11.982 1.807 4.709 2.5 9.868 1.781 14.838a31.931 31.931 0 0 1-5.305 13.785c-2.824 4.064-6.672 7.358-11.039 9.433z" fill="#FFE812"/><path d="M32.942 39.812h-2.184l-1.657-11.948h2.1l1.066 8.814c.026.261.041.488.041.682l-.026.417h.049c.111-.342.275-.715.491-1.117l4.743-8.8h2.291l-6.914 11.952zM50.872 32.755a8.163 8.163 0 0 1-.82 3.622c-.547 1.125-1.303 2.015-2.268 2.667-.965.652-2.112.98-3.442.98-.973 0-1.833-.212-2.578-.64a4.353 4.353 0 0 1-1.733-1.815c-.41-.783-.61-1.67-.61-2.66 0-1.043.163-2.012.491-2.899a6.967 6.967 0 0 1 1.43-2.347c.627-.674 1.327-1.177 2.102-1.505a6.446 6.446 0 0 1 2.537-.492c.961 0 1.814.209 2.563.63a4.31 4.31 0 0 1 1.729 1.792c.394.771.6 1.662.6 2.667zm-2.168.075c0-1.032-.264-1.852-.797-2.455-.53-.604-1.248-.905-2.153-.905-.757 0-1.46.238-2.113.711-.652.473-1.162 1.144-1.523 2.004a6.86 6.86 0 0 0-.548 2.709c0 1.017.26 1.825.779 2.429.517.603 1.236.905 2.153.905a3.55 3.55 0 0 0 2.146-.7c.637-.466 1.136-1.136 1.505-2.008a6.83 6.83 0 0 0 .551-2.69zM59.862 30.148a4.39 4.39 0 0 0-1.263-.574 4.93 4.93 0 0 0-1.397-.216c-.428 0-.79.074-1.091.22-.302.149-.53.342-.686.584a1.41 1.41 0 0 0-.238.798c0 .398.115.756.35 1.069.234.313.681.69 1.34 1.129.858.573 1.45 1.114 1.782 1.62.331.507.495 1.077.495 1.703 0 .693-.175 1.322-.529 1.877a3.2 3.2 0 0 1-1.486 1.249c-.641.275-1.394.413-2.265.413a7.438 7.438 0 0 1-1.751-.22c-.6-.149-1.118-.339-1.558-.58l.35-1.908c.422.313.902.559 1.442.741.54.183 1.066.276 1.576.276.66 0 1.174-.142 1.535-.429.361-.287.54-.689.54-1.21a1.57 1.57 0 0 0-.383-1.051c-.258-.302-.738-.674-1.45-1.125-.756-.477-1.304-.984-1.646-1.52a3.233 3.233 0 0 1-.514-1.777c0-.67.17-1.282.517-1.826.343-.544.835-.968 1.468-1.27.634-.302 1.382-.455 2.25-.455.973 0 1.968.201 2.985.6l-.373 1.882zM70.279 39.812H68.21l1.077-5.108H63.78l-1.076 5.108h-2.083l2.533-11.948h2.083l-1.077 5.007h5.518l1.076-5.007h2.068L70.28 39.812zM85.158 32.755a8.163 8.163 0 0 1-.82 3.622c-.547 1.125-1.303 2.015-2.268 2.667-.965.652-2.113.98-3.443.98-.972 0-1.832-.212-2.578-.64a4.353 4.353 0 0 1-1.732-1.815c-.41-.783-.611-1.67-.611-2.66 0-1.043.164-2.012.492-2.899a6.967 6.967 0 0 1 1.43-2.347c.626-.674 1.327-1.177 2.102-1.505a6.446 6.446 0 0 1 2.537-.492c.96 0 1.814.209 2.563.63a4.31 4.31 0 0 1 1.728 1.792c.399.771.6 1.662.6 2.667zm-2.164.075c0-1.032-.265-1.852-.798-2.455-.529-.604-1.248-.905-2.153-.905-.756 0-1.46.238-2.112.711-.652.473-1.163 1.144-1.524 2.004a6.86 6.86 0 0 0-.548 2.709c0 1.017.261 1.825.779 2.429.518.603 1.237.905 2.153.905a3.55 3.55 0 0 0 2.146-.7c.637-.466 1.136-1.136 1.505-2.008a6.828 6.828 0 0 0 .552-2.69zM97.657 32.696c0 1.416-.301 2.67-.901 3.766a6.02 6.02 0 0 1-2.526 2.496c-1.084.57-2.362.854-3.841.854h-4.307l2.54-11.948h3.767c1.61 0 2.891.432 3.841 1.293.954.86 1.427 2.041 1.427 3.539zm-2.157.16c0-1.066-.309-1.878-.924-2.43-.618-.55-1.512-.83-2.682-.83h-1.565l-1.807 8.49h1.934c1.01 0 1.9-.215 2.667-.648a4.335 4.335 0 0 0 1.766-1.855c.406-.801.611-1.71.611-2.727zM39.875 52.724c0 1.29-.272 2.496-.82 3.621-.547 1.125-1.304 2.016-2.269 2.668-.965.652-2.112.98-3.442.98-.972 0-1.833-.213-2.578-.641a4.352 4.352 0 0 1-1.732-1.815c-.41-.782-.611-1.669-.611-2.66 0-1.043.164-2.011.491-2.898a6.967 6.967 0 0 1 1.43-2.347c.627-.674 1.327-1.177 2.102-1.505a6.444 6.444 0 0 1 2.537-.492c.961 0 1.815.209 2.563.63a4.312 4.312 0 0 1 1.729 1.792c.395.77.6 1.661.6 2.667zm-2.169.075c0-1.032-.264-1.852-.797-2.456-.529-.603-1.248-.905-2.153-.905-.756 0-1.46.239-2.112.712-.652.477-1.163 1.144-1.524 2.004a6.86 6.86 0 0 0-.548 2.708c0 1.017.26 1.826.779 2.43.518.603 1.237.905 2.153.905a3.55 3.55 0 0 0 2.146-.7c.637-.466 1.136-1.137 1.505-2.009a6.816 6.816 0 0 0 .551-2.69zM51.13 59.784h-2.001L45.053 51.2c-.033-.07-.09-.212-.171-.417a2.594 2.594 0 0 1-.145-.44h-.049l-.074.567-.101.607-1.758 8.267h-1.96l2.526-11.948h2.175l3.99 8.54c.127.282.22.517.276.7h.034c.026-.384.082-.753.156-1.107l1.733-8.133h1.974l-2.53 11.948zM62.086 50.116a4.39 4.39 0 0 0-1.263-.574 4.93 4.93 0 0 0-1.397-.216c-.428 0-.79.075-1.091.22a1.667 1.667 0 0 0-.686.585 1.41 1.41 0 0 0-.238.797c0 .399.115.757.35 1.07.235.313.682.689 1.341 1.128.857.574 1.45 1.114 1.78 1.621.332.507.496 1.077.496 1.703 0 .692-.175 1.322-.529 1.877a3.2 3.2 0 0 1-1.486 1.248c-.64.276-1.394.414-2.265.414a7.438 7.438 0 0 1-1.751-.22c-.6-.149-1.118-.339-1.558-.581l.35-1.908c.422.313.902.56 1.442.742.54.182 1.066.275 1.576.275.66 0 1.174-.141 1.535-.428.362-.287.54-.69.54-1.21a1.57 1.57 0 0 0-.383-1.051c-.257-.302-.738-.675-1.45-1.125-.756-.477-1.303-.984-1.646-1.52a3.237 3.237 0 0 1-.514-1.781c0-.67.171-1.282.518-1.826.342-.544.834-.968 1.467-1.27.634-.302 1.383-.455 2.25-.455.973 0 1.968.202 2.985.6l-.373 1.885zM67.753 59.989c-1.256 0-2.25-.354-2.988-1.062-.738-.708-1.103-1.658-1.103-2.846 0-.578.067-1.174.201-1.792l1.394-6.456h2.075l-1.394 6.422c-.149.75-.223 1.293-.223 1.632 0 .715.205 1.282.618 1.691.41.41.965.619 1.666.619.834 0 1.49-.25 1.97-.757.48-.502.839-1.296 1.07-2.387l1.557-7.224h2.075l-1.542 7.175c-.269 1.244-.623 2.217-1.062 2.917a4.118 4.118 0 0 1-1.714 1.557c-.7.343-1.565.51-2.6.51zM81.56 59.784h-6.666l2.534-11.948h2.082l-2.168 10.19h4.582l-.365 1.758zM91.868 49.569h-3.383l-2.157 10.215H84.26l2.157-10.215h-3.442l.376-1.733h8.89l-.373 1.733zM93.56 59.784h-2.076l2.526-11.948h2.083l-2.534 11.948zM106.792 59.784h-2l-4.076-8.584c-.034-.07-.089-.212-.171-.417a2.625 2.625 0 0 1-.146-.44h-.048l-.075.567-.1.607-1.759 8.267h-1.96l2.527-11.948h2.175l3.99 8.54c.127.282.22.517.276.7h.033c.027-.384.082-.753.157-1.107l1.732-8.133h1.975l-2.53 11.948zM120.506 50.325a5.125 5.125 0 0 0-1.479-.678 6.344 6.344 0 0 0-1.788-.254c-.965 0-1.822.216-2.564.645a4.359 4.359 0 0 0-1.717 1.822c-.402.782-.604 1.68-.604 2.69 0 1.143.306 2.049.921 2.708.614.66 1.449.991 2.511.991a4.83 4.83 0 0 0 1.676-.283l.618-2.95h-2.6l.365-1.7h4.657l-1.233 5.782c-1.144.6-2.396.902-3.748.902-1.065 0-2.004-.22-2.813-.663a4.53 4.53 0 0 1-1.859-1.874c-.432-.809-.644-1.733-.644-2.772 0-1.36.294-2.582.883-3.666a6.122 6.122 0 0 1 2.503-2.507c1.081-.589 2.347-.883 3.797-.883 1.195 0 2.365.246 3.516.734l-.398 1.956zM24.85 32.651c-2.478-.864-4.765-2.109-7.172-2.407-4.318-.536-7.294 2.001-9.489 5.432-2.298 3.592-3.382 7.574-3.315 11.858.093 5.85 4 8.971 9.72 7.53 2.12-.537 4.105-1.61 6.314-2.504.537 2.075.201 3.715-1.688 4.746-4.127 2.25-8.52 2.761-12.927 1.204C2.72 57.247.768 54.319.261 50.634c-1.017-7.369.932-13.967 5.876-19.521 4.474-5.03 12.148-6.453 17.562-3.51 2.537 1.378 2.812 3.003 1.15 5.048z" fill="#000"/><defs><linearGradient id="a" x1="84.661" y1="41.246" x2="124.508" y2="13.769" gradientUnits="userSpaceOnUse"><stop offset="0" stop-color="#fff" stop-opacity=".3"/><stop offset="1" stop-color="#FF0"/></linearGradient></defs></svg>