<svg width="80" height="80" viewBox="0 0 80 80" fill="none" xmlns="http://www.w3.org/2000/svg"><path d="M61.25 80h-42.5C8.411 80 0 71.589 0 61.25v-42.5C0 8.411 8.411 0 18.75 0h42.5C71.589 0 80 8.411 80 18.75v42.5C80 71.589 71.589 80 61.25 80zM18.75 6.25c-6.893 0-12.5 5.607-12.5 12.5v42.5c0 6.892 5.607 12.5 12.5 12.5h42.5c6.892 0 12.5-5.608 12.5-12.5v-42.5c0-6.893-5.608-12.5-12.5-12.5h-42.5z" fill="#EEA83F"/><path d="M56.473 53.498a6.99 6.99 0 0 1-6.983-6.982 6.99 6.99 0 0 1 6.983-6.983 6.99 6.99 0 0 1 6.982 6.983 6.99 6.99 0 0 1-6.982 6.982zm0-9.668a2.689 2.689 0 0 0-2.686 2.686 2.689 2.689 0 0 0 2.686 2.685 2.689 2.689 0 0 0 2.685-2.685 2.689 2.689 0 0 0-2.685-2.686zM38.855 54.68a6.99 6.99 0 0 1-6.982-6.983 6.99 6.99 0 0 1 6.982-6.982 6.99 6.99 0 0 1 6.983 6.982 6.99 6.99 0 0 1-6.983 6.983zm0-9.668a2.689 2.689 0 0 0-2.685 2.685 2.689 2.689 0 0 0 2.685 2.686 2.689 2.689 0 0 0 2.686-2.686 2.689 2.689 0 0 0-2.686-2.685zm-5.585 20.84c0-2.31 1.903-4.19 4.242-4.19h3.707a2.148 2.148 0 1 0 0-4.297h-3.707c-4.709 0-8.54 3.807-8.54 8.486a2.148 2.148 0 0 0 4.297 0zM21.453 54.68a6.99 6.99 0 0 1-6.982-6.983 6.99 6.99 0 0 1 6.982-6.982 6.99 6.99 0 0 1 6.983 6.982 6.99 6.99 0 0 1-6.983 6.983zm0-9.668a2.689 2.689 0 0 0-2.685 2.685 2.689 2.689 0 0 0 2.685 2.686 2.689 2.689 0 0 0 2.686-2.686 2.689 2.689 0 0 0-2.686-2.685zm-5.156 20.84c0-2.31 1.903-4.19 4.242-4.19h4.352a2.148 2.148 0 1 0 0-4.297h-4.352c-4.709 0-8.539 3.807-8.539 8.486a2.148 2.148 0 0 0 4.297 0zM49.92 36.847c-.559 0-1.108-.219-1.52-.63l-.194-.194a3.428 3.428 0 0 0-3.955-.65 14.016 14.016 0 0 1-6.303 1.473H23.924C17.349 36.847 12 31.5 12 24.924S17.349 13 23.924 13h16.22c6.575 0 11.924 5.349 11.924 11.924v9.775a2.149 2.149 0 0 1-2.148 2.149zM23.924 17.297c-4.206 0-7.627 3.421-7.627 7.627 0 4.205 3.421 7.627 7.627 7.627H37.947c1.55 0 3.027-.344 4.39-1.023a7.713 7.713 0 0 1 5.434-.548v-6.056c0-4.206-3.421-7.627-7.627-7.627h-16.22zM64.852 68a2.148 2.148 0 0 1-2.149-2.148c0-3.133-2.565-5.682-5.717-5.682h-1.457c-3.152 0-5.717 2.549-5.717 5.681a2.148 2.148 0 1 1-4.296 0c0-5.502 4.492-9.978 10.013-9.978h1.457C62.508 55.873 67 60.35 67 65.852A2.149 2.149 0 0 1 64.852 68zM20.593 24.924a2.686 2.686 0 1 0 5.37 0 2.686 2.686 0 0 0-5.37 0zm8.593 0a2.685 2.685 0 1 0 5.371 0 2.685 2.685 0 0 0-5.37 0zm8.594 0a2.686 2.686 0 1 0 5.371 0 2.686 2.686 0 0 0-5.37 0z" fill="#EEA83F" stroke="#EEA83F" stroke-width=".5"/></svg>