<svg width="80" height="80" viewBox="0 0 80 80" fill="none" xmlns="http://www.w3.org/2000/svg"><path d="M61.25 80h-42.5C8.411 80 0 71.589 0 61.25v-42.5C0 8.411 8.411 0 18.75 0h42.5C71.589 0 80 8.411 80 18.75v42.5C80 71.589 71.589 80 61.25 80zM18.75 6.25c-6.893 0-12.5 5.607-12.5 12.5v42.5c0 6.892 5.607 12.5 12.5 12.5h42.5c6.892 0 12.5-5.608 12.5-12.5v-42.5c0-6.893-5.608-12.5-12.5-12.5h-42.5z" fill="#EEA83F"/><path d="M59.795 47.38V44.55a6.453 6.453 0 0 0-6.445-6.446 6.453 6.453 0 0 0-6.446 6.446v2.795c-3.427 1.13-5.908 4.361-5.908 8.162v2.9c0 4.739 3.855 8.594 8.594 8.594h7.412c4.738 0 8.594-3.855 8.594-8.594v-2.9c0-3.761-2.43-6.963-5.801-8.125zM53.35 42.4a2.15 2.15 0 0 1 2.148 2.149v2.363h-4.297V44.55A2.15 2.15 0 0 1 53.35 42.4zm7.949 16.006a4.302 4.302 0 0 1-4.297 4.297H49.59a4.302 4.302 0 0 1-4.297-4.297v-2.9a4.302 4.302 0 0 1 4.297-4.297h7.412a4.302 4.302 0 0 1 4.297 4.297v2.9zM35.947 41.004c7.997 0 14.502-6.506 14.502-14.502S43.944 12 35.947 12c-7.996 0-14.502 6.506-14.502 14.502s6.506 14.502 14.502 14.502zm0-24.707c5.627 0 10.205 4.578 10.205 10.205s-4.578 10.205-10.205 10.205-10.205-4.578-10.205-10.205 4.578-10.205 10.205-10.205zm20.16 40.605a2.686 2.686 0 1 1-5.371 0 2.686 2.686 0 0 1 5.37 0zm-17.26-9.453a2.148 2.148 0 0 1-2.148 2.149h-2.148c-8.411 0-15.254 6.843-15.254 15.254a2.148 2.148 0 0 1-4.297 0C15 54.072 23.77 45.3 34.55 45.3h2.15c1.186 0 2.148.962 2.148 2.148z" fill="#EEA83F" stroke="#EEA83F" stroke-width=".5"/></svg>