<svg width="80" height="80" viewBox="0 0 80 80" fill="none" xmlns="http://www.w3.org/2000/svg"><path d="M61.25 80h-42.5C8.411 80 0 71.589 0 61.25v-42.5C0 8.411 8.411 0 18.75 0h42.5C71.589 0 80 8.411 80 18.75v42.5C80 71.589 71.589 80 61.25 80zM18.75 6.25c-6.893 0-12.5 5.607-12.5 12.5v42.5c0 6.892 5.607 12.5 12.5 12.5h42.5c6.892 0 12.5-5.608 12.5-12.5v-42.5c0-6.893-5.608-12.5-12.5-12.5h-42.5z" fill="#EEA83F"/><path d="M60.85 45.957a4.378 4.378 0 0 0 1.123-2.93 4.4 4.4 0 0 0-4.395-4.394h-8.53c.846-2.564 1.206-5.965 1.206-7.423v-1.464c0-3.23-2.629-5.86-5.86-5.86H42.93c-.672 0-1.258.458-1.421 1.11l-.798 3.193c-1.118 4.47-4.668 9.403-8.342 10.3a4.4 4.4 0 0 0-4.088-2.786h-8.789c-.808 0-1.465.656-1.465 1.465v26.367c0 .809.657 1.465 1.465 1.465h8.79a4.4 4.4 0 0 0 3.966-2.505l5.033 1.678a16.08 16.08 0 0 0 5.096.827h12.271a4.4 4.4 0 0 0 4.086-6.014 4.403 4.403 0 0 0 3.239-4.24 4.378 4.378 0 0 0-1.122-2.93 4.378 4.378 0 0 0 1.122-2.93 4.378 4.378 0 0 0-1.122-2.929zM29.747 60.605c0 .808-.657 1.465-1.465 1.465h-7.324V38.633h7.324c.808 0 1.465.657 1.465 1.465v20.508zm24.902-13.183h2.93c.808 0 1.465.657 1.465 1.465 0 .807-.657 1.465-1.465 1.465h-2.93a1.465 1.465 0 0 0 0 2.93h2.93c.808 0 1.465.657 1.465 1.464 0 .808-.657 1.465-1.465 1.465h-2.93a1.465 1.465 0 0 0 0 2.93c.808 0 1.465.657 1.465 1.465 0 .807-.657 1.464-1.465 1.464H42.377c-1.42 0-2.823-.227-4.17-.676l-5.531-1.844V41.424c2.298-.437 4.547-1.892 6.577-4.274 1.982-2.326 3.59-5.41 4.3-8.25l.52-2.084h.322a2.933 2.933 0 0 1 2.93 2.93v1.464c0 1.967-.616 5.74-1.403 7.423H42.93a1.465 1.465 0 0 0 0 2.93h14.648c.808 0 1.465.657 1.465 1.464 0 .808-.657 1.465-1.465 1.465h-2.93a1.465 1.465 0 0 0 0 2.93z" fill="#EEA83F" stroke="#EEA83F"/><path d="M25.352 59.14a1.465 1.465 0 1 0 0-2.929 1.465 1.465 0 0 0 0 2.93zM45.86 15c-.81 0-1.465.656-1.465 1.465v3.027a1.465 1.465 0 0 0 2.93 0v-3.027c0-.81-.657-1.465-1.466-1.465zM39.645 21.46l-2.072-2.072A1.465 1.465 0 1 0 35.5 21.46l2.072 2.071a1.465 1.465 0 0 0 2.072-2.071zM56.217 19.388a1.465 1.465 0 0 0-2.071 0l-2.072 2.072a1.465 1.465 0 1 0 2.072 2.071l2.071-2.071c.572-.572.572-1.5 0-2.072z" fill="#EEA83F" stroke="#EEA83F"/></svg>