<svg width="80" height="80" viewBox="0 0 80 80" fill="none" xmlns="http://www.w3.org/2000/svg"><path d="M61.25 80h-42.5C8.411 80 0 71.589 0 61.25v-42.5C0 8.411 8.411 0 18.75 0h42.5C71.589 0 80 8.411 80 18.75v42.5C80 71.589 71.589 80 61.25 80zM18.75 6.25c-6.893 0-12.5 5.607-12.5 12.5v42.5c0 6.892 5.607 12.5 12.5 12.5h42.5c6.892 0 12.5-5.608 12.5-12.5v-42.5c0-6.893-5.608-12.5-12.5-12.5h-42.5zm32.258 58.904a8.338 8.338 0 0 1-3.855-.95l-6.192-3.222a2.083 2.083 0 0 0-1.922 0l-6.192 3.222a8.278 8.278 0 0 1-8.76-.662 8.169 8.169 0 0 1-3.257-8.033l1.183-6.826a1.96 1.96 0 0 0-.577-1.744l-5.01-4.834c-4.942-4.688-2.148-13.163 4.589-14.063l6.922-.996a2.036 2.036 0 0 0 1.538-1.099l3.096-6.21c2.959-6.077 11.9-6.075 14.858 0l3.096 6.21c.295.592.87 1.003 1.537 1.099l6.923.996c6.74.9 9.529 9.377 4.588 14.063l-5.01 4.834a1.958 1.958 0 0 0-.576 1.744l1.182 6.826a8.168 8.168 0 0 1-3.256 8.033 8.295 8.295 0 0 1-4.905 1.612zM40 54.498c1.321 0 2.642.313 3.846.94l6.192 3.222c1.034.539 1.874.065 2.187-.164.298-.218.973-.843.787-1.92l-1.183-6.826a8.202 8.202 0 0 1 2.395-7.308l5.01-4.834c.797-.77.622-1.662.51-2.009-.115-.357-.507-1.207-1.648-1.371l-6.923-.996a8.286 8.286 0 0 1-6.242-4.496l-3.095-6.21c-.743-1.5-2.926-1.503-3.671 0l-3.096 6.21a8.286 8.286 0 0 1-6.241 4.496l-6.923.996c-1.142.164-1.533 1.014-1.65 1.371-.111.348-.286 1.239.512 2.009l5.01 4.834a8.203 8.203 0 0 1 2.394 7.308l-1.182 6.825c-.187 1.078.488 1.703.787 1.921.312.23 1.151.702 2.186.164l6.192-3.222a8.328 8.328 0 0 1 3.846-.94z" fill="#EEA83F"/></svg>