<svg width="80" height="80" viewBox="0 0 80 80" fill="none" xmlns="http://www.w3.org/2000/svg"><path d="M61.25 80h-42.5C8.411 80 0 71.589 0 61.25v-42.5C0 8.411 8.411 0 18.75 0h42.5C71.589 0 80 8.411 80 18.75v42.5C80 71.589 71.589 80 61.25 80zM18.75 6.25c-6.893 0-12.5 5.607-12.5 12.5v42.5c0 6.892 5.607 12.5 12.5 12.5h42.5c6.892 0 12.5-5.608 12.5-12.5v-42.5c0-6.893-5.608-12.5-12.5-12.5h-42.5z" fill="#EEA83F"/><path d="M34.666 58.332C22.168 58.332 12 48.164 12 35.666 12 23.168 22.168 13 34.666 13c12.498 0 22.666 10.168 22.666 22.666 0 12.498-10.168 22.666-22.666 22.666zm0-41.035c-10.129 0-18.37 8.24-18.37 18.369s8.241 18.37 18.37 18.37c10.129 0 18.37-8.241 18.37-18.37 0-10.129-8.241-18.37-18.37-18.37zm.206 19.336a6.775 6.775 0 0 1-6.767-6.768 6.775 6.775 0 0 1 6.767-6.767 6.775 6.775 0 0 1 6.768 6.767 6.775 6.775 0 0 1-6.768 6.768zm0-9.239a2.474 2.474 0 0 0-2.47 2.471 2.474 2.474 0 0 0 2.47 2.47 2.473 2.473 0 0 0 2.47-2.47 2.473 2.473 0 0 0-2.47-2.47zm6.56 20.733a2.15 2.15 0 0 1-2.077-1.606 4.336 4.336 0 0 0-4.204-3.228h-1.202a4.336 4.336 0 0 0-4.204 3.228 2.149 2.149 0 0 1-4.158-1.085c.99-3.792 4.428-6.44 8.362-6.44h1.202c3.934 0 7.372 2.648 8.361 6.44a2.148 2.148 0 0 1-2.08 2.691zm24.943 19.24a2.148 2.148 0 0 0-.008-3.039l-9.669-9.614a2.149 2.149 0 0 0-3.03 3.047l9.669 9.614A2.14 2.14 0 0 0 64.85 68c.552 0 1.104-.212 1.524-.633z" fill="#EEA83F" stroke="#EEA83F" stroke-width=".5"/></svg>