<svg width="701" height="713" viewBox="0 0 701 713" fill="none" xmlns="http://www.w3.org/2000/svg"><path d="M387.187 566.288c-52.39-12.746-92.289-29.79-135.608-49.087-43.589-19.061-90.598-40.374-112.951-77.176-22.622-36.564-20.826-88.886-12.815-142.85 7.74-53.726 21.219-109.633 54.927-159.418 33.471-50.056 86.934-94.259 136.334-86.539 49.4 7.72 94.738 67.364 136.036 110.46 41.536 43.366 79.032 70.185 107.61 109.164 28.578 38.979 47.699 90.593 47.435 146.831.243 56.269-19.405 117.13-61.535 143.217-42.162 26.594-107.011 17.638-159.433 5.398z" fill="url(#a)"/><defs><linearGradient id="a" y1="284.95" x2="382.572" y2="2.703" gradientUnits="userSpaceOnUse"><stop stop-color="#FA0"/><stop offset="1" stop-color="#FFE812"/></linearGradient></defs></svg>