<svg width="747" height="805" viewBox="0 0 747 805" fill="none" xmlns="http://www.w3.org/2000/svg"><path d="M160.617 518.683c-5.298-61.041 49.076-147.048 54.126-200.7 4.696-53.857-39.934-75.36-8.423-112.793 31.158-37.636 88.15-54.7 149.166-65.67 60.662-11.174 125.756-16.961 191.605 1.258 66.052 17.865 133.063 59.382 142.688 115.379 9.625 55.997-141.797 82.373-173.207 142.491-31.613 60.472 56.785 154.686 25.19 199.612-31.595 44.927-80.229 84.258-140.881 104.394-60.502 20.695-133.171 21.637-176.559-14.255-43.945-35.743-57.849-108.824-63.705-169.716z" fill="url(#a)"/><defs><linearGradient id="a" x1="323.646" x2="764.951" y2="308.181" gradientUnits="userSpaceOnUse"><stop stop-color="#FA0"/><stop offset="1" stop-color="#FFE812"/></linearGradient></defs></svg>